M48
; DRILL file {KiCad 8.0.7} date 2025-01-21T13:47:45+0100
; FORMAT={-:-/ absolute / metric / decimal}
; #@! TF.CreationDate,2025-01-21T13:47:45+01:00
; #@! TF.GenerationSoftware,Kicad,Pcbnew,8.0.7
; #@! TF.FileFunction,Plated,1,4,PTH
FMAT,2
METRIC
; #@! TA.AperFunction,Plated,PTH,ViaDrill
T1C0.300
; #@! TA.AperFunction,Plated,PTH,ComponentDrill
T2C1.000
; #@! TA.AperFunction,Plated,PTH,ComponentDrill
T3C1.100
; #@! TA.AperFunction,Plated,PTH,ComponentDrill
T4C3.200
; #@! TA.AperFunction,Plated,PTH,ComponentDrill
T5C4.550
%
G90
G05
T1
X97.428Y-75.1
X97.65Y-69.506
X97.709Y-68.697
X97.713Y-67.88
X98.231Y-75.2
X98.828Y-120.2
X99.028Y-108.8
X99.035Y-75.099
X99.528Y-118.8
X100.128Y-83.5
X100.353Y-93.025
X100.628Y-127.0
X100.903Y-92.475
X101.128Y-102.1
X101.42Y-91.99
X101.928Y-97.8
X101.928Y-98.7
X102.228Y-55.5
X102.328Y-57.0
X102.828Y-97.5
X103.328Y-98.0
X103.528Y-110.7
X103.628Y-99.0
X103.928Y-74.3
X103.928Y-113.6
X104.428Y-122.1
X104.628Y-74.8
X105.128Y-64.2
X105.128Y-84.9
X105.702Y-87.933
X105.728Y-70.6
X105.728Y-73.4
X105.928Y-84.9
X106.128Y-88.5
X106.128Y-125.2
X106.15Y-89.823
X106.328Y-108.695
X106.728Y-82.3
X107.328Y-100.7
X107.48Y-81.075
X107.58Y-108.864
X107.612Y-73.6
X107.728Y-60.2
X107.928Y-63.5
X108.193Y-65.191
X108.828Y-61.6
X109.028Y-83.1
X109.209Y-86.62
X109.728Y-82.4
X109.928Y-71.8
X110.028Y-45.7
X110.128Y-79.173
X110.228Y-44.4
X110.328Y-43.3
X110.528Y-55.47
X110.695Y-108.491
X110.728Y-97.9
X110.927Y-105.699
X111.028Y-87.5
X111.167Y-81.439
X111.288Y-104.181
X111.328Y-107.8
X111.428Y-45.6
X111.428Y-133.7
X111.428Y-134.5
X111.428Y-135.3
X111.828Y-106.9
X111.928Y-117.1
X112.087Y-56.417
X112.128Y-77.8
X112.188Y-66.261
X112.217Y-67.933
X112.228Y-75.855
X112.428Y-133.7
X112.428Y-134.5
X112.428Y-135.3
X112.528Y-55.0
X112.568Y-71.095
X112.611Y-70.249
X112.628Y-61.019
X112.669Y-50.376
X112.669Y-108.379
X112.728Y-73.9
X112.827Y-69.448
X112.828Y-67.4
X112.828Y-111.3
X112.834Y-102.726
X112.928Y-72.3
X113.428Y-106.655
X113.428Y-133.7
X113.428Y-134.6
X113.428Y-135.4
X113.528Y-43.3
X113.539Y-71.769
X113.728Y-62.3
X113.849Y-68.021
X114.528Y-133.7
X114.528Y-134.6
X114.528Y-135.4
X114.628Y-85.5
X114.728Y-75.1
X114.746Y-75.809
X114.828Y-96.5
X114.928Y-100.3
X115.028Y-98.2
X115.317Y-62.3
X115.528Y-133.7
X115.528Y-134.6
X115.528Y-135.4
X115.867Y-107.686
X116.207Y-105.155
X116.293Y-81.483
X116.478Y-83.61
X116.528Y-133.7
X116.528Y-134.6
X116.528Y-135.4
X116.728Y-46.5
X116.828Y-105.914
X116.928Y-62.1
X117.028Y-77.1
X117.328Y-66.4
X117.328Y-69.8
X117.328Y-70.9
X117.328Y-72.4
X117.428Y-98.1
X117.828Y-85.0
X117.828Y-111.8
X117.867Y-106.031
X117.88Y-104.13
X117.928Y-112.5
X118.128Y-57.181
X118.128Y-84.2
X118.183Y-96.356
X118.228Y-58.4
X118.228Y-83.2
X118.328Y-113.4
X118.328Y-114.1
X118.428Y-90.8
X118.728Y-76.6
X119.122Y-83.5
X119.122Y-84.626
X119.128Y-61.2
X120.788Y-66.861
X120.928Y-75.6
X121.628Y-62.6
X121.628Y-76.6
X121.728Y-106.2
X121.928Y-69.9
X122.028Y-81.0
X122.628Y-90.141
X123.042Y-108.305
X123.409Y-78.979
X123.428Y-77.2
X123.528Y-76.1
X123.728Y-65.0
X123.971Y-106.9
X124.328Y-63.1
X124.328Y-108.0
X124.628Y-77.3
X125.091Y-40.663
X125.228Y-56.0
X125.428Y-37.219
X125.565Y-64.037
X125.617Y-57.211
X125.928Y-65.8
X126.049Y-67.821
X126.128Y-49.4
X126.428Y-37.219
X126.533Y-84.6
X126.533Y-85.2
X126.559Y-74.307
X126.559Y-75.129
X126.628Y-108.1
X126.848Y-100.7
X126.979Y-72.806
X127.028Y-49.4
X127.228Y-75.71
X127.328Y-73.6
X127.528Y-40.9
X127.528Y-67.2
X128.328Y-93.181
X128.805Y-61.645
X128.828Y-106.0
X129.328Y-73.6
X129.378Y-58.049
X130.128Y-49.4
X130.528Y-62.7
X130.628Y-40.62
X130.928Y-49.4
X130.928Y-54.2
X131.872Y-109.5
X132.228Y-37.219
X132.328Y-65.2
X132.428Y-33.9
X132.528Y-106.7
X133.028Y-37.219
X133.108Y-74.785
X133.128Y-72.3
X133.133Y-73.116
X133.134Y-73.938
X133.628Y-67.4
X134.928Y-79.6
X135.528Y-51.6
X135.928Y-36.284
X136.046Y-53.1
X136.528Y-91.9
X136.528Y-92.9
X136.528Y-93.8
X137.628Y-81.755
X137.64Y-80.945
X137.647Y-82.565
X137.828Y-131.9
X138.028Y-108.2
X138.728Y-40.9
X139.333Y-131.9
X139.346Y-90.1
X139.351Y-91.102
X139.425Y-92.1
X139.426Y-70.091
X139.428Y-69.281
X139.428Y-93.0
X139.428Y-121.5
X139.429Y-70.901
X139.443Y-72.281
X139.49Y-73.09
X139.533Y-73.899
X139.862Y-95.195
X140.528Y-137.6
X140.728Y-138.7
X140.928Y-134.1
X141.328Y-40.1
X141.328Y-114.1
X141.828Y-117.1
X141.928Y-138.0
X142.228Y-40.22
X142.628Y-138.9
X142.728Y-51.6
X143.087Y-44.4
X143.087Y-45.429
X143.092Y-79.614
X143.228Y-111.2
X143.318Y-36.681
X143.44Y-113.612
X143.508Y-43.157
X143.528Y-122.3
X143.828Y-41.1
X143.828Y-41.8
X143.928Y-53.2
X144.377Y-85.5
X144.428Y-108.368
X144.628Y-56.3
X144.728Y-53.2
X144.928Y-88.6
X145.17Y-56.034
X145.428Y-117.2
X145.528Y-86.6
X145.528Y-95.4
X145.628Y-49.793
X145.828Y-56.3
X146.028Y-110.17
X146.117Y-87.25
X146.246Y-81.204
X146.428Y-106.01
X146.591Y-40.021
X146.751Y-93.469
X146.933Y-54.8
X146.943Y-59.6
X146.943Y-61.0
X147.028Y-82.5
X147.043Y-73.164
X147.103Y-113.95
X147.148Y-90.021
X147.417Y-45.511
X147.428Y-138.1
X147.528Y-77.719
X147.624Y-72.6
X147.628Y-50.0
X147.713Y-82.069
X148.009Y-40.09
X148.072Y-78.319
X148.39Y-73.1
X148.438Y-81.311
X148.528Y-105.2
X148.605Y-43.819
X148.616Y-78.919
X148.728Y-58.5
X148.828Y-55.8
X148.928Y-41.9
X149.008Y-44.649
X149.028Y-72.6
X149.128Y-43.2
X149.228Y-37.5
X149.228Y-127.2
X149.428Y-141.3
X149.646Y-73.123
X149.804Y-84.919
X149.828Y-115.6
X149.928Y-121.6
X150.228Y-73.8
X150.328Y-75.519
X150.518Y-53.21
X150.528Y-60.8
X150.878Y-73.302
X151.028Y-81.2
X151.128Y-74.919
X151.128Y-84.7
X151.141Y-117.471
X151.149Y-53.717
X151.233Y-72.573
X151.478Y-109.55
X151.728Y-89.693
X151.828Y-139.0
X151.828Y-148.5
X152.228Y-110.3
X152.428Y-100.8
X152.428Y-130.4
X152.428Y-137.8
X152.511Y-52.1
X152.511Y-53.23
X152.528Y-132.8
X152.619Y-96.8
X152.628Y-102.1
X152.628Y-149.307
X152.728Y-139.3
X152.799Y-82.871
X152.809Y-41.298
X152.928Y-47.3
X152.928Y-129.4
X153.328Y-99.0
X153.328Y-100.5
X153.453Y-93.607
X153.503Y-94.415
X153.528Y-147.3
X153.622Y-41.369
X153.628Y-130.1
X153.728Y-45.4
X153.728Y-55.3
X153.828Y-119.1
X153.833Y-89.848
X153.843Y-98.375
X153.928Y-85.2
X154.028Y-87.6
X154.242Y-46.034
X154.386Y-37.995
X154.528Y-132.2
X154.616Y-101.604
X154.628Y-86.1
X154.628Y-122.8
X155.228Y-33.281
X155.372Y-111.9
X155.428Y-86.9
X155.578Y-136.623
X155.628Y-56.8
X156.028Y-83.8
X156.028Y-97.6
X156.028Y-98.5
X156.228Y-33.3
X156.428Y-56.8
X156.428Y-88.33
X156.428Y-125.8
X156.592Y-84.381
X156.928Y-133.2
X157.028Y-56.5
X157.121Y-110.893
X157.128Y-139.8
X157.514Y-47.7
X157.528Y-97.6
X157.628Y-44.7
X157.679Y-41.268
X157.728Y-33.3
X157.828Y-51.5
X157.913Y-57.3
X157.928Y-50.312
X158.028Y-84.6
X158.028Y-141.4
X158.228Y-71.8
X158.328Y-62.4
X158.428Y-86.4
X158.888Y-112.361
X158.928Y-33.3
X158.928Y-95.74
X158.995Y-56.2
X159.528Y-87.481
X159.706Y-41.278
X159.828Y-33.3
X160.038Y-40.2
X160.228Y-62.5
X160.415Y-72.57
X160.428Y-78.1
X160.428Y-88.0
X160.463Y-56.2
X160.828Y-90.3
X160.928Y-92.736
X160.928Y-100.4
X161.223Y-72.629
X161.228Y-75.519
X161.328Y-41.3
X161.428Y-132.9
X161.626Y-88.226
X161.728Y-91.081
X161.728Y-137.1
X161.961Y-76.019
X162.032Y-72.6
X162.058Y-53.23
X162.063Y-56.2
X162.102Y-60.287
X162.228Y-98.9
X162.236Y-92.307
X162.293Y-47.866
X162.417Y-45.849
X162.428Y-138.6
X162.628Y-133.2
X162.647Y-134.3
X162.647Y-135.4
X162.647Y-136.3
X162.828Y-47.2
X162.928Y-84.6
X163.028Y-48.4
X163.028Y-50.1
X163.074Y-91.926
X163.393Y-57.037
X163.428Y-40.1
X163.446Y-42.88
X163.446Y-45.011
X163.528Y-97.8
X164.133Y-49.609
X164.828Y-81.4
X164.892Y-80.593
X165.128Y-140.0
X165.238Y-90.111
X165.328Y-130.8
X165.473Y-79.8
X165.628Y-53.9
X165.808Y-127.2
X165.928Y-129.9
X166.438Y-36.589
X166.628Y-53.9
X166.835Y-56.087
X166.957Y-85.0
X167.028Y-146.0
X167.331Y-136.6
X167.534Y-52.115
X167.559Y-85.6
X167.828Y-138.1
X167.928Y-136.0
X167.928Y-137.1
X167.971Y-58.722
X168.028Y-57.0
X168.252Y-86.3
X168.614Y-64.69
X168.821Y-134.5
X168.843Y-75.3
X169.328Y-37.8
X169.328Y-54.3
X169.328Y-76.1
X169.828Y-75.4
X169.928Y-39.1
X170.128Y-38.0
X170.367Y-63.139
X170.528Y-53.9
X170.628Y-43.2
X170.699Y-132.393
X170.828Y-62.1
X171.288Y-60.959
X171.428Y-81.277
X172.288Y-41.639
X172.328Y-80.8
X172.363Y-60.58
X172.528Y-53.7
X172.628Y-52.1
X172.706Y-78.381
X172.928Y-135.2
X172.928Y-136.2
X173.128Y-132.0
X173.228Y-74.8
X173.528Y-78.381
X173.628Y-76.119
X173.828Y-132.6
X174.128Y-67.8
X174.224Y-77.781
X174.228Y-54.7
X174.228Y-80.8
X174.366Y-130.681
X174.428Y-70.0
X174.528Y-46.8
X174.528Y-47.9
X174.528Y-76.119
X174.61Y-129.468
X174.828Y-83.0
X175.528Y-130.1
X175.563Y-63.636
X175.628Y-58.9
X176.028Y-134.2
X176.428Y-64.0
X176.428Y-74.731
X176.583Y-80.242
X177.228Y-61.4
X177.817Y-80.089
X177.841Y-42.9
X177.928Y-48.8
X178.128Y-51.0
X178.346Y-87.535
X178.695Y-70.514
X178.828Y-51.0
X178.828Y-92.887
X178.928Y-89.356
X179.009Y-85.13
X179.028Y-72.9
X179.078Y-75.23
X179.288Y-80.261
X180.028Y-140.4
X180.228Y-77.815
X180.528Y-59.7
X180.528Y-61.4
X180.717Y-47.5
X180.809Y-72.8
X180.809Y-74.28
X180.989Y-78.129
X181.047Y-75.611
X181.428Y-66.3
X181.436Y-85.266
X181.528Y-47.5
X181.628Y-93.5
X181.896Y-71.733
X182.128Y-79.9
X182.228Y-72.981
X182.343Y-47.506
X182.528Y-43.3
X182.546Y-79.207
X183.338Y-43.3
X183.528Y-80.4
X183.828Y-68.1
X184.028Y-51.0
X184.128Y-141.7
X184.171Y-34.2
X184.528Y-109.1
X184.628Y-110.1
X184.761Y-75.588
X184.791Y-70.514
X184.893Y-81.002
X185.08Y-71.552
X185.428Y-95.4
X185.628Y-80.6
X185.928Y-110.4
X186.528Y-94.3
X186.828Y-109.4
X186.849Y-80.057
X187.096Y-77.6
X187.128Y-65.8
X187.128Y-71.2
X187.428Y-92.6
X187.628Y-111.8
X188.228Y-106.3
X188.428Y-111.6
X188.563Y-87.057
X188.616Y-76.807
X188.928Y-116.2
X189.628Y-71.4
X189.828Y-102.1
X189.828Y-121.859
X189.928Y-116.1
X190.115Y-80.019
X190.228Y-89.8
X190.728Y-87.7
X190.728Y-102.0
X191.028Y-116.2
X191.089Y-89.773
X191.138Y-65.811
X191.428Y-119.8
X191.728Y-69.8
X191.728Y-102.0
X191.742Y-68.084
X191.828Y-65.8
X191.928Y-107.7
X192.028Y-116.2
X192.128Y-105.9
X192.328Y-73.9
X192.528Y-102.0
X192.628Y-63.5
X193.028Y-71.3
X193.028Y-87.8
X193.028Y-90.461
X193.028Y-91.5
X194.058Y-102.641
X194.128Y-108.0
X194.328Y-124.0
X194.528Y-50.2
X194.663Y-86.1
X194.767Y-70.239
X194.797Y-79.76
X194.828Y-49.0
X195.028Y-78.7
X195.034Y-77.388
X195.128Y-109.8
X195.565Y-75.222
X195.628Y-117.1
X195.65Y-79.219
X195.772Y-78.381
X195.993Y-86.837
X196.235Y-75.677
X196.293Y-90.837
X196.428Y-49.1
X196.828Y-63.5
X197.028Y-65.7
X197.628Y-68.019
X197.728Y-65.7
X198.062Y-110.865
X198.928Y-57.6
X198.928Y-60.5
X199.528Y-87.1
X199.628Y-115.425
X199.828Y-57.6
X199.828Y-60.5
X200.028Y-71.666
X200.24Y-76.461
X200.427Y-74.501
X200.428Y-78.9
X200.428Y-79.866
X200.728Y-57.6
X200.728Y-60.6
X200.828Y-102.3
X201.187Y-118.1
X201.328Y-91.9
X201.728Y-57.6
X201.728Y-60.5
X202.128Y-91.9
X202.31Y-86.718
X202.528Y-78.2
X202.778Y-117.45
X203.24Y-81.605
X203.428Y-118.1
X203.828Y-76.3
X203.841Y-78.134
X204.746Y-66.824
X205.328Y-66.1
X205.428Y-59.8
X205.728Y-108.9
X205.828Y-64.2
X205.902Y-60.819
X205.928Y-57.9
X206.028Y-111.4
X206.128Y-113.2
X208.728Y-106.6
X209.02Y-88.9
X209.033Y-68.1
X209.328Y-87.4
X209.528Y-81.7
X209.628Y-62.1
X209.803Y-76.225
X209.828Y-70.7
X209.828Y-113.219
X210.128Y-87.4
X210.699Y-101.128
X212.146Y-108.5
T2
X98.428Y-126.6
X98.428Y-129.14
X98.428Y-131.68
X180.728Y-34.2
X180.728Y-36.74
X180.728Y-39.28
X180.728Y-41.82
X185.048Y-35.9
X187.588Y-35.9
X190.128Y-35.9
X209.428Y-118.66
X209.428Y-121.2
X209.428Y-123.74
T3
X163.778Y-142.25
X163.778Y-146.75
X170.278Y-142.25
X170.278Y-146.75
T4
X99.028Y-43.0
X99.028Y-137.0
X209.028Y-43.0
X209.028Y-137.0
T5
X116.928Y-141.65
X124.128Y-141.65
M30
