%TF.GenerationSoftware,KiCad,Pcbnew,8.0.7*%
%TF.CreationDate,2025-01-21T13:47:47+01:00*%
%TF.ProjectId,motordriver,6d6f746f-7264-4726-9976-65722e6b6963,rev?*%
%TF.SameCoordinates,Original*%
%TF.FileFunction,Drillmap*%
%TF.FilePolarity,Positive*%
%FSLAX45Y45*%
G04 Gerber Fmt 4.5, Leading zero omitted, Abs format (unit mm)*
G04 Created by KiCad (PCBNEW 8.0.7) date 2025-01-21 13:47:47*
%MOMM*%
%LPD*%
G01*
G04 APERTURE LIST*
%ADD10C,0.050000*%
%ADD11C,0.200000*%
%ADD12C,0.100000*%
%ADD13C,0.110000*%
%ADD14C,0.320000*%
%ADD15C,0.455000*%
G04 APERTURE END LIST*
D10*
X21502750Y-3100000D02*
X21502750Y-14900000D01*
X9502750Y-2900000D02*
X21302750Y-2900000D01*
X21302750Y-2900000D02*
G75*
G02*
X21502750Y-3100000I0J-200000D01*
G01*
X9302750Y-3100000D02*
G75*
G02*
X9502750Y-2900000I200000J0D01*
G01*
X9502750Y-15100000D02*
G75*
G02*
X9302750Y-14900000I0J200000D01*
G01*
X9302750Y-14900000D02*
X9302750Y-3100000D01*
X21302750Y-15100000D02*
X9502750Y-15100000D01*
X21502750Y-14900000D02*
G75*
G02*
X21302750Y-15100000I-200000J0D01*
G01*
D11*
D12*
X9727750Y-7495000D02*
X9757750Y-7525000D01*
X9757750Y-7495000D02*
X9727750Y-7525000D01*
X9750005Y-6935556D02*
X9780005Y-6965556D01*
X9780005Y-6935556D02*
X9750005Y-6965556D01*
X9755870Y-6854727D02*
X9785870Y-6884727D01*
X9785870Y-6854727D02*
X9755870Y-6884727D01*
X9756328Y-6772991D02*
X9786328Y-6802991D01*
X9786328Y-6772991D02*
X9756328Y-6802991D01*
X9808125Y-7505047D02*
X9838125Y-7535047D01*
X9838125Y-7505047D02*
X9808125Y-7535047D01*
X9867750Y-12005000D02*
X9897750Y-12035000D01*
X9897750Y-12005000D02*
X9867750Y-12035000D01*
X9887750Y-10865000D02*
X9917750Y-10895000D01*
X9917750Y-10865000D02*
X9887750Y-10895000D01*
X9888488Y-7494907D02*
X9918488Y-7524907D01*
X9918488Y-7494907D02*
X9888488Y-7524907D01*
X9937750Y-11865000D02*
X9967750Y-11895000D01*
X9967750Y-11865000D02*
X9937750Y-11895000D01*
X9997750Y-8335000D02*
X10027750Y-8365000D01*
X10027750Y-8335000D02*
X9997750Y-8365000D01*
X10020250Y-9287500D02*
X10050250Y-9317500D01*
X10050250Y-9287500D02*
X10020250Y-9317500D01*
X10047750Y-12685000D02*
X10077750Y-12715000D01*
X10077750Y-12685000D02*
X10047750Y-12715000D01*
X10075250Y-9232500D02*
X10105250Y-9262500D01*
X10105250Y-9232500D02*
X10075250Y-9262500D01*
X10097750Y-10195000D02*
X10127750Y-10225000D01*
X10127750Y-10195000D02*
X10097750Y-10225000D01*
X10126975Y-9184008D02*
X10156975Y-9214008D01*
X10156975Y-9184008D02*
X10126975Y-9214008D01*
X10177750Y-9765000D02*
X10207750Y-9795000D01*
X10207750Y-9765000D02*
X10177750Y-9795000D01*
X10177750Y-9855000D02*
X10207750Y-9885000D01*
X10207750Y-9855000D02*
X10177750Y-9885000D01*
X10207750Y-5535000D02*
X10237750Y-5565000D01*
X10237750Y-5535000D02*
X10207750Y-5565000D01*
X10217750Y-5685000D02*
X10247750Y-5715000D01*
X10247750Y-5685000D02*
X10217750Y-5715000D01*
X10267750Y-9735000D02*
X10297750Y-9765000D01*
X10297750Y-9735000D02*
X10267750Y-9765000D01*
X10317750Y-9785000D02*
X10347750Y-9815000D01*
X10347750Y-9785000D02*
X10317750Y-9815000D01*
X10337750Y-11055000D02*
X10367750Y-11085000D01*
X10367750Y-11055000D02*
X10337750Y-11085000D01*
X10347750Y-9885000D02*
X10377750Y-9915000D01*
X10377750Y-9885000D02*
X10347750Y-9915000D01*
X10377750Y-7415000D02*
X10407750Y-7445000D01*
X10407750Y-7415000D02*
X10377750Y-7445000D01*
X10377750Y-11345000D02*
X10407750Y-11375000D01*
X10407750Y-11345000D02*
X10377750Y-11375000D01*
X10427750Y-12195000D02*
X10457750Y-12225000D01*
X10457750Y-12195000D02*
X10427750Y-12225000D01*
X10447750Y-7465000D02*
X10477750Y-7495000D01*
X10477750Y-7465000D02*
X10447750Y-7495000D01*
X10497750Y-6405000D02*
X10527750Y-6435000D01*
X10527750Y-6405000D02*
X10497750Y-6435000D01*
X10497750Y-8475000D02*
X10527750Y-8505000D01*
X10527750Y-8475000D02*
X10497750Y-8505000D01*
X10555210Y-8778280D02*
X10585210Y-8808280D01*
X10585210Y-8778280D02*
X10555210Y-8808280D01*
X10557750Y-7045000D02*
X10587750Y-7075000D01*
X10587750Y-7045000D02*
X10557750Y-7075000D01*
X10557750Y-7325000D02*
X10587750Y-7355000D01*
X10587750Y-7325000D02*
X10557750Y-7355000D01*
X10577750Y-8475000D02*
X10607750Y-8505000D01*
X10607750Y-8475000D02*
X10577750Y-8505000D01*
X10597750Y-8835000D02*
X10627750Y-8865000D01*
X10627750Y-8835000D02*
X10597750Y-8865000D01*
X10597750Y-12505000D02*
X10627750Y-12535000D01*
X10627750Y-12505000D02*
X10597750Y-12535000D01*
X10600000Y-8967250D02*
X10630000Y-8997250D01*
X10630000Y-8967250D02*
X10600000Y-8997250D01*
X10617750Y-10854500D02*
X10647750Y-10884500D01*
X10647750Y-10854500D02*
X10617750Y-10884500D01*
X10657750Y-8215000D02*
X10687750Y-8245000D01*
X10687750Y-8215000D02*
X10657750Y-8245000D01*
X10717750Y-10055000D02*
X10747750Y-10085000D01*
X10747750Y-10055000D02*
X10717750Y-10085000D01*
X10733000Y-8092500D02*
X10763000Y-8122500D01*
X10763000Y-8092500D02*
X10733000Y-8122500D01*
X10742994Y-10871450D02*
X10772994Y-10901450D01*
X10772994Y-10871450D02*
X10742994Y-10901450D01*
X10746150Y-7345000D02*
X10776150Y-7375000D01*
X10776150Y-7345000D02*
X10746150Y-7375000D01*
X10757750Y-6005000D02*
X10787750Y-6035000D01*
X10787750Y-6005000D02*
X10757750Y-6035000D01*
X10777750Y-6335000D02*
X10807750Y-6365000D01*
X10807750Y-6335000D02*
X10777750Y-6365000D01*
X10804270Y-6504092D02*
X10834270Y-6534092D01*
X10834270Y-6504092D02*
X10804270Y-6534092D01*
X10867750Y-6145000D02*
X10897750Y-6175000D01*
X10897750Y-6145000D02*
X10867750Y-6175000D01*
X10887750Y-8295000D02*
X10917750Y-8325000D01*
X10917750Y-8295000D02*
X10887750Y-8325000D01*
X10905927Y-8647000D02*
X10935927Y-8677000D01*
X10935927Y-8647000D02*
X10905927Y-8677000D01*
X10957750Y-8225000D02*
X10987750Y-8255000D01*
X10987750Y-8225000D02*
X10957750Y-8255000D01*
X10977750Y-7165000D02*
X11007750Y-7195000D01*
X11007750Y-7165000D02*
X10977750Y-7195000D01*
X10987750Y-4555000D02*
X11017750Y-4585000D01*
X11017750Y-4555000D02*
X10987750Y-4585000D01*
X10997750Y-7902250D02*
X11027750Y-7932250D01*
X11027750Y-7902250D02*
X10997750Y-7932250D01*
X11007750Y-4425000D02*
X11037750Y-4455000D01*
X11037750Y-4425000D02*
X11007750Y-4455000D01*
X11017750Y-4315000D02*
X11047750Y-4345000D01*
X11047750Y-4315000D02*
X11017750Y-4345000D01*
X11037750Y-5532000D02*
X11067750Y-5562000D01*
X11067750Y-5532000D02*
X11037750Y-5562000D01*
X11054513Y-10834088D02*
X11084513Y-10864088D01*
X11084513Y-10834088D02*
X11054513Y-10864088D01*
X11057750Y-9775000D02*
X11087750Y-9805000D01*
X11087750Y-9775000D02*
X11057750Y-9805000D01*
X11077700Y-10554950D02*
X11107700Y-10584950D01*
X11107700Y-10554950D02*
X11077700Y-10584950D01*
X11087750Y-8735000D02*
X11117750Y-8765000D01*
X11117750Y-8735000D02*
X11087750Y-8765000D01*
X11101653Y-8128903D02*
X11131653Y-8158903D01*
X11131653Y-8128903D02*
X11101653Y-8158903D01*
X11113826Y-10403138D02*
X11143826Y-10433138D01*
X11143826Y-10403138D02*
X11113826Y-10433138D01*
X11117750Y-10765000D02*
X11147750Y-10795000D01*
X11147750Y-10765000D02*
X11117750Y-10795000D01*
X11127750Y-4545000D02*
X11157750Y-4575000D01*
X11157750Y-4545000D02*
X11127750Y-4575000D01*
X11127750Y-13355000D02*
X11157750Y-13385000D01*
X11157750Y-13355000D02*
X11127750Y-13385000D01*
X11127750Y-13435000D02*
X11157750Y-13465000D01*
X11157750Y-13435000D02*
X11127750Y-13465000D01*
X11127750Y-13515000D02*
X11157750Y-13545000D01*
X11157750Y-13515000D02*
X11127750Y-13545000D01*
X11167750Y-10675000D02*
X11197750Y-10705000D01*
X11197750Y-10675000D02*
X11167750Y-10705000D01*
X11177750Y-11695000D02*
X11207750Y-11725000D01*
X11207750Y-11695000D02*
X11177750Y-11725000D01*
X11193660Y-5626750D02*
X11223660Y-5656750D01*
X11223660Y-5626750D02*
X11193660Y-5656750D01*
X11197750Y-7765000D02*
X11227750Y-7795000D01*
X11227750Y-7765000D02*
X11197750Y-7795000D01*
X11203847Y-6611097D02*
X11233847Y-6641097D01*
X11233847Y-6611097D02*
X11203847Y-6641097D01*
X11206740Y-6778280D02*
X11236740Y-6808280D01*
X11236740Y-6778280D02*
X11206740Y-6808280D01*
X11207750Y-7570500D02*
X11237750Y-7600500D01*
X11237750Y-7570500D02*
X11207750Y-7600500D01*
X11227750Y-13355000D02*
X11257750Y-13385000D01*
X11257750Y-13355000D02*
X11227750Y-13385000D01*
X11227750Y-13435000D02*
X11257750Y-13465000D01*
X11257750Y-13435000D02*
X11227750Y-13465000D01*
X11227750Y-13515000D02*
X11257750Y-13545000D01*
X11257750Y-13515000D02*
X11227750Y-13545000D01*
X11237750Y-5485000D02*
X11267750Y-5515000D01*
X11267750Y-5485000D02*
X11237750Y-5515000D01*
X11241818Y-7094540D02*
X11271818Y-7124540D01*
X11271818Y-7094540D02*
X11241818Y-7124540D01*
X11246055Y-7009869D02*
X11276055Y-7039869D01*
X11276055Y-7009869D02*
X11246055Y-7039869D01*
X11247750Y-6086880D02*
X11277750Y-6116880D01*
X11277750Y-6086880D02*
X11247750Y-6116880D01*
X11251850Y-5022606D02*
X11281850Y-5052606D01*
X11281850Y-5022606D02*
X11251850Y-5052606D01*
X11251850Y-10822910D02*
X11281850Y-10852910D01*
X11281850Y-10822910D02*
X11251850Y-10852910D01*
X11257750Y-7375000D02*
X11287750Y-7405000D01*
X11287750Y-7375000D02*
X11257750Y-7405000D01*
X11267750Y-6929760D02*
X11297750Y-6959760D01*
X11297750Y-6929760D02*
X11267750Y-6959760D01*
X11267750Y-6725000D02*
X11297750Y-6755000D01*
X11297750Y-6725000D02*
X11267750Y-6755000D01*
X11267750Y-11115000D02*
X11297750Y-11145000D01*
X11297750Y-11115000D02*
X11267750Y-11145000D01*
X11268410Y-10257601D02*
X11298410Y-10287601D01*
X11298410Y-10257601D02*
X11268410Y-10287601D01*
X11277750Y-7215000D02*
X11307750Y-7245000D01*
X11307750Y-7215000D02*
X11277750Y-7245000D01*
X11327750Y-10650500D02*
X11357750Y-10680500D01*
X11357750Y-10650500D02*
X11327750Y-10680500D01*
X11327750Y-13355000D02*
X11357750Y-13385000D01*
X11357750Y-13355000D02*
X11327750Y-13385000D01*
X11327750Y-13445000D02*
X11357750Y-13475000D01*
X11357750Y-13445000D02*
X11327750Y-13475000D01*
X11327750Y-13525000D02*
X11357750Y-13555000D01*
X11357750Y-13525000D02*
X11327750Y-13555000D01*
X11337750Y-4315000D02*
X11367750Y-4345000D01*
X11367750Y-4315000D02*
X11337750Y-4345000D01*
X11338884Y-7161862D02*
X11368884Y-7191862D01*
X11368884Y-7161862D02*
X11338884Y-7191862D01*
X11357750Y-6215000D02*
X11387750Y-6245000D01*
X11387750Y-6215000D02*
X11357750Y-6245000D01*
X11369862Y-6787057D02*
X11399862Y-6817057D01*
X11399862Y-6787057D02*
X11369862Y-6817057D01*
X11437750Y-13355000D02*
X11467750Y-13385000D01*
X11467750Y-13355000D02*
X11437750Y-13385000D01*
X11437750Y-13445000D02*
X11467750Y-13475000D01*
X11467750Y-13445000D02*
X11437750Y-13475000D01*
X11437750Y-13525000D02*
X11467750Y-13555000D01*
X11467750Y-13525000D02*
X11437750Y-13555000D01*
X11447750Y-8535000D02*
X11477750Y-8565000D01*
X11477750Y-8535000D02*
X11447750Y-8565000D01*
X11457750Y-7495000D02*
X11487750Y-7525000D01*
X11487750Y-7495000D02*
X11457750Y-7525000D01*
X11459630Y-7565850D02*
X11489630Y-7595850D01*
X11489630Y-7565850D02*
X11459630Y-7595850D01*
X11467750Y-9635000D02*
X11497750Y-9665000D01*
X11497750Y-9635000D02*
X11467750Y-9665000D01*
X11477750Y-10015000D02*
X11507750Y-10045000D01*
X11507750Y-10015000D02*
X11477750Y-10045000D01*
X11487750Y-9805000D02*
X11517750Y-9835000D01*
X11517750Y-9805000D02*
X11487750Y-9835000D01*
X11516660Y-6215000D02*
X11546660Y-6245000D01*
X11546660Y-6215000D02*
X11516660Y-6245000D01*
X11537750Y-13355000D02*
X11567750Y-13385000D01*
X11567750Y-13355000D02*
X11537750Y-13385000D01*
X11537750Y-13445000D02*
X11567750Y-13475000D01*
X11567750Y-13445000D02*
X11537750Y-13475000D01*
X11537750Y-13525000D02*
X11567750Y-13555000D01*
X11567750Y-13525000D02*
X11537750Y-13555000D01*
X11571744Y-10753600D02*
X11601744Y-10783600D01*
X11601744Y-10753600D02*
X11571744Y-10783600D01*
X11605701Y-10500490D02*
X11635701Y-10530490D01*
X11635701Y-10500490D02*
X11605701Y-10530490D01*
X11614303Y-8133270D02*
X11644303Y-8163270D01*
X11644303Y-8133270D02*
X11614303Y-8163270D01*
X11632750Y-8346000D02*
X11662750Y-8376000D01*
X11662750Y-8346000D02*
X11632750Y-8376000D01*
X11637750Y-13355000D02*
X11667750Y-13385000D01*
X11667750Y-13355000D02*
X11637750Y-13385000D01*
X11637750Y-13445000D02*
X11667750Y-13475000D01*
X11667750Y-13445000D02*
X11637750Y-13475000D01*
X11637750Y-13525000D02*
X11667750Y-13555000D01*
X11667750Y-13525000D02*
X11637750Y-13555000D01*
X11657750Y-4635000D02*
X11687750Y-4665000D01*
X11687750Y-4635000D02*
X11657750Y-4665000D01*
X11667750Y-10576390D02*
X11697750Y-10606390D01*
X11697750Y-10576390D02*
X11667750Y-10606390D01*
X11677750Y-6195000D02*
X11707750Y-6225000D01*
X11707750Y-6195000D02*
X11677750Y-6225000D01*
X11687750Y-7695000D02*
X11717750Y-7725000D01*
X11717750Y-7695000D02*
X11687750Y-7725000D01*
X11717750Y-6625000D02*
X11747750Y-6655000D01*
X11747750Y-6625000D02*
X11717750Y-6655000D01*
X11717750Y-6965000D02*
X11747750Y-6995000D01*
X11747750Y-6965000D02*
X11717750Y-6995000D01*
X11717750Y-7075000D02*
X11747750Y-7105000D01*
X11747750Y-7075000D02*
X11717750Y-7105000D01*
X11717750Y-7225000D02*
X11747750Y-7255000D01*
X11747750Y-7225000D02*
X11717750Y-7255000D01*
X11727750Y-9795000D02*
X11757750Y-9825000D01*
X11757750Y-9795000D02*
X11727750Y-9825000D01*
X11767750Y-8485000D02*
X11797750Y-8515000D01*
X11797750Y-8485000D02*
X11767750Y-8515000D01*
X11767750Y-11165000D02*
X11797750Y-11195000D01*
X11797750Y-11165000D02*
X11767750Y-11195000D01*
X11771708Y-10588074D02*
X11801708Y-10618074D01*
X11801708Y-10588074D02*
X11771708Y-10618074D01*
X11773040Y-10398041D02*
X11803040Y-10428041D01*
X11803040Y-10398041D02*
X11773040Y-10428041D01*
X11777750Y-11235000D02*
X11807750Y-11265000D01*
X11807750Y-11235000D02*
X11777750Y-11265000D01*
X11797750Y-5703120D02*
X11827750Y-5733120D01*
X11827750Y-5703120D02*
X11797750Y-5733120D01*
X11797750Y-8405000D02*
X11827750Y-8435000D01*
X11827750Y-8405000D02*
X11797750Y-8435000D01*
X11803309Y-9620559D02*
X11833309Y-9650559D01*
X11833309Y-9620559D02*
X11803309Y-9650559D01*
X11807750Y-5825000D02*
X11837750Y-5855000D01*
X11837750Y-5825000D02*
X11807750Y-5855000D01*
X11807750Y-8305000D02*
X11837750Y-8335000D01*
X11837750Y-8305000D02*
X11807750Y-8335000D01*
X11817750Y-11325000D02*
X11847750Y-11355000D01*
X11847750Y-11325000D02*
X11817750Y-11355000D01*
X11817750Y-11395000D02*
X11847750Y-11425000D01*
X11847750Y-11395000D02*
X11817750Y-11425000D01*
X11827750Y-9065000D02*
X11857750Y-9095000D01*
X11857750Y-9065000D02*
X11827750Y-9095000D01*
X11857750Y-7645000D02*
X11887750Y-7675000D01*
X11887750Y-7645000D02*
X11857750Y-7675000D01*
X11897250Y-8335000D02*
X11927250Y-8365000D01*
X11927250Y-8335000D02*
X11897250Y-8365000D01*
X11897250Y-8447650D02*
X11927250Y-8477650D01*
X11927250Y-8447650D02*
X11897250Y-8477650D01*
X11897750Y-6105000D02*
X11927750Y-6135000D01*
X11927750Y-6105000D02*
X11897750Y-6135000D01*
X12063847Y-6671097D02*
X12093847Y-6701097D01*
X12093847Y-6671097D02*
X12063847Y-6701097D01*
X12077750Y-7545000D02*
X12107750Y-7575000D01*
X12107750Y-7545000D02*
X12077750Y-7575000D01*
X12147750Y-6245000D02*
X12177750Y-6275000D01*
X12177750Y-6245000D02*
X12147750Y-6275000D01*
X12147750Y-7645000D02*
X12177750Y-7675000D01*
X12177750Y-7645000D02*
X12147750Y-7675000D01*
X12157750Y-10605000D02*
X12187750Y-10635000D01*
X12187750Y-10605000D02*
X12157750Y-10635000D01*
X12177750Y-6975000D02*
X12207750Y-7005000D01*
X12207750Y-6975000D02*
X12177750Y-7005000D01*
X12187750Y-8085000D02*
X12217750Y-8115000D01*
X12217750Y-8085000D02*
X12187750Y-8115000D01*
X12247750Y-8999100D02*
X12277750Y-9029100D01*
X12277750Y-8999100D02*
X12247750Y-9029100D01*
X12289201Y-10815500D02*
X12319201Y-10845500D01*
X12319201Y-10815500D02*
X12289201Y-10845500D01*
X12325870Y-7882916D02*
X12355870Y-7912916D01*
X12355870Y-7882916D02*
X12325870Y-7912916D01*
X12327750Y-7705000D02*
X12357750Y-7735000D01*
X12357750Y-7705000D02*
X12327750Y-7735000D01*
X12337750Y-7595000D02*
X12367750Y-7625000D01*
X12367750Y-7595000D02*
X12337750Y-7625000D01*
X12357750Y-6485000D02*
X12387750Y-6515000D01*
X12387750Y-6485000D02*
X12357750Y-6515000D01*
X12382090Y-10675000D02*
X12412090Y-10705000D01*
X12412090Y-10675000D02*
X12382090Y-10705000D01*
X12417750Y-6295000D02*
X12447750Y-6325000D01*
X12447750Y-6295000D02*
X12417750Y-6325000D01*
X12417750Y-10785000D02*
X12447750Y-10815000D01*
X12447750Y-10785000D02*
X12417750Y-10815000D01*
X12447750Y-7715000D02*
X12477750Y-7745000D01*
X12477750Y-7715000D02*
X12447750Y-7745000D01*
X12494081Y-4051331D02*
X12524081Y-4081331D01*
X12524081Y-4051331D02*
X12494081Y-4081331D01*
X12507750Y-5585000D02*
X12537750Y-5615000D01*
X12537750Y-5585000D02*
X12507750Y-5615000D01*
X12527750Y-3706880D02*
X12557750Y-3736880D01*
X12557750Y-3706880D02*
X12527750Y-3736880D01*
X12541455Y-6388705D02*
X12571455Y-6418705D01*
X12571455Y-6388705D02*
X12541455Y-6418705D01*
X12546653Y-5706097D02*
X12576653Y-5736097D01*
X12576653Y-5706097D02*
X12546653Y-5736097D01*
X12577750Y-6565000D02*
X12607750Y-6595000D01*
X12607750Y-6565000D02*
X12577750Y-6595000D01*
X12589857Y-6767107D02*
X12619857Y-6797107D01*
X12619857Y-6767107D02*
X12589857Y-6797107D01*
X12597750Y-4925000D02*
X12627750Y-4955000D01*
X12627750Y-4925000D02*
X12597750Y-4955000D01*
X12627750Y-3706880D02*
X12657750Y-3736880D01*
X12657750Y-3706880D02*
X12627750Y-3736880D01*
X12638250Y-8445000D02*
X12668250Y-8475000D01*
X12668250Y-8445000D02*
X12638250Y-8475000D01*
X12638250Y-8505000D02*
X12668250Y-8535000D01*
X12668250Y-8505000D02*
X12638250Y-8535000D01*
X12640873Y-7415686D02*
X12670873Y-7445686D01*
X12670873Y-7415686D02*
X12640873Y-7445686D01*
X12640873Y-7497880D02*
X12670873Y-7527880D01*
X12670873Y-7497880D02*
X12640873Y-7527880D01*
X12647750Y-10795000D02*
X12677750Y-10825000D01*
X12677750Y-10795000D02*
X12647750Y-10825000D01*
X12669750Y-10055000D02*
X12699750Y-10085000D01*
X12699750Y-10055000D02*
X12669750Y-10085000D01*
X12682870Y-7265620D02*
X12712870Y-7295620D01*
X12712870Y-7265620D02*
X12682870Y-7295620D01*
X12687750Y-4925000D02*
X12717750Y-4955000D01*
X12717750Y-4925000D02*
X12687750Y-4955000D01*
X12707750Y-7556000D02*
X12737750Y-7586000D01*
X12737750Y-7556000D02*
X12707750Y-7586000D01*
X12717750Y-7345000D02*
X12747750Y-7375000D01*
X12747750Y-7345000D02*
X12717750Y-7375000D01*
X12737750Y-4075000D02*
X12767750Y-4105000D01*
X12767750Y-4075000D02*
X12737750Y-4105000D01*
X12737750Y-6705000D02*
X12767750Y-6735000D01*
X12767750Y-6705000D02*
X12737750Y-6735000D01*
X12817750Y-9303120D02*
X12847750Y-9333120D01*
X12847750Y-9303120D02*
X12817750Y-9333120D01*
X12865479Y-6149500D02*
X12895479Y-6179500D01*
X12895479Y-6149500D02*
X12865479Y-6179500D01*
X12867750Y-10585000D02*
X12897750Y-10615000D01*
X12897750Y-10585000D02*
X12867750Y-10615000D01*
X12917750Y-7345000D02*
X12947750Y-7375000D01*
X12947750Y-7345000D02*
X12917750Y-7375000D01*
X12922831Y-5789919D02*
X12952831Y-5819919D01*
X12952831Y-5789919D02*
X12922831Y-5819919D01*
X12997750Y-4925000D02*
X13027750Y-4955000D01*
X13027750Y-4925000D02*
X12997750Y-4955000D01*
X13037750Y-6255000D02*
X13067750Y-6285000D01*
X13067750Y-6255000D02*
X13037750Y-6285000D01*
X13047750Y-4047000D02*
X13077750Y-4077000D01*
X13077750Y-4047000D02*
X13047750Y-4077000D01*
X13077750Y-4925000D02*
X13107750Y-4955000D01*
X13107750Y-4925000D02*
X13077750Y-4955000D01*
X13077750Y-5405000D02*
X13107750Y-5435000D01*
X13107750Y-5405000D02*
X13077750Y-5435000D01*
X13172250Y-10935000D02*
X13202250Y-10965000D01*
X13202250Y-10935000D02*
X13172250Y-10965000D01*
X13207750Y-3706880D02*
X13237750Y-3736880D01*
X13237750Y-3706880D02*
X13207750Y-3736880D01*
X13217750Y-6505000D02*
X13247750Y-6535000D01*
X13247750Y-6505000D02*
X13217750Y-6535000D01*
X13227750Y-3375000D02*
X13257750Y-3405000D01*
X13257750Y-3375000D02*
X13227750Y-3405000D01*
X13237750Y-10655000D02*
X13267750Y-10685000D01*
X13267750Y-10655000D02*
X13237750Y-10685000D01*
X13287750Y-3706880D02*
X13317750Y-3736880D01*
X13317750Y-3706880D02*
X13287750Y-3736880D01*
X13295837Y-7463496D02*
X13325837Y-7493496D01*
X13325837Y-7463496D02*
X13295837Y-7493496D01*
X13297750Y-7215000D02*
X13327750Y-7245000D01*
X13327750Y-7215000D02*
X13297750Y-7245000D01*
X13298347Y-7296597D02*
X13328347Y-7326597D01*
X13328347Y-7296597D02*
X13298347Y-7326597D01*
X13298353Y-7378785D02*
X13328353Y-7408785D01*
X13328353Y-7378785D02*
X13298353Y-7408785D01*
X13347750Y-6725000D02*
X13377750Y-6755000D01*
X13377750Y-6725000D02*
X13347750Y-6755000D01*
X13477750Y-7945000D02*
X13507750Y-7975000D01*
X13507750Y-7945000D02*
X13477750Y-7975000D01*
X13537750Y-5145000D02*
X13567750Y-5175000D01*
X13567750Y-5145000D02*
X13537750Y-5175000D01*
X13577750Y-3613400D02*
X13607750Y-3643400D01*
X13607750Y-3613400D02*
X13577750Y-3643400D01*
X13589630Y-5295000D02*
X13619630Y-5325000D01*
X13619630Y-5295000D02*
X13589630Y-5325000D01*
X13637750Y-9175000D02*
X13667750Y-9205000D01*
X13667750Y-9175000D02*
X13637750Y-9205000D01*
X13637750Y-9275000D02*
X13667750Y-9305000D01*
X13667750Y-9275000D02*
X13637750Y-9305000D01*
X13637750Y-9365000D02*
X13667750Y-9395000D01*
X13667750Y-9365000D02*
X13637750Y-9395000D01*
X13747750Y-8160499D02*
X13777750Y-8190499D01*
X13777750Y-8160499D02*
X13747750Y-8190499D01*
X13749038Y-8079509D02*
X13779038Y-8109509D01*
X13779038Y-8079509D02*
X13749038Y-8109509D01*
X13749660Y-8241500D02*
X13779660Y-8271500D01*
X13779660Y-8241500D02*
X13749660Y-8271500D01*
X13767750Y-13175000D02*
X13797750Y-13205000D01*
X13797750Y-13175000D02*
X13767750Y-13205000D01*
X13787750Y-10805000D02*
X13817750Y-10835000D01*
X13817750Y-10805000D02*
X13787750Y-10835000D01*
X13857750Y-4075000D02*
X13887750Y-4105000D01*
X13887750Y-4075000D02*
X13857750Y-4105000D01*
X13918250Y-13175000D02*
X13948250Y-13205000D01*
X13948250Y-13175000D02*
X13918250Y-13205000D01*
X13919630Y-8995000D02*
X13949630Y-9025000D01*
X13949630Y-8995000D02*
X13919630Y-9025000D01*
X13920088Y-9095167D02*
X13950088Y-9125167D01*
X13950088Y-9095167D02*
X13920088Y-9125167D01*
X13927489Y-9195000D02*
X13957489Y-9225000D01*
X13957489Y-9195000D02*
X13927489Y-9225000D01*
X13927646Y-6994120D02*
X13957646Y-7024120D01*
X13957646Y-6994120D02*
X13927646Y-7024120D01*
X13927750Y-6913120D02*
X13957750Y-6943120D01*
X13957750Y-6913120D02*
X13927750Y-6943120D01*
X13927750Y-9285000D02*
X13957750Y-9315000D01*
X13957750Y-9285000D02*
X13927750Y-9315000D01*
X13927750Y-12135000D02*
X13957750Y-12165000D01*
X13957750Y-12135000D02*
X13927750Y-12165000D01*
X13927852Y-7075120D02*
X13957852Y-7105120D01*
X13957852Y-7075120D02*
X13927852Y-7105120D01*
X13929335Y-7213120D02*
X13959335Y-7243120D01*
X13959335Y-7213120D02*
X13929335Y-7243120D01*
X13933990Y-7293986D02*
X13963990Y-7323986D01*
X13963990Y-7293986D02*
X13933990Y-7323986D01*
X13938273Y-7374873D02*
X13968273Y-7404873D01*
X13968273Y-7374873D02*
X13938273Y-7404873D01*
X13971150Y-9504500D02*
X14001150Y-9534500D01*
X14001150Y-9504500D02*
X13971150Y-9534500D01*
X14037750Y-13745000D02*
X14067750Y-13775000D01*
X14067750Y-13745000D02*
X14037750Y-13775000D01*
X14057750Y-13855000D02*
X14087750Y-13885000D01*
X14087750Y-13855000D02*
X14057750Y-13885000D01*
X14077750Y-13395000D02*
X14107750Y-13425000D01*
X14107750Y-13395000D02*
X14077750Y-13425000D01*
X14117750Y-3995000D02*
X14147750Y-4025000D01*
X14147750Y-3995000D02*
X14117750Y-4025000D01*
X14117750Y-11395000D02*
X14147750Y-11425000D01*
X14147750Y-11395000D02*
X14117750Y-11425000D01*
X14167750Y-11695000D02*
X14197750Y-11725000D01*
X14197750Y-11695000D02*
X14167750Y-11725000D01*
X14177750Y-13785000D02*
X14207750Y-13815000D01*
X14207750Y-13785000D02*
X14177750Y-13815000D01*
X14207750Y-4007000D02*
X14237750Y-4037000D01*
X14237750Y-4007000D02*
X14207750Y-4037000D01*
X14247750Y-13875000D02*
X14277750Y-13905000D01*
X14277750Y-13875000D02*
X14247750Y-13905000D01*
X14257750Y-5145000D02*
X14287750Y-5175000D01*
X14287750Y-5145000D02*
X14257750Y-5175000D01*
X14293650Y-4425000D02*
X14323650Y-4455000D01*
X14323650Y-4425000D02*
X14293650Y-4455000D01*
X14293650Y-4527878D02*
X14323650Y-4557878D01*
X14323650Y-4527878D02*
X14293650Y-4557878D01*
X14294150Y-7946405D02*
X14324150Y-7976405D01*
X14324150Y-7946405D02*
X14294150Y-7976405D01*
X14307750Y-11105000D02*
X14337750Y-11135000D01*
X14337750Y-11105000D02*
X14307750Y-11135000D01*
X14316778Y-3653120D02*
X14346778Y-3683120D01*
X14346778Y-3653120D02*
X14316778Y-3683120D01*
X14329000Y-11346250D02*
X14359000Y-11376250D01*
X14359000Y-11346250D02*
X14329000Y-11376250D01*
X14335750Y-4300706D02*
X14365750Y-4330706D01*
X14365750Y-4300706D02*
X14335750Y-4330706D01*
X14337750Y-12215000D02*
X14367750Y-12245000D01*
X14367750Y-12215000D02*
X14337750Y-12245000D01*
X14367750Y-4095000D02*
X14397750Y-4125000D01*
X14397750Y-4095000D02*
X14367750Y-4125000D01*
X14367750Y-4165000D02*
X14397750Y-4195000D01*
X14397750Y-4165000D02*
X14367750Y-4195000D01*
X14377750Y-5305000D02*
X14407750Y-5335000D01*
X14407750Y-5305000D02*
X14377750Y-5335000D01*
X14422670Y-8535000D02*
X14452670Y-8565000D01*
X14452670Y-8535000D02*
X14422670Y-8565000D01*
X14427750Y-10821840D02*
X14457750Y-10851840D01*
X14457750Y-10821840D02*
X14427750Y-10851840D01*
X14447750Y-5615000D02*
X14477750Y-5645000D01*
X14477750Y-5615000D02*
X14447750Y-5645000D01*
X14457750Y-5305000D02*
X14487750Y-5335000D01*
X14487750Y-5305000D02*
X14457750Y-5335000D01*
X14477750Y-8845000D02*
X14507750Y-8875000D01*
X14507750Y-8845000D02*
X14477750Y-8875000D01*
X14502012Y-5588442D02*
X14532012Y-5618442D01*
X14532012Y-5588442D02*
X14502012Y-5618442D01*
X14527750Y-11705000D02*
X14557750Y-11735000D01*
X14557750Y-11705000D02*
X14527750Y-11735000D01*
X14537750Y-8645000D02*
X14567750Y-8675000D01*
X14567750Y-8645000D02*
X14537750Y-8675000D01*
X14537750Y-9525000D02*
X14567750Y-9555000D01*
X14567750Y-9525000D02*
X14537750Y-9555000D01*
X14547750Y-4964340D02*
X14577750Y-4994340D01*
X14577750Y-4964340D02*
X14547750Y-4994340D01*
X14567750Y-5615000D02*
X14597750Y-5645000D01*
X14597750Y-5615000D02*
X14567750Y-5645000D01*
X14587750Y-11002000D02*
X14617750Y-11032000D01*
X14617750Y-11002000D02*
X14587750Y-11032000D01*
X14596653Y-8709960D02*
X14626653Y-8739960D01*
X14626653Y-8709960D02*
X14596653Y-8739960D01*
X14609551Y-8105393D02*
X14639551Y-8135393D01*
X14639551Y-8105393D02*
X14609551Y-8135393D01*
X14627750Y-10586000D02*
X14657750Y-10616000D01*
X14657750Y-10586000D02*
X14627750Y-10616000D01*
X14644148Y-3987134D02*
X14674148Y-4017134D01*
X14674148Y-3987134D02*
X14644148Y-4017134D01*
X14660085Y-9331879D02*
X14690085Y-9361879D01*
X14690085Y-9331879D02*
X14660085Y-9361879D01*
X14678250Y-5465000D02*
X14708250Y-5495000D01*
X14708250Y-5465000D02*
X14678250Y-5495000D01*
X14679250Y-5945000D02*
X14709250Y-5975000D01*
X14709250Y-5945000D02*
X14679250Y-5975000D01*
X14679250Y-6085000D02*
X14709250Y-6115000D01*
X14709250Y-6085000D02*
X14679250Y-6115000D01*
X14687750Y-8235000D02*
X14717750Y-8265000D01*
X14717750Y-8235000D02*
X14687750Y-8265000D01*
X14689250Y-7301419D02*
X14719250Y-7331419D01*
X14719250Y-7301419D02*
X14689250Y-7331419D01*
X14695250Y-11380000D02*
X14725250Y-11410000D01*
X14725250Y-11380000D02*
X14695250Y-11410000D01*
X14699830Y-8987120D02*
X14729830Y-9017120D01*
X14729830Y-8987120D02*
X14699830Y-9017120D01*
X14726653Y-4536097D02*
X14756653Y-4566097D01*
X14756653Y-4536097D02*
X14726653Y-4566097D01*
X14727750Y-13795000D02*
X14757750Y-13825000D01*
X14757750Y-13795000D02*
X14727750Y-13825000D01*
X14737750Y-7756880D02*
X14767750Y-7786880D01*
X14767750Y-7756880D02*
X14737750Y-7786880D01*
X14747370Y-7245000D02*
X14777370Y-7275000D01*
X14777370Y-7245000D02*
X14747370Y-7275000D01*
X14747750Y-4985000D02*
X14777750Y-5015000D01*
X14777750Y-4985000D02*
X14747750Y-5015000D01*
X14756305Y-8191858D02*
X14786305Y-8221858D01*
X14786305Y-8191858D02*
X14756305Y-8221858D01*
X14785870Y-3993996D02*
X14815870Y-4023996D01*
X14815870Y-3993996D02*
X14785870Y-4023996D01*
X14792165Y-7816880D02*
X14822165Y-7846880D01*
X14822165Y-7816880D02*
X14792165Y-7846880D01*
X14824004Y-7295000D02*
X14854004Y-7325000D01*
X14854004Y-7295000D02*
X14824004Y-7325000D01*
X14828847Y-8116097D02*
X14858847Y-8146097D01*
X14858847Y-8116097D02*
X14828847Y-8146097D01*
X14837750Y-10505000D02*
X14867750Y-10535000D01*
X14867750Y-10505000D02*
X14837750Y-10535000D01*
X14845483Y-4366880D02*
X14875483Y-4396880D01*
X14875483Y-4366880D02*
X14845483Y-4396880D01*
X14846580Y-7876880D02*
X14876580Y-7906880D01*
X14876580Y-7876880D02*
X14846580Y-7906880D01*
X14857750Y-5835000D02*
X14887750Y-5865000D01*
X14887750Y-5835000D02*
X14857750Y-5865000D01*
X14867750Y-5565000D02*
X14897750Y-5595000D01*
X14897750Y-5565000D02*
X14867750Y-5595000D01*
X14877750Y-4175000D02*
X14907750Y-4205000D01*
X14907750Y-4175000D02*
X14877750Y-4205000D01*
X14885794Y-4449880D02*
X14915794Y-4479880D01*
X14915794Y-4449880D02*
X14885794Y-4479880D01*
X14887750Y-7245000D02*
X14917750Y-7275000D01*
X14917750Y-7245000D02*
X14887750Y-7275000D01*
X14897750Y-4305000D02*
X14927750Y-4335000D01*
X14927750Y-4305000D02*
X14897750Y-4335000D01*
X14907750Y-3735000D02*
X14937750Y-3765000D01*
X14937750Y-3735000D02*
X14907750Y-3765000D01*
X14907750Y-12705000D02*
X14937750Y-12735000D01*
X14937750Y-12705000D02*
X14907750Y-12735000D01*
X14927750Y-14115000D02*
X14957750Y-14145000D01*
X14957750Y-14115000D02*
X14927750Y-14145000D01*
X14949630Y-7297267D02*
X14979630Y-7327267D01*
X14979630Y-7297267D02*
X14949630Y-7327267D01*
X14965393Y-8476880D02*
X14995393Y-8506880D01*
X14995393Y-8476880D02*
X14965393Y-8506880D01*
X14967750Y-11545000D02*
X14997750Y-11575000D01*
X14997750Y-11545000D02*
X14967750Y-11575000D01*
X14977750Y-12145000D02*
X15007750Y-12175000D01*
X15007750Y-12145000D02*
X14977750Y-12175000D01*
X15007750Y-7365000D02*
X15037750Y-7395000D01*
X15037750Y-7365000D02*
X15007750Y-7395000D01*
X15017750Y-7536880D02*
X15047750Y-7566880D01*
X15047750Y-7536880D02*
X15017750Y-7566880D01*
X15036750Y-5305979D02*
X15066750Y-5335979D01*
X15066750Y-5305979D02*
X15036750Y-5335979D01*
X15037750Y-6065000D02*
X15067750Y-6095000D01*
X15067750Y-6065000D02*
X15037750Y-6095000D01*
X15072799Y-7315172D02*
X15102799Y-7345172D01*
X15102799Y-7315172D02*
X15072799Y-7345172D01*
X15087750Y-8105000D02*
X15117750Y-8135000D01*
X15117750Y-8105000D02*
X15087750Y-8135000D01*
X15097750Y-7476880D02*
X15127750Y-7506880D01*
X15127750Y-7476880D02*
X15097750Y-7506880D01*
X15097750Y-8455000D02*
X15127750Y-8485000D01*
X15127750Y-8455000D02*
X15097750Y-8485000D01*
X15099120Y-11732148D02*
X15129120Y-11762148D01*
X15129120Y-11732148D02*
X15099120Y-11762148D01*
X15099889Y-5356719D02*
X15129889Y-5386719D01*
X15129889Y-5356719D02*
X15099889Y-5386719D01*
X15108250Y-7242342D02*
X15138250Y-7272342D01*
X15138250Y-7242342D02*
X15108250Y-7272342D01*
X15132750Y-10940000D02*
X15162750Y-10970000D01*
X15162750Y-10940000D02*
X15132750Y-10970000D01*
X15157750Y-8954340D02*
X15187750Y-8984340D01*
X15187750Y-8954340D02*
X15157750Y-8984340D01*
X15167750Y-13885000D02*
X15197750Y-13915000D01*
X15197750Y-13885000D02*
X15167750Y-13915000D01*
X15167750Y-14835000D02*
X15197750Y-14865000D01*
X15197750Y-14835000D02*
X15167750Y-14865000D01*
X15207750Y-11015000D02*
X15237750Y-11045000D01*
X15237750Y-11015000D02*
X15207750Y-11045000D01*
X15227750Y-10065000D02*
X15257750Y-10095000D01*
X15257750Y-10065000D02*
X15227750Y-10095000D01*
X15227750Y-13025000D02*
X15257750Y-13055000D01*
X15257750Y-13025000D02*
X15227750Y-13055000D01*
X15227750Y-13765000D02*
X15257750Y-13795000D01*
X15257750Y-13765000D02*
X15227750Y-13795000D01*
X15236130Y-5195000D02*
X15266130Y-5225000D01*
X15266130Y-5195000D02*
X15236130Y-5225000D01*
X15236130Y-5308000D02*
X15266130Y-5338000D01*
X15266130Y-5308000D02*
X15236130Y-5338000D01*
X15237750Y-13265000D02*
X15267750Y-13295000D01*
X15267750Y-13265000D02*
X15237750Y-13295000D01*
X15246930Y-9665000D02*
X15276930Y-9695000D01*
X15276930Y-9665000D02*
X15246930Y-9695000D01*
X15247750Y-10195000D02*
X15277750Y-10225000D01*
X15277750Y-10195000D02*
X15247750Y-10225000D01*
X15247750Y-14915660D02*
X15277750Y-14945660D01*
X15277750Y-14915660D02*
X15247750Y-14945660D01*
X15257750Y-13915000D02*
X15287750Y-13945000D01*
X15287750Y-13915000D02*
X15257750Y-13945000D01*
X15264857Y-8272107D02*
X15294857Y-8302107D01*
X15294857Y-8272107D02*
X15264857Y-8302107D01*
X15265870Y-4114792D02*
X15295870Y-4144792D01*
X15295870Y-4114792D02*
X15265870Y-4144792D01*
X15277750Y-4715000D02*
X15307750Y-4745000D01*
X15307750Y-4715000D02*
X15277750Y-4745000D01*
X15277750Y-12925000D02*
X15307750Y-12955000D01*
X15307750Y-12925000D02*
X15277750Y-12955000D01*
X15317750Y-9885000D02*
X15347750Y-9915000D01*
X15347750Y-9885000D02*
X15317750Y-9915000D01*
X15317750Y-10035000D02*
X15347750Y-10065000D01*
X15347750Y-10035000D02*
X15317750Y-10065000D01*
X15330255Y-9345660D02*
X15360255Y-9375660D01*
X15360255Y-9345660D02*
X15330255Y-9375660D01*
X15335323Y-9426501D02*
X15365323Y-9456501D01*
X15365323Y-9426501D02*
X15335323Y-9456501D01*
X15337750Y-14715000D02*
X15367750Y-14745000D01*
X15367750Y-14715000D02*
X15337750Y-14745000D01*
X15347180Y-4121857D02*
X15377180Y-4151857D01*
X15377180Y-4121857D02*
X15347180Y-4151857D01*
X15347750Y-12995000D02*
X15377750Y-13025000D01*
X15377750Y-12995000D02*
X15347750Y-13025000D01*
X15357750Y-4525000D02*
X15387750Y-4555000D01*
X15387750Y-4525000D02*
X15357750Y-4555000D01*
X15357750Y-5515000D02*
X15387750Y-5545000D01*
X15387750Y-5515000D02*
X15357750Y-5545000D01*
X15367750Y-11895000D02*
X15397750Y-11925000D01*
X15397750Y-11895000D02*
X15367750Y-11925000D01*
X15368250Y-8969841D02*
X15398250Y-8999841D01*
X15398250Y-8969841D02*
X15368250Y-8999841D01*
X15369250Y-9822480D02*
X15399250Y-9852480D01*
X15399250Y-9822480D02*
X15369250Y-9852480D01*
X15377750Y-8505000D02*
X15407750Y-8535000D01*
X15407750Y-8505000D02*
X15377750Y-8535000D01*
X15387750Y-8745000D02*
X15417750Y-8775000D01*
X15417750Y-8745000D02*
X15387750Y-8775000D01*
X15409150Y-4588351D02*
X15439150Y-4618351D01*
X15439150Y-4588351D02*
X15409150Y-4618351D01*
X15423552Y-3784500D02*
X15453552Y-3814500D01*
X15453552Y-3784500D02*
X15423552Y-3814500D01*
X15437750Y-13205000D02*
X15467750Y-13235000D01*
X15467750Y-13205000D02*
X15437750Y-13235000D01*
X15446590Y-10145360D02*
X15476590Y-10175360D01*
X15476590Y-10145360D02*
X15446590Y-10175360D01*
X15447750Y-8595000D02*
X15477750Y-8625000D01*
X15477750Y-8595000D02*
X15447750Y-8625000D01*
X15447750Y-12265000D02*
X15477750Y-12295000D01*
X15477750Y-12265000D02*
X15447750Y-12295000D01*
X15507750Y-3313120D02*
X15537750Y-3343120D01*
X15537750Y-3313120D02*
X15507750Y-3343120D01*
X15522250Y-11175000D02*
X15552250Y-11205000D01*
X15552250Y-11175000D02*
X15522250Y-11205000D01*
X15527750Y-8675000D02*
X15557750Y-8705000D01*
X15557750Y-8675000D02*
X15527750Y-8705000D01*
X15542750Y-13647300D02*
X15572750Y-13677300D01*
X15572750Y-13647300D02*
X15542750Y-13677300D01*
X15547750Y-5665000D02*
X15577750Y-5695000D01*
X15577750Y-5665000D02*
X15547750Y-5695000D01*
X15587750Y-8365000D02*
X15617750Y-8395000D01*
X15617750Y-8365000D02*
X15587750Y-8395000D01*
X15587750Y-9745000D02*
X15617750Y-9775000D01*
X15617750Y-9745000D02*
X15587750Y-9775000D01*
X15587750Y-9835000D02*
X15617750Y-9865000D01*
X15617750Y-9835000D02*
X15587750Y-9865000D01*
X15607750Y-3315000D02*
X15637750Y-3345000D01*
X15637750Y-3315000D02*
X15607750Y-3345000D01*
X15627750Y-5665000D02*
X15657750Y-5695000D01*
X15657750Y-5665000D02*
X15627750Y-5695000D01*
X15627750Y-8818000D02*
X15657750Y-8848000D01*
X15657750Y-8818000D02*
X15627750Y-8848000D01*
X15627750Y-12565000D02*
X15657750Y-12595000D01*
X15657750Y-12565000D02*
X15627750Y-12595000D01*
X15644154Y-8423135D02*
X15674154Y-8453135D01*
X15674154Y-8423135D02*
X15644154Y-8453135D01*
X15677750Y-13305000D02*
X15707750Y-13335000D01*
X15707750Y-13305000D02*
X15677750Y-13335000D01*
X15687750Y-5635000D02*
X15717750Y-5665000D01*
X15717750Y-5635000D02*
X15687750Y-5665000D01*
X15697081Y-11074331D02*
X15727081Y-11104331D01*
X15727081Y-11074331D02*
X15697081Y-11104331D01*
X15697750Y-13965000D02*
X15727750Y-13995000D01*
X15727750Y-13965000D02*
X15697750Y-13995000D01*
X15736350Y-4755000D02*
X15766350Y-4785000D01*
X15766350Y-4755000D02*
X15736350Y-4785000D01*
X15737750Y-9745000D02*
X15767750Y-9775000D01*
X15767750Y-9745000D02*
X15737750Y-9775000D01*
X15747750Y-4455000D02*
X15777750Y-4485000D01*
X15777750Y-4455000D02*
X15747750Y-4485000D01*
X15752909Y-4111791D02*
X15782909Y-4141791D01*
X15782909Y-4111791D02*
X15752909Y-4141791D01*
X15757750Y-3315000D02*
X15787750Y-3345000D01*
X15787750Y-3315000D02*
X15757750Y-3345000D01*
X15767750Y-5135000D02*
X15797750Y-5165000D01*
X15797750Y-5135000D02*
X15767750Y-5165000D01*
X15776250Y-5715012D02*
X15806250Y-5745012D01*
X15806250Y-5715012D02*
X15776250Y-5745012D01*
X15777750Y-5016240D02*
X15807750Y-5046240D01*
X15807750Y-5016240D02*
X15777750Y-5046240D01*
X15787750Y-8445000D02*
X15817750Y-8475000D01*
X15817750Y-8445000D02*
X15787750Y-8475000D01*
X15787750Y-14125000D02*
X15817750Y-14155000D01*
X15817750Y-14125000D02*
X15787750Y-14155000D01*
X15807750Y-7165000D02*
X15837750Y-7195000D01*
X15837750Y-7165000D02*
X15807750Y-7195000D01*
X15817750Y-6225000D02*
X15847750Y-6255000D01*
X15847750Y-6225000D02*
X15817750Y-6255000D01*
X15827750Y-8625000D02*
X15857750Y-8655000D01*
X15857750Y-8625000D02*
X15827750Y-8655000D01*
X15873847Y-11221097D02*
X15903847Y-11251097D01*
X15903847Y-11221097D02*
X15873847Y-11251097D01*
X15877750Y-3315000D02*
X15907750Y-3345000D01*
X15907750Y-3315000D02*
X15877750Y-3345000D01*
X15877750Y-9559000D02*
X15907750Y-9589000D01*
X15907750Y-9559000D02*
X15877750Y-9589000D01*
X15884450Y-5605000D02*
X15914450Y-5635000D01*
X15914450Y-5605000D02*
X15884450Y-5635000D01*
X15937750Y-8733120D02*
X15967750Y-8763120D01*
X15967750Y-8733120D02*
X15937750Y-8763120D01*
X15955556Y-4112806D02*
X15985556Y-4142806D01*
X15985556Y-4112806D02*
X15955556Y-4142806D01*
X15967750Y-3315000D02*
X15997750Y-3345000D01*
X15997750Y-3315000D02*
X15967750Y-3345000D01*
X15988750Y-4005000D02*
X16018750Y-4035000D01*
X16018750Y-4005000D02*
X15988750Y-4035000D01*
X16007750Y-6235000D02*
X16037750Y-6265000D01*
X16037750Y-6235000D02*
X16007750Y-6265000D01*
X16026513Y-7242008D02*
X16056513Y-7272008D01*
X16056513Y-7242008D02*
X16026513Y-7272008D01*
X16027750Y-7795000D02*
X16057750Y-7825000D01*
X16057750Y-7795000D02*
X16027750Y-7825000D01*
X16027750Y-8785000D02*
X16057750Y-8815000D01*
X16057750Y-8785000D02*
X16027750Y-8815000D01*
X16031250Y-5605000D02*
X16061250Y-5635000D01*
X16061250Y-5605000D02*
X16031250Y-5635000D01*
X16067750Y-9015000D02*
X16097750Y-9045000D01*
X16097750Y-9015000D02*
X16067750Y-9045000D01*
X16077750Y-9258600D02*
X16107750Y-9288600D01*
X16107750Y-9258600D02*
X16077750Y-9288600D01*
X16077750Y-10025000D02*
X16107750Y-10055000D01*
X16107750Y-10025000D02*
X16077750Y-10055000D01*
X16107300Y-7247869D02*
X16137300Y-7277869D01*
X16137300Y-7247869D02*
X16107300Y-7277869D01*
X16107750Y-7536880D02*
X16137750Y-7566880D01*
X16137750Y-7536880D02*
X16107750Y-7566880D01*
X16117750Y-4115000D02*
X16147750Y-4145000D01*
X16147750Y-4115000D02*
X16117750Y-4145000D01*
X16127750Y-13275000D02*
X16157750Y-13305000D01*
X16157750Y-13275000D02*
X16127750Y-13305000D01*
X16147630Y-8807560D02*
X16177630Y-8837560D01*
X16177630Y-8807560D02*
X16147630Y-8837560D01*
X16157750Y-9093120D02*
X16187750Y-9123120D01*
X16187750Y-9093120D02*
X16157750Y-9123120D01*
X16157750Y-13695000D02*
X16187750Y-13725000D01*
X16187750Y-13695000D02*
X16157750Y-13725000D01*
X16181051Y-7586880D02*
X16211051Y-7616880D01*
X16211051Y-7586880D02*
X16181051Y-7616880D01*
X16188250Y-7245000D02*
X16218250Y-7275000D01*
X16218250Y-7245000D02*
X16188250Y-7275000D01*
X16190750Y-5308000D02*
X16220750Y-5338000D01*
X16220750Y-5308000D02*
X16190750Y-5338000D01*
X16191250Y-5605000D02*
X16221250Y-5635000D01*
X16221250Y-5605000D02*
X16191250Y-5635000D01*
X16195250Y-6013740D02*
X16225250Y-6043740D01*
X16225250Y-6013740D02*
X16195250Y-6043740D01*
X16207750Y-9875000D02*
X16237750Y-9905000D01*
X16237750Y-9875000D02*
X16207750Y-9905000D01*
X16208590Y-9215720D02*
X16238590Y-9245720D01*
X16238590Y-9215720D02*
X16208590Y-9245720D01*
X16214301Y-4771551D02*
X16244301Y-4801551D01*
X16244301Y-4771551D02*
X16214301Y-4801551D01*
X16226653Y-4569880D02*
X16256653Y-4599880D01*
X16256653Y-4569880D02*
X16226653Y-4599880D01*
X16227750Y-13845000D02*
X16257750Y-13875000D01*
X16257750Y-13845000D02*
X16227750Y-13875000D01*
X16247750Y-13305000D02*
X16277750Y-13335000D01*
X16277750Y-13305000D02*
X16247750Y-13335000D01*
X16249750Y-13415000D02*
X16279750Y-13445000D01*
X16279750Y-13415000D02*
X16249750Y-13445000D01*
X16249750Y-13525000D02*
X16279750Y-13555000D01*
X16279750Y-13525000D02*
X16249750Y-13555000D01*
X16249750Y-13615000D02*
X16279750Y-13645000D01*
X16279750Y-13615000D02*
X16249750Y-13645000D01*
X16267750Y-4705000D02*
X16297750Y-4735000D01*
X16297750Y-4705000D02*
X16267750Y-4735000D01*
X16277750Y-8445000D02*
X16307750Y-8475000D01*
X16307750Y-8445000D02*
X16277750Y-8475000D01*
X16287750Y-4825000D02*
X16317750Y-4855000D01*
X16317750Y-4825000D02*
X16287750Y-4855000D01*
X16287750Y-4995000D02*
X16317750Y-5025000D01*
X16317750Y-4995000D02*
X16287750Y-5025000D01*
X16292410Y-9177620D02*
X16322410Y-9207620D01*
X16322410Y-9177620D02*
X16292410Y-9207620D01*
X16324250Y-5688750D02*
X16354250Y-5718750D01*
X16354250Y-5688750D02*
X16324250Y-5718750D01*
X16327750Y-3995000D02*
X16357750Y-4025000D01*
X16357750Y-3995000D02*
X16327750Y-4025000D01*
X16329630Y-4273034D02*
X16359630Y-4303034D01*
X16359630Y-4273034D02*
X16329630Y-4303034D01*
X16329630Y-4486120D02*
X16359630Y-4516120D01*
X16359630Y-4486120D02*
X16329630Y-4516120D01*
X16337750Y-9765000D02*
X16367750Y-9795000D01*
X16367750Y-9765000D02*
X16337750Y-9795000D01*
X16398250Y-4945923D02*
X16428250Y-4975923D01*
X16428250Y-4945923D02*
X16398250Y-4975923D01*
X16467750Y-8125000D02*
X16497750Y-8155000D01*
X16497750Y-8125000D02*
X16467750Y-8155000D01*
X16474219Y-8044258D02*
X16504219Y-8074258D01*
X16504219Y-8044258D02*
X16474219Y-8074258D01*
X16497750Y-13985000D02*
X16527750Y-14015000D01*
X16527750Y-13985000D02*
X16497750Y-14015000D01*
X16508847Y-8996097D02*
X16538847Y-9026097D01*
X16538847Y-8996097D02*
X16508847Y-9026097D01*
X16517750Y-13065000D02*
X16547750Y-13095000D01*
X16547750Y-13065000D02*
X16517750Y-13095000D01*
X16532339Y-7965000D02*
X16562339Y-7995000D01*
X16562339Y-7965000D02*
X16532339Y-7995000D01*
X16547750Y-5375000D02*
X16577750Y-5405000D01*
X16577750Y-5375000D02*
X16547750Y-5405000D01*
X16565750Y-12705000D02*
X16595750Y-12735000D01*
X16595750Y-12705000D02*
X16565750Y-12735000D01*
X16577750Y-12975000D02*
X16607750Y-13005000D01*
X16607750Y-12975000D02*
X16577750Y-13005000D01*
X16628847Y-3643903D02*
X16658847Y-3673903D01*
X16658847Y-3643903D02*
X16628847Y-3673903D01*
X16647750Y-5375000D02*
X16677750Y-5405000D01*
X16677750Y-5375000D02*
X16647750Y-5405000D01*
X16668512Y-5593672D02*
X16698512Y-5623672D01*
X16698512Y-5593672D02*
X16668512Y-5623672D01*
X16680730Y-8485000D02*
X16710730Y-8515000D01*
X16710730Y-8485000D02*
X16680730Y-8515000D01*
X16687750Y-14585000D02*
X16717750Y-14615000D01*
X16717750Y-14585000D02*
X16687750Y-14615000D01*
X16718090Y-13645000D02*
X16748090Y-13675000D01*
X16748090Y-13645000D02*
X16718090Y-13675000D01*
X16738413Y-5196516D02*
X16768413Y-5226516D01*
X16768413Y-5196516D02*
X16738413Y-5226516D01*
X16740927Y-8545000D02*
X16770927Y-8575000D01*
X16770927Y-8545000D02*
X16740927Y-8575000D01*
X16767750Y-13795000D02*
X16797750Y-13825000D01*
X16797750Y-13795000D02*
X16767750Y-13825000D01*
X16777750Y-13585000D02*
X16807750Y-13615000D01*
X16807750Y-13585000D02*
X16777750Y-13615000D01*
X16777750Y-13695000D02*
X16807750Y-13725000D01*
X16807750Y-13695000D02*
X16777750Y-13725000D01*
X16782134Y-5857167D02*
X16812134Y-5887167D01*
X16812134Y-5857167D02*
X16782134Y-5887167D01*
X16787750Y-5685000D02*
X16817750Y-5715000D01*
X16817750Y-5685000D02*
X16787750Y-5715000D01*
X16810250Y-8615000D02*
X16840250Y-8645000D01*
X16840250Y-8615000D02*
X16810250Y-8645000D01*
X16846350Y-6454000D02*
X16876350Y-6484000D01*
X16876350Y-6454000D02*
X16846350Y-6484000D01*
X16867090Y-13435000D02*
X16897090Y-13465000D01*
X16897090Y-13435000D02*
X16867090Y-13465000D01*
X16869250Y-7515000D02*
X16899250Y-7545000D01*
X16899250Y-7515000D02*
X16869250Y-7545000D01*
X16917750Y-3765000D02*
X16947750Y-3795000D01*
X16947750Y-3765000D02*
X16917750Y-3795000D01*
X16917750Y-5415000D02*
X16947750Y-5445000D01*
X16947750Y-5415000D02*
X16917750Y-5445000D01*
X16917750Y-7595000D02*
X16947750Y-7625000D01*
X16947750Y-7595000D02*
X16917750Y-7625000D01*
X16967750Y-7525000D02*
X16997750Y-7555000D01*
X16997750Y-7525000D02*
X16967750Y-7555000D01*
X16977750Y-3895000D02*
X17007750Y-3925000D01*
X17007750Y-3895000D02*
X16977750Y-3925000D01*
X16997750Y-3785000D02*
X17027750Y-3815000D01*
X17027750Y-3785000D02*
X16997750Y-3815000D01*
X17021653Y-6298903D02*
X17051653Y-6328903D01*
X17051653Y-6298903D02*
X17021653Y-6328903D01*
X17037750Y-5375000D02*
X17067750Y-5405000D01*
X17067750Y-5375000D02*
X17037750Y-5405000D01*
X17047750Y-4305000D02*
X17077750Y-4335000D01*
X17077750Y-4305000D02*
X17047750Y-4335000D01*
X17054857Y-13224340D02*
X17084857Y-13254340D01*
X17084857Y-13224340D02*
X17054857Y-13254340D01*
X17067750Y-6195000D02*
X17097750Y-6225000D01*
X17097750Y-6195000D02*
X17067750Y-6225000D01*
X17113758Y-6080908D02*
X17143758Y-6110908D01*
X17143758Y-6080908D02*
X17113758Y-6110908D01*
X17127750Y-8112730D02*
X17157750Y-8142730D01*
X17157750Y-8112730D02*
X17127750Y-8142730D01*
X17213847Y-4148903D02*
X17243847Y-4178903D01*
X17243847Y-4148903D02*
X17213847Y-4178903D01*
X17217750Y-8065000D02*
X17247750Y-8095000D01*
X17247750Y-8065000D02*
X17217750Y-8095000D01*
X17221301Y-6043047D02*
X17251301Y-6073047D01*
X17251301Y-6043047D02*
X17221301Y-6073047D01*
X17237750Y-5355000D02*
X17267750Y-5385000D01*
X17267750Y-5355000D02*
X17237750Y-5385000D01*
X17247750Y-5195000D02*
X17277750Y-5225000D01*
X17277750Y-5195000D02*
X17247750Y-5225000D01*
X17255556Y-7823120D02*
X17285556Y-7853120D01*
X17285556Y-7823120D02*
X17255556Y-7853120D01*
X17277750Y-13505000D02*
X17307750Y-13535000D01*
X17307750Y-13505000D02*
X17277750Y-13535000D01*
X17277750Y-13605000D02*
X17307750Y-13635000D01*
X17307750Y-13605000D02*
X17277750Y-13635000D01*
X17297750Y-13185000D02*
X17327750Y-13215000D01*
X17327750Y-13185000D02*
X17297750Y-13215000D01*
X17307750Y-7465000D02*
X17337750Y-7495000D01*
X17337750Y-7465000D02*
X17307750Y-7495000D01*
X17337750Y-7823120D02*
X17367750Y-7853120D01*
X17367750Y-7823120D02*
X17337750Y-7853120D01*
X17347750Y-7596880D02*
X17377750Y-7626880D01*
X17377750Y-7596880D02*
X17347750Y-7626880D01*
X17367750Y-13245000D02*
X17397750Y-13275000D01*
X17397750Y-13245000D02*
X17367750Y-13275000D01*
X17397750Y-6765000D02*
X17427750Y-6795000D01*
X17427750Y-6765000D02*
X17397750Y-6795000D01*
X17407436Y-7763120D02*
X17437436Y-7793120D01*
X17437436Y-7763120D02*
X17407436Y-7793120D01*
X17407750Y-5455000D02*
X17437750Y-5485000D01*
X17437750Y-5455000D02*
X17407750Y-5485000D01*
X17407810Y-8065000D02*
X17437810Y-8095000D01*
X17437810Y-8065000D02*
X17407810Y-8095000D01*
X17421643Y-13053107D02*
X17451643Y-13083107D01*
X17451643Y-13053107D02*
X17421643Y-13083107D01*
X17427750Y-6985000D02*
X17457750Y-7015000D01*
X17457750Y-6985000D02*
X17427750Y-7015000D01*
X17437750Y-4665000D02*
X17467750Y-4695000D01*
X17467750Y-4665000D02*
X17437750Y-4695000D01*
X17437750Y-4775000D02*
X17467750Y-4805000D01*
X17467750Y-4775000D02*
X17437750Y-4805000D01*
X17437750Y-7596880D02*
X17467750Y-7626880D01*
X17467750Y-7596880D02*
X17437750Y-7626880D01*
X17445983Y-12931787D02*
X17475983Y-12961787D01*
X17475983Y-12931787D02*
X17445983Y-12961787D01*
X17467750Y-8285000D02*
X17497750Y-8315000D01*
X17497750Y-8285000D02*
X17467750Y-8315000D01*
X17537750Y-12995000D02*
X17567750Y-13025000D01*
X17567750Y-12995000D02*
X17537750Y-13025000D01*
X17541338Y-6348588D02*
X17571338Y-6378588D01*
X17571338Y-6348588D02*
X17541338Y-6378588D01*
X17547750Y-5875000D02*
X17577750Y-5905000D01*
X17577750Y-5875000D02*
X17547750Y-5905000D01*
X17587750Y-13405000D02*
X17617750Y-13435000D01*
X17617750Y-13405000D02*
X17587750Y-13435000D01*
X17627750Y-6385000D02*
X17657750Y-6415000D01*
X17657750Y-6385000D02*
X17627750Y-6415000D01*
X17627750Y-7458120D02*
X17657750Y-7488120D01*
X17657750Y-7458120D02*
X17627750Y-7488120D01*
X17643297Y-8009215D02*
X17673297Y-8039215D01*
X17673297Y-8009215D02*
X17643297Y-8039215D01*
X17707750Y-6125000D02*
X17737750Y-6155000D01*
X17737750Y-6125000D02*
X17707750Y-6155000D01*
X17766653Y-7993903D02*
X17796653Y-8023903D01*
X17796653Y-7993903D02*
X17766653Y-8023903D01*
X17769050Y-4275000D02*
X17799050Y-4305000D01*
X17799050Y-4275000D02*
X17769050Y-4305000D01*
X17777750Y-4865000D02*
X17807750Y-4895000D01*
X17807750Y-4865000D02*
X17777750Y-4895000D01*
X17797750Y-5085000D02*
X17827750Y-5115000D01*
X17827750Y-5085000D02*
X17797750Y-5115000D01*
X17819630Y-8738500D02*
X17849630Y-8768500D01*
X17849630Y-8738500D02*
X17819630Y-8768500D01*
X17854510Y-7036400D02*
X17884510Y-7066400D01*
X17884510Y-7036400D02*
X17854510Y-7066400D01*
X17867750Y-5085000D02*
X17897750Y-5115000D01*
X17897750Y-5085000D02*
X17867750Y-5115000D01*
X17867750Y-9273659D02*
X17897750Y-9303659D01*
X17897750Y-9273659D02*
X17867750Y-9303659D01*
X17877750Y-8920630D02*
X17907750Y-8950630D01*
X17907750Y-8920630D02*
X17877750Y-8950630D01*
X17885850Y-8497953D02*
X17915850Y-8527953D01*
X17915850Y-8497953D02*
X17885850Y-8527953D01*
X17887750Y-7275000D02*
X17917750Y-7305000D01*
X17917750Y-7275000D02*
X17887750Y-7305000D01*
X17892750Y-7508000D02*
X17922750Y-7538000D01*
X17922750Y-7508000D02*
X17892750Y-7538000D01*
X17913847Y-8011097D02*
X17943847Y-8041097D01*
X17943847Y-8011097D02*
X17913847Y-8041097D01*
X17987750Y-14025000D02*
X18017750Y-14055000D01*
X18017750Y-14025000D02*
X17987750Y-14055000D01*
X18007750Y-7766520D02*
X18037750Y-7796520D01*
X18037750Y-7766520D02*
X18007750Y-7796520D01*
X18037750Y-5955000D02*
X18067750Y-5985000D01*
X18067750Y-5955000D02*
X18037750Y-5985000D01*
X18037750Y-6125000D02*
X18067750Y-6155000D01*
X18067750Y-6125000D02*
X18037750Y-6155000D01*
X18056750Y-4735000D02*
X18086750Y-4765000D01*
X18086750Y-4735000D02*
X18056750Y-4765000D01*
X18065870Y-7265000D02*
X18095870Y-7295000D01*
X18095870Y-7265000D02*
X18065870Y-7295000D01*
X18065870Y-7412979D02*
X18095870Y-7442979D01*
X18095870Y-7412979D02*
X18065870Y-7442979D01*
X18083930Y-7797940D02*
X18113930Y-7827940D01*
X18113930Y-7797940D02*
X18083930Y-7827940D01*
X18089673Y-7546120D02*
X18119673Y-7576120D01*
X18119673Y-7546120D02*
X18089673Y-7576120D01*
X18127750Y-6615000D02*
X18157750Y-6645000D01*
X18157750Y-6615000D02*
X18127750Y-6645000D01*
X18128599Y-8511617D02*
X18158599Y-8541617D01*
X18158599Y-8511617D02*
X18128599Y-8541617D01*
X18137750Y-4735000D02*
X18167750Y-4765000D01*
X18167750Y-4735000D02*
X18137750Y-4765000D01*
X18147750Y-9335000D02*
X18177750Y-9365000D01*
X18177750Y-9335000D02*
X18147750Y-9365000D01*
X18174550Y-7158320D02*
X18204550Y-7188320D01*
X18204550Y-7158320D02*
X18174550Y-7188320D01*
X18197750Y-7975000D02*
X18227750Y-8005000D01*
X18227750Y-7975000D02*
X18197750Y-8005000D01*
X18207750Y-7283120D02*
X18237750Y-7313120D01*
X18237750Y-7283120D02*
X18207750Y-7313120D01*
X18219347Y-4735597D02*
X18249347Y-4765597D01*
X18249347Y-4735597D02*
X18219347Y-4765597D01*
X18237750Y-4315000D02*
X18267750Y-4345000D01*
X18267750Y-4315000D02*
X18237750Y-4345000D01*
X18239630Y-7905667D02*
X18269630Y-7935667D01*
X18269630Y-7905667D02*
X18239630Y-7935667D01*
X18318750Y-4315000D02*
X18348750Y-4345000D01*
X18348750Y-4315000D02*
X18318750Y-4345000D01*
X18337750Y-8025000D02*
X18367750Y-8055000D01*
X18367750Y-8025000D02*
X18337750Y-8055000D01*
X18367750Y-6795000D02*
X18397750Y-6825000D01*
X18397750Y-6795000D02*
X18367750Y-6825000D01*
X18387750Y-5085000D02*
X18417750Y-5115000D01*
X18417750Y-5085000D02*
X18387750Y-5115000D01*
X18397750Y-14155000D02*
X18427750Y-14185000D01*
X18427750Y-14155000D02*
X18397750Y-14185000D01*
X18402063Y-3405000D02*
X18432063Y-3435000D01*
X18432063Y-3405000D02*
X18402063Y-3435000D01*
X18437750Y-10895000D02*
X18467750Y-10925000D01*
X18467750Y-10895000D02*
X18437750Y-10925000D01*
X18447750Y-10995000D02*
X18477750Y-11025000D01*
X18477750Y-10995000D02*
X18447750Y-11025000D01*
X18461097Y-7543847D02*
X18491097Y-7573847D01*
X18491097Y-7543847D02*
X18461097Y-7573847D01*
X18464110Y-7036400D02*
X18494110Y-7066400D01*
X18494110Y-7036400D02*
X18464110Y-7066400D01*
X18474250Y-8085187D02*
X18504250Y-8115187D01*
X18504250Y-8085187D02*
X18474250Y-8115187D01*
X18492957Y-7140207D02*
X18522957Y-7170207D01*
X18522957Y-7140207D02*
X18492957Y-7170207D01*
X18527750Y-9525000D02*
X18557750Y-9555000D01*
X18557750Y-9525000D02*
X18527750Y-9555000D01*
X18547750Y-8045000D02*
X18577750Y-8075000D01*
X18577750Y-8045000D02*
X18547750Y-8075000D01*
X18577750Y-11025000D02*
X18607750Y-11055000D01*
X18607750Y-11025000D02*
X18577750Y-11055000D01*
X18637750Y-9415000D02*
X18667750Y-9445000D01*
X18667750Y-9415000D02*
X18637750Y-9445000D01*
X18667750Y-10925000D02*
X18697750Y-10955000D01*
X18697750Y-10925000D02*
X18667750Y-10955000D01*
X18669903Y-7990653D02*
X18699903Y-8020653D01*
X18699903Y-7990653D02*
X18669903Y-8020653D01*
X18694630Y-7745000D02*
X18724630Y-7775000D01*
X18724630Y-7745000D02*
X18694630Y-7775000D01*
X18697750Y-6565000D02*
X18727750Y-6595000D01*
X18727750Y-6565000D02*
X18697750Y-6595000D01*
X18697750Y-7105000D02*
X18727750Y-7135000D01*
X18727750Y-7105000D02*
X18697750Y-7135000D01*
X18727750Y-9245000D02*
X18757750Y-9275000D01*
X18757750Y-9245000D02*
X18727750Y-9275000D01*
X18747750Y-11165000D02*
X18777750Y-11195000D01*
X18777750Y-11165000D02*
X18747750Y-11195000D01*
X18807750Y-10615000D02*
X18837750Y-10645000D01*
X18837750Y-10615000D02*
X18807750Y-10645000D01*
X18827750Y-11145000D02*
X18857750Y-11175000D01*
X18857750Y-11145000D02*
X18827750Y-11175000D01*
X18841250Y-8690694D02*
X18871250Y-8720694D01*
X18871250Y-8690694D02*
X18841250Y-8720694D01*
X18846558Y-7665696D02*
X18876558Y-7695696D01*
X18876558Y-7665696D02*
X18846558Y-7695696D01*
X18877750Y-11605000D02*
X18907750Y-11635000D01*
X18907750Y-11605000D02*
X18877750Y-11635000D01*
X18947750Y-7125000D02*
X18977750Y-7155000D01*
X18977750Y-7125000D02*
X18947750Y-7155000D01*
X18967750Y-10195000D02*
X18997750Y-10225000D01*
X18997750Y-10195000D02*
X18967750Y-10225000D01*
X18967750Y-12170900D02*
X18997750Y-12200900D01*
X18997750Y-12170900D02*
X18967750Y-12200900D01*
X18977750Y-11595000D02*
X19007750Y-11625000D01*
X19007750Y-11595000D02*
X18977750Y-11625000D01*
X18996526Y-7986880D02*
X19026526Y-8016880D01*
X19026526Y-7986880D02*
X18996526Y-8016880D01*
X19007750Y-8965000D02*
X19037750Y-8995000D01*
X19037750Y-8965000D02*
X19007750Y-8995000D01*
X19057750Y-8755000D02*
X19087750Y-8785000D01*
X19087750Y-8755000D02*
X19057750Y-8785000D01*
X19057750Y-10185000D02*
X19087750Y-10215000D01*
X19087750Y-10185000D02*
X19057750Y-10215000D01*
X19087750Y-11605000D02*
X19117750Y-11635000D01*
X19117750Y-11605000D02*
X19087750Y-11635000D01*
X19093942Y-8962334D02*
X19123942Y-8992334D01*
X19123942Y-8962334D02*
X19093942Y-8992334D01*
X19098847Y-6566097D02*
X19128847Y-6596097D01*
X19128847Y-6566097D02*
X19098847Y-6596097D01*
X19127750Y-11965000D02*
X19157750Y-11995000D01*
X19157750Y-11965000D02*
X19127750Y-11995000D01*
X19157750Y-6965000D02*
X19187750Y-6995000D01*
X19187750Y-6965000D02*
X19157750Y-6995000D01*
X19157750Y-10185000D02*
X19187750Y-10215000D01*
X19187750Y-10185000D02*
X19157750Y-10215000D01*
X19159243Y-6793356D02*
X19189243Y-6823356D01*
X19189243Y-6793356D02*
X19159243Y-6823356D01*
X19167750Y-6565000D02*
X19197750Y-6595000D01*
X19197750Y-6565000D02*
X19167750Y-6595000D01*
X19177750Y-10755000D02*
X19207750Y-10785000D01*
X19207750Y-10755000D02*
X19177750Y-10785000D01*
X19187750Y-11605000D02*
X19217750Y-11635000D01*
X19217750Y-11605000D02*
X19187750Y-11635000D01*
X19197750Y-10575000D02*
X19227750Y-10605000D01*
X19227750Y-10575000D02*
X19197750Y-10605000D01*
X19217750Y-7375000D02*
X19247750Y-7405000D01*
X19247750Y-7375000D02*
X19217750Y-7405000D01*
X19237750Y-10185000D02*
X19267750Y-10215000D01*
X19267750Y-10185000D02*
X19237750Y-10215000D01*
X19247750Y-6335000D02*
X19277750Y-6365000D01*
X19277750Y-6335000D02*
X19247750Y-6365000D01*
X19287750Y-7115000D02*
X19317750Y-7145000D01*
X19317750Y-7115000D02*
X19287750Y-7145000D01*
X19287750Y-8765000D02*
X19317750Y-8795000D01*
X19317750Y-8765000D02*
X19287750Y-8795000D01*
X19287750Y-9031120D02*
X19317750Y-9061120D01*
X19317750Y-9031120D02*
X19287750Y-9061120D01*
X19287750Y-9135000D02*
X19317750Y-9165000D01*
X19317750Y-9135000D02*
X19287750Y-9165000D01*
X19390830Y-10249120D02*
X19420830Y-10279120D01*
X19420830Y-10249120D02*
X19390830Y-10279120D01*
X19397750Y-10785000D02*
X19427750Y-10815000D01*
X19427750Y-10785000D02*
X19397750Y-10815000D01*
X19417750Y-12385000D02*
X19447750Y-12415000D01*
X19447750Y-12385000D02*
X19417750Y-12415000D01*
X19437750Y-5005000D02*
X19467750Y-5035000D01*
X19467750Y-5005000D02*
X19437750Y-5035000D01*
X19451250Y-8595000D02*
X19481250Y-8625000D01*
X19481250Y-8595000D02*
X19451250Y-8625000D01*
X19461653Y-7008903D02*
X19491653Y-7038903D01*
X19491653Y-7008903D02*
X19461653Y-7038903D01*
X19464707Y-7961018D02*
X19494707Y-7991018D01*
X19494707Y-7961018D02*
X19464707Y-7991018D01*
X19467750Y-4885000D02*
X19497750Y-4915000D01*
X19497750Y-4885000D02*
X19467750Y-4915000D01*
X19487750Y-7855000D02*
X19517750Y-7885000D01*
X19517750Y-7855000D02*
X19487750Y-7885000D01*
X19488358Y-7723826D02*
X19518358Y-7753826D01*
X19518358Y-7723826D02*
X19488358Y-7753826D01*
X19497750Y-10965000D02*
X19527750Y-10995000D01*
X19527750Y-10965000D02*
X19497750Y-10995000D01*
X19541479Y-7507170D02*
X19571479Y-7537170D01*
X19571479Y-7507170D02*
X19541479Y-7537170D01*
X19547750Y-11695000D02*
X19577750Y-11725000D01*
X19577750Y-11695000D02*
X19547750Y-11725000D01*
X19549976Y-7906855D02*
X19579976Y-7936855D01*
X19579976Y-7906855D02*
X19549976Y-7936855D01*
X19562201Y-7823092D02*
X19592201Y-7853092D01*
X19592201Y-7823092D02*
X19562201Y-7853092D01*
X19584250Y-8668750D02*
X19614250Y-8698750D01*
X19614250Y-8668750D02*
X19584250Y-8698750D01*
X19608502Y-7552657D02*
X19638502Y-7582657D01*
X19638502Y-7552657D02*
X19608502Y-7582657D01*
X19614250Y-9068750D02*
X19644250Y-9098750D01*
X19644250Y-9068750D02*
X19614250Y-9098750D01*
X19627750Y-4895000D02*
X19657750Y-4925000D01*
X19657750Y-4895000D02*
X19627750Y-4925000D01*
X19667750Y-6335000D02*
X19697750Y-6365000D01*
X19697750Y-6335000D02*
X19667750Y-6365000D01*
X19687750Y-6555000D02*
X19717750Y-6585000D01*
X19717750Y-6555000D02*
X19687750Y-6585000D01*
X19747750Y-6786880D02*
X19777750Y-6816880D01*
X19777750Y-6786880D02*
X19747750Y-6816880D01*
X19757750Y-6555000D02*
X19787750Y-6585000D01*
X19787750Y-6555000D02*
X19757750Y-6585000D01*
X19791163Y-11071528D02*
X19821163Y-11101528D01*
X19821163Y-11071528D02*
X19791163Y-11101528D01*
X19877750Y-5745000D02*
X19907750Y-5775000D01*
X19907750Y-5745000D02*
X19877750Y-5775000D01*
X19877750Y-6035000D02*
X19907750Y-6065000D01*
X19907750Y-6035000D02*
X19877750Y-6065000D01*
X19937750Y-8695000D02*
X19967750Y-8725000D01*
X19967750Y-8695000D02*
X19937750Y-8725000D01*
X19947750Y-11527487D02*
X19977750Y-11557487D01*
X19977750Y-11527487D02*
X19947750Y-11557487D01*
X19967750Y-5745000D02*
X19997750Y-5775000D01*
X19997750Y-5745000D02*
X19967750Y-5775000D01*
X19967750Y-6035000D02*
X19997750Y-6065000D01*
X19997750Y-6035000D02*
X19967750Y-6065000D01*
X19987750Y-7151600D02*
X20017750Y-7181600D01*
X20017750Y-7151600D02*
X19987750Y-7181600D01*
X20008971Y-7631060D02*
X20038971Y-7661060D01*
X20038971Y-7631060D02*
X20008971Y-7661060D01*
X20027670Y-7435080D02*
X20057670Y-7465080D01*
X20057670Y-7435080D02*
X20027670Y-7465080D01*
X20027750Y-7875000D02*
X20057750Y-7905000D01*
X20057750Y-7875000D02*
X20027750Y-7905000D01*
X20027750Y-7971600D02*
X20057750Y-8001600D01*
X20057750Y-7971600D02*
X20027750Y-8001600D01*
X20057750Y-5745000D02*
X20087750Y-5775000D01*
X20087750Y-5745000D02*
X20057750Y-5775000D01*
X20057750Y-6045000D02*
X20087750Y-6075000D01*
X20087750Y-6045000D02*
X20057750Y-6075000D01*
X20067750Y-10215000D02*
X20097750Y-10245000D01*
X20097750Y-10215000D02*
X20067750Y-10245000D01*
X20103650Y-11795000D02*
X20133650Y-11825000D01*
X20133650Y-11795000D02*
X20103650Y-11825000D01*
X20117750Y-9175000D02*
X20147750Y-9205000D01*
X20147750Y-9175000D02*
X20117750Y-9205000D01*
X20157750Y-5745000D02*
X20187750Y-5775000D01*
X20187750Y-5745000D02*
X20157750Y-5775000D01*
X20157750Y-6035000D02*
X20187750Y-6065000D01*
X20187750Y-6035000D02*
X20157750Y-6065000D01*
X20197750Y-9175000D02*
X20227750Y-9205000D01*
X20227750Y-9175000D02*
X20197750Y-9205000D01*
X20215977Y-8656773D02*
X20245977Y-8686773D01*
X20245977Y-8656773D02*
X20215977Y-8686773D01*
X20237750Y-7805000D02*
X20267750Y-7835000D01*
X20267750Y-7805000D02*
X20237750Y-7835000D01*
X20262750Y-11730000D02*
X20292750Y-11760000D01*
X20292750Y-11730000D02*
X20262750Y-11760000D01*
X20308989Y-8145500D02*
X20338989Y-8175500D01*
X20338989Y-8145500D02*
X20308989Y-8175500D01*
X20327750Y-11795000D02*
X20357750Y-11825000D01*
X20357750Y-11795000D02*
X20327750Y-11825000D01*
X20367750Y-7615000D02*
X20397750Y-7645000D01*
X20397750Y-7615000D02*
X20367750Y-7645000D01*
X20369110Y-7798400D02*
X20399110Y-7828400D01*
X20399110Y-7798400D02*
X20369110Y-7828400D01*
X20459630Y-6667449D02*
X20489630Y-6697449D01*
X20489630Y-6667449D02*
X20459630Y-6697449D01*
X20517750Y-6595000D02*
X20547750Y-6625000D01*
X20547750Y-6595000D02*
X20517750Y-6625000D01*
X20527750Y-5965000D02*
X20557750Y-5995000D01*
X20557750Y-5965000D02*
X20527750Y-5995000D01*
X20557750Y-10875000D02*
X20587750Y-10905000D01*
X20587750Y-10875000D02*
X20557750Y-10905000D01*
X20567750Y-6405000D02*
X20597750Y-6435000D01*
X20597750Y-6405000D02*
X20567750Y-6435000D01*
X20575235Y-6066895D02*
X20605235Y-6096895D01*
X20605235Y-6066895D02*
X20575235Y-6096895D01*
X20577750Y-5775000D02*
X20607750Y-5805000D01*
X20607750Y-5775000D02*
X20577750Y-5805000D01*
X20587750Y-11125000D02*
X20617750Y-11155000D01*
X20617750Y-11125000D02*
X20587750Y-11155000D01*
X20597750Y-11305000D02*
X20627750Y-11335000D01*
X20627750Y-11305000D02*
X20597750Y-11335000D01*
X20857750Y-10645000D02*
X20887750Y-10675000D01*
X20887750Y-10645000D02*
X20857750Y-10675000D01*
X20886970Y-8875000D02*
X20916970Y-8905000D01*
X20916970Y-8875000D02*
X20886970Y-8905000D01*
X20888250Y-6795000D02*
X20918250Y-6825000D01*
X20918250Y-6795000D02*
X20888250Y-6825000D01*
X20917750Y-8725000D02*
X20947750Y-8755000D01*
X20947750Y-8725000D02*
X20917750Y-8755000D01*
X20937750Y-8155000D02*
X20967750Y-8185000D01*
X20967750Y-8155000D02*
X20937750Y-8185000D01*
X20947750Y-6195000D02*
X20977750Y-6225000D01*
X20977750Y-6195000D02*
X20947750Y-6225000D01*
X20965259Y-7607491D02*
X20995259Y-7637491D01*
X20995259Y-7607491D02*
X20965259Y-7637491D01*
X20967750Y-7055000D02*
X20997750Y-7085000D01*
X20997750Y-7055000D02*
X20967750Y-7085000D01*
X20967750Y-11306880D02*
X20997750Y-11336880D01*
X20997750Y-11306880D02*
X20967750Y-11336880D01*
X20997750Y-8725000D02*
X21027750Y-8755000D01*
X21027750Y-8725000D02*
X20997750Y-8755000D01*
X21054910Y-10097840D02*
X21084910Y-10127840D01*
X21084910Y-10097840D02*
X21054910Y-10127840D01*
X21199630Y-10835000D02*
X21229630Y-10865000D01*
X21229630Y-10835000D02*
X21199630Y-10865000D01*
X9892750Y-12660000D02*
G75*
G02*
X9792750Y-12660000I-50000J0D01*
G01*
X9792750Y-12660000D02*
G75*
G02*
X9892750Y-12660000I50000J0D01*
G01*
X9892750Y-12914000D02*
G75*
G02*
X9792750Y-12914000I-50000J0D01*
G01*
X9792750Y-12914000D02*
G75*
G02*
X9892750Y-12914000I50000J0D01*
G01*
X9892750Y-13168000D02*
G75*
G02*
X9792750Y-13168000I-50000J0D01*
G01*
X9792750Y-13168000D02*
G75*
G02*
X9892750Y-13168000I50000J0D01*
G01*
X18122750Y-3420000D02*
G75*
G02*
X18022750Y-3420000I-50000J0D01*
G01*
X18022750Y-3420000D02*
G75*
G02*
X18122750Y-3420000I50000J0D01*
G01*
X18122750Y-3674000D02*
G75*
G02*
X18022750Y-3674000I-50000J0D01*
G01*
X18022750Y-3674000D02*
G75*
G02*
X18122750Y-3674000I50000J0D01*
G01*
X18122750Y-3928000D02*
G75*
G02*
X18022750Y-3928000I-50000J0D01*
G01*
X18022750Y-3928000D02*
G75*
G02*
X18122750Y-3928000I50000J0D01*
G01*
X18122750Y-4182000D02*
G75*
G02*
X18022750Y-4182000I-50000J0D01*
G01*
X18022750Y-4182000D02*
G75*
G02*
X18122750Y-4182000I50000J0D01*
G01*
X18554750Y-3590000D02*
G75*
G02*
X18454750Y-3590000I-50000J0D01*
G01*
X18454750Y-3590000D02*
G75*
G02*
X18554750Y-3590000I50000J0D01*
G01*
X18808750Y-3590000D02*
G75*
G02*
X18708750Y-3590000I-50000J0D01*
G01*
X18708750Y-3590000D02*
G75*
G02*
X18808750Y-3590000I50000J0D01*
G01*
X19062750Y-3590000D02*
G75*
G02*
X18962750Y-3590000I-50000J0D01*
G01*
X18962750Y-3590000D02*
G75*
G02*
X19062750Y-3590000I50000J0D01*
G01*
X20992750Y-11866000D02*
G75*
G02*
X20892750Y-11866000I-50000J0D01*
G01*
X20892750Y-11866000D02*
G75*
G02*
X20992750Y-11866000I50000J0D01*
G01*
X20992750Y-12120000D02*
G75*
G02*
X20892750Y-12120000I-50000J0D01*
G01*
X20892750Y-12120000D02*
G75*
G02*
X20992750Y-12120000I50000J0D01*
G01*
X20992750Y-12374000D02*
G75*
G02*
X20892750Y-12374000I-50000J0D01*
G01*
X20892750Y-12374000D02*
G75*
G02*
X20992750Y-12374000I50000J0D01*
G01*
D13*
X16377750Y-14170000D02*
X16377750Y-14280000D01*
X16322750Y-14225000D02*
X16432750Y-14225000D01*
X16377750Y-14620000D02*
X16377750Y-14730000D01*
X16322750Y-14675000D02*
X16432750Y-14675000D01*
X17027750Y-14170000D02*
X17027750Y-14280000D01*
X16972750Y-14225000D02*
X17082750Y-14225000D01*
X17027750Y-14620000D02*
X17027750Y-14730000D01*
X16972750Y-14675000D02*
X17082750Y-14675000D01*
D14*
X10015888Y-4413138D02*
X10015888Y-4186862D01*
X9789612Y-4186862D01*
X9789612Y-4413138D01*
X10015888Y-4413138D01*
X10015888Y-13813138D02*
X10015888Y-13586862D01*
X9789612Y-13586862D01*
X9789612Y-13813138D01*
X10015888Y-13813138D01*
X21015888Y-4413138D02*
X21015888Y-4186862D01*
X20789612Y-4186862D01*
X20789612Y-4413138D01*
X21015888Y-4413138D01*
X21015888Y-13813138D02*
X21015888Y-13586862D01*
X20789612Y-13586862D01*
X20789612Y-13813138D01*
X21015888Y-13813138D01*
D15*
X11692750Y-14392500D02*
X11920250Y-14165000D01*
X11692750Y-13937500D01*
X11465250Y-14165000D01*
X11692750Y-14392500D01*
X12412750Y-14392500D02*
X12640250Y-14165000D01*
X12412750Y-13937500D01*
X12185250Y-14165000D01*
X12412750Y-14392500D01*
D11*
X9561027Y-15413984D02*
X9561027Y-15213984D01*
X9561027Y-15213984D02*
X9608646Y-15213984D01*
X9608646Y-15213984D02*
X9637217Y-15223508D01*
X9637217Y-15223508D02*
X9656265Y-15242555D01*
X9656265Y-15242555D02*
X9665789Y-15261603D01*
X9665789Y-15261603D02*
X9675313Y-15299698D01*
X9675313Y-15299698D02*
X9675313Y-15328269D01*
X9675313Y-15328269D02*
X9665789Y-15366365D01*
X9665789Y-15366365D02*
X9656265Y-15385412D01*
X9656265Y-15385412D02*
X9637217Y-15404460D01*
X9637217Y-15404460D02*
X9608646Y-15413984D01*
X9608646Y-15413984D02*
X9561027Y-15413984D01*
X9761027Y-15413984D02*
X9761027Y-15280650D01*
X9761027Y-15318746D02*
X9770551Y-15299698D01*
X9770551Y-15299698D02*
X9780075Y-15290174D01*
X9780075Y-15290174D02*
X9799122Y-15280650D01*
X9799122Y-15280650D02*
X9818170Y-15280650D01*
X9884836Y-15413984D02*
X9884836Y-15280650D01*
X9884836Y-15213984D02*
X9875313Y-15223508D01*
X9875313Y-15223508D02*
X9884836Y-15233031D01*
X9884836Y-15233031D02*
X9894360Y-15223508D01*
X9894360Y-15223508D02*
X9884836Y-15213984D01*
X9884836Y-15213984D02*
X9884836Y-15233031D01*
X10008646Y-15413984D02*
X9989598Y-15404460D01*
X9989598Y-15404460D02*
X9980075Y-15385412D01*
X9980075Y-15385412D02*
X9980075Y-15213984D01*
X10113408Y-15413984D02*
X10094360Y-15404460D01*
X10094360Y-15404460D02*
X10084836Y-15385412D01*
X10084836Y-15385412D02*
X10084836Y-15213984D01*
X10341979Y-15413984D02*
X10341979Y-15213984D01*
X10341979Y-15213984D02*
X10408646Y-15356841D01*
X10408646Y-15356841D02*
X10475313Y-15213984D01*
X10475313Y-15213984D02*
X10475313Y-15413984D01*
X10656265Y-15413984D02*
X10656265Y-15309222D01*
X10656265Y-15309222D02*
X10646741Y-15290174D01*
X10646741Y-15290174D02*
X10627694Y-15280650D01*
X10627694Y-15280650D02*
X10589598Y-15280650D01*
X10589598Y-15280650D02*
X10570551Y-15290174D01*
X10656265Y-15404460D02*
X10637217Y-15413984D01*
X10637217Y-15413984D02*
X10589598Y-15413984D01*
X10589598Y-15413984D02*
X10570551Y-15404460D01*
X10570551Y-15404460D02*
X10561027Y-15385412D01*
X10561027Y-15385412D02*
X10561027Y-15366365D01*
X10561027Y-15366365D02*
X10570551Y-15347317D01*
X10570551Y-15347317D02*
X10589598Y-15337793D01*
X10589598Y-15337793D02*
X10637217Y-15337793D01*
X10637217Y-15337793D02*
X10656265Y-15328269D01*
X10751503Y-15280650D02*
X10751503Y-15480650D01*
X10751503Y-15290174D02*
X10770551Y-15280650D01*
X10770551Y-15280650D02*
X10808646Y-15280650D01*
X10808646Y-15280650D02*
X10827694Y-15290174D01*
X10827694Y-15290174D02*
X10837217Y-15299698D01*
X10837217Y-15299698D02*
X10846741Y-15318746D01*
X10846741Y-15318746D02*
X10846741Y-15375888D01*
X10846741Y-15375888D02*
X10837217Y-15394936D01*
X10837217Y-15394936D02*
X10827694Y-15404460D01*
X10827694Y-15404460D02*
X10808646Y-15413984D01*
X10808646Y-15413984D02*
X10770551Y-15413984D01*
X10770551Y-15413984D02*
X10751503Y-15404460D01*
X10932456Y-15394936D02*
X10941979Y-15404460D01*
X10941979Y-15404460D02*
X10932456Y-15413984D01*
X10932456Y-15413984D02*
X10922932Y-15404460D01*
X10922932Y-15404460D02*
X10932456Y-15394936D01*
X10932456Y-15394936D02*
X10932456Y-15413984D01*
X10932456Y-15290174D02*
X10941979Y-15299698D01*
X10941979Y-15299698D02*
X10932456Y-15309222D01*
X10932456Y-15309222D02*
X10922932Y-15299698D01*
X10922932Y-15299698D02*
X10932456Y-15290174D01*
X10932456Y-15290174D02*
X10932456Y-15309222D01*
D12*
X9270250Y-15727500D02*
X9300250Y-15757500D01*
X9300250Y-15727500D02*
X9270250Y-15757500D01*
D11*
X9599122Y-15633984D02*
X9618170Y-15633984D01*
X9618170Y-15633984D02*
X9637217Y-15643508D01*
X9637217Y-15643508D02*
X9646741Y-15653031D01*
X9646741Y-15653031D02*
X9656265Y-15672079D01*
X9656265Y-15672079D02*
X9665789Y-15710174D01*
X9665789Y-15710174D02*
X9665789Y-15757793D01*
X9665789Y-15757793D02*
X9656265Y-15795888D01*
X9656265Y-15795888D02*
X9646741Y-15814936D01*
X9646741Y-15814936D02*
X9637217Y-15824460D01*
X9637217Y-15824460D02*
X9618170Y-15833984D01*
X9618170Y-15833984D02*
X9599122Y-15833984D01*
X9599122Y-15833984D02*
X9580075Y-15824460D01*
X9580075Y-15824460D02*
X9570551Y-15814936D01*
X9570551Y-15814936D02*
X9561027Y-15795888D01*
X9561027Y-15795888D02*
X9551503Y-15757793D01*
X9551503Y-15757793D02*
X9551503Y-15710174D01*
X9551503Y-15710174D02*
X9561027Y-15672079D01*
X9561027Y-15672079D02*
X9570551Y-15653031D01*
X9570551Y-15653031D02*
X9580075Y-15643508D01*
X9580075Y-15643508D02*
X9599122Y-15633984D01*
X9751503Y-15814936D02*
X9761027Y-15824460D01*
X9761027Y-15824460D02*
X9751503Y-15833984D01*
X9751503Y-15833984D02*
X9741979Y-15824460D01*
X9741979Y-15824460D02*
X9751503Y-15814936D01*
X9751503Y-15814936D02*
X9751503Y-15833984D01*
X9827694Y-15633984D02*
X9951503Y-15633984D01*
X9951503Y-15633984D02*
X9884836Y-15710174D01*
X9884836Y-15710174D02*
X9913408Y-15710174D01*
X9913408Y-15710174D02*
X9932456Y-15719698D01*
X9932456Y-15719698D02*
X9941979Y-15729222D01*
X9941979Y-15729222D02*
X9951503Y-15748269D01*
X9951503Y-15748269D02*
X9951503Y-15795888D01*
X9951503Y-15795888D02*
X9941979Y-15814936D01*
X9941979Y-15814936D02*
X9932456Y-15824460D01*
X9932456Y-15824460D02*
X9913408Y-15833984D01*
X9913408Y-15833984D02*
X9856265Y-15833984D01*
X9856265Y-15833984D02*
X9837217Y-15824460D01*
X9837217Y-15824460D02*
X9827694Y-15814936D01*
X10075313Y-15633984D02*
X10094360Y-15633984D01*
X10094360Y-15633984D02*
X10113408Y-15643508D01*
X10113408Y-15643508D02*
X10122932Y-15653031D01*
X10122932Y-15653031D02*
X10132456Y-15672079D01*
X10132456Y-15672079D02*
X10141979Y-15710174D01*
X10141979Y-15710174D02*
X10141979Y-15757793D01*
X10141979Y-15757793D02*
X10132456Y-15795888D01*
X10132456Y-15795888D02*
X10122932Y-15814936D01*
X10122932Y-15814936D02*
X10113408Y-15824460D01*
X10113408Y-15824460D02*
X10094360Y-15833984D01*
X10094360Y-15833984D02*
X10075313Y-15833984D01*
X10075313Y-15833984D02*
X10056265Y-15824460D01*
X10056265Y-15824460D02*
X10046741Y-15814936D01*
X10046741Y-15814936D02*
X10037217Y-15795888D01*
X10037217Y-15795888D02*
X10027694Y-15757793D01*
X10027694Y-15757793D02*
X10027694Y-15710174D01*
X10027694Y-15710174D02*
X10037217Y-15672079D01*
X10037217Y-15672079D02*
X10046741Y-15653031D01*
X10046741Y-15653031D02*
X10056265Y-15643508D01*
X10056265Y-15643508D02*
X10075313Y-15633984D01*
X10265789Y-15633984D02*
X10284837Y-15633984D01*
X10284837Y-15633984D02*
X10303884Y-15643508D01*
X10303884Y-15643508D02*
X10313408Y-15653031D01*
X10313408Y-15653031D02*
X10322932Y-15672079D01*
X10322932Y-15672079D02*
X10332456Y-15710174D01*
X10332456Y-15710174D02*
X10332456Y-15757793D01*
X10332456Y-15757793D02*
X10322932Y-15795888D01*
X10322932Y-15795888D02*
X10313408Y-15814936D01*
X10313408Y-15814936D02*
X10303884Y-15824460D01*
X10303884Y-15824460D02*
X10284837Y-15833984D01*
X10284837Y-15833984D02*
X10265789Y-15833984D01*
X10265789Y-15833984D02*
X10246741Y-15824460D01*
X10246741Y-15824460D02*
X10237217Y-15814936D01*
X10237217Y-15814936D02*
X10227694Y-15795888D01*
X10227694Y-15795888D02*
X10218170Y-15757793D01*
X10218170Y-15757793D02*
X10218170Y-15710174D01*
X10218170Y-15710174D02*
X10227694Y-15672079D01*
X10227694Y-15672079D02*
X10237217Y-15653031D01*
X10237217Y-15653031D02*
X10246741Y-15643508D01*
X10246741Y-15643508D02*
X10265789Y-15633984D01*
X10418170Y-15833984D02*
X10418170Y-15700650D01*
X10418170Y-15719698D02*
X10427694Y-15710174D01*
X10427694Y-15710174D02*
X10446741Y-15700650D01*
X10446741Y-15700650D02*
X10475313Y-15700650D01*
X10475313Y-15700650D02*
X10494360Y-15710174D01*
X10494360Y-15710174D02*
X10503884Y-15729222D01*
X10503884Y-15729222D02*
X10503884Y-15833984D01*
X10503884Y-15729222D02*
X10513408Y-15710174D01*
X10513408Y-15710174D02*
X10532456Y-15700650D01*
X10532456Y-15700650D02*
X10561027Y-15700650D01*
X10561027Y-15700650D02*
X10580075Y-15710174D01*
X10580075Y-15710174D02*
X10589598Y-15729222D01*
X10589598Y-15729222D02*
X10589598Y-15833984D01*
X10684837Y-15833984D02*
X10684837Y-15700650D01*
X10684837Y-15719698D02*
X10694360Y-15710174D01*
X10694360Y-15710174D02*
X10713408Y-15700650D01*
X10713408Y-15700650D02*
X10741979Y-15700650D01*
X10741979Y-15700650D02*
X10761027Y-15710174D01*
X10761027Y-15710174D02*
X10770551Y-15729222D01*
X10770551Y-15729222D02*
X10770551Y-15833984D01*
X10770551Y-15729222D02*
X10780075Y-15710174D01*
X10780075Y-15710174D02*
X10799122Y-15700650D01*
X10799122Y-15700650D02*
X10827694Y-15700650D01*
X10827694Y-15700650D02*
X10846741Y-15710174D01*
X10846741Y-15710174D02*
X10856265Y-15729222D01*
X10856265Y-15729222D02*
X10856265Y-15833984D01*
X11246741Y-15624460D02*
X11075313Y-15881603D01*
X11503884Y-15633984D02*
X11522932Y-15633984D01*
X11522932Y-15633984D02*
X11541979Y-15643508D01*
X11541979Y-15643508D02*
X11551503Y-15653031D01*
X11551503Y-15653031D02*
X11561027Y-15672079D01*
X11561027Y-15672079D02*
X11570551Y-15710174D01*
X11570551Y-15710174D02*
X11570551Y-15757793D01*
X11570551Y-15757793D02*
X11561027Y-15795888D01*
X11561027Y-15795888D02*
X11551503Y-15814936D01*
X11551503Y-15814936D02*
X11541979Y-15824460D01*
X11541979Y-15824460D02*
X11522932Y-15833984D01*
X11522932Y-15833984D02*
X11503884Y-15833984D01*
X11503884Y-15833984D02*
X11484837Y-15824460D01*
X11484837Y-15824460D02*
X11475313Y-15814936D01*
X11475313Y-15814936D02*
X11465789Y-15795888D01*
X11465789Y-15795888D02*
X11456265Y-15757793D01*
X11456265Y-15757793D02*
X11456265Y-15710174D01*
X11456265Y-15710174D02*
X11465789Y-15672079D01*
X11465789Y-15672079D02*
X11475313Y-15653031D01*
X11475313Y-15653031D02*
X11484837Y-15643508D01*
X11484837Y-15643508D02*
X11503884Y-15633984D01*
X11656265Y-15814936D02*
X11665789Y-15824460D01*
X11665789Y-15824460D02*
X11656265Y-15833984D01*
X11656265Y-15833984D02*
X11646741Y-15824460D01*
X11646741Y-15824460D02*
X11656265Y-15814936D01*
X11656265Y-15814936D02*
X11656265Y-15833984D01*
X11789598Y-15633984D02*
X11808646Y-15633984D01*
X11808646Y-15633984D02*
X11827694Y-15643508D01*
X11827694Y-15643508D02*
X11837218Y-15653031D01*
X11837218Y-15653031D02*
X11846741Y-15672079D01*
X11846741Y-15672079D02*
X11856265Y-15710174D01*
X11856265Y-15710174D02*
X11856265Y-15757793D01*
X11856265Y-15757793D02*
X11846741Y-15795888D01*
X11846741Y-15795888D02*
X11837218Y-15814936D01*
X11837218Y-15814936D02*
X11827694Y-15824460D01*
X11827694Y-15824460D02*
X11808646Y-15833984D01*
X11808646Y-15833984D02*
X11789598Y-15833984D01*
X11789598Y-15833984D02*
X11770551Y-15824460D01*
X11770551Y-15824460D02*
X11761027Y-15814936D01*
X11761027Y-15814936D02*
X11751503Y-15795888D01*
X11751503Y-15795888D02*
X11741979Y-15757793D01*
X11741979Y-15757793D02*
X11741979Y-15710174D01*
X11741979Y-15710174D02*
X11751503Y-15672079D01*
X11751503Y-15672079D02*
X11761027Y-15653031D01*
X11761027Y-15653031D02*
X11770551Y-15643508D01*
X11770551Y-15643508D02*
X11789598Y-15633984D01*
X12046741Y-15833984D02*
X11932456Y-15833984D01*
X11989598Y-15833984D02*
X11989598Y-15633984D01*
X11989598Y-15633984D02*
X11970551Y-15662555D01*
X11970551Y-15662555D02*
X11951503Y-15681603D01*
X11951503Y-15681603D02*
X11932456Y-15691127D01*
X12237218Y-15833984D02*
X12122932Y-15833984D01*
X12180075Y-15833984D02*
X12180075Y-15633984D01*
X12180075Y-15633984D02*
X12161027Y-15662555D01*
X12161027Y-15662555D02*
X12141979Y-15681603D01*
X12141979Y-15681603D02*
X12122932Y-15691127D01*
X12351503Y-15719698D02*
X12332456Y-15710174D01*
X12332456Y-15710174D02*
X12322932Y-15700650D01*
X12322932Y-15700650D02*
X12313408Y-15681603D01*
X12313408Y-15681603D02*
X12313408Y-15672079D01*
X12313408Y-15672079D02*
X12322932Y-15653031D01*
X12322932Y-15653031D02*
X12332456Y-15643508D01*
X12332456Y-15643508D02*
X12351503Y-15633984D01*
X12351503Y-15633984D02*
X12389599Y-15633984D01*
X12389599Y-15633984D02*
X12408646Y-15643508D01*
X12408646Y-15643508D02*
X12418170Y-15653031D01*
X12418170Y-15653031D02*
X12427694Y-15672079D01*
X12427694Y-15672079D02*
X12427694Y-15681603D01*
X12427694Y-15681603D02*
X12418170Y-15700650D01*
X12418170Y-15700650D02*
X12408646Y-15710174D01*
X12408646Y-15710174D02*
X12389599Y-15719698D01*
X12389599Y-15719698D02*
X12351503Y-15719698D01*
X12351503Y-15719698D02*
X12332456Y-15729222D01*
X12332456Y-15729222D02*
X12322932Y-15738746D01*
X12322932Y-15738746D02*
X12313408Y-15757793D01*
X12313408Y-15757793D02*
X12313408Y-15795888D01*
X12313408Y-15795888D02*
X12322932Y-15814936D01*
X12322932Y-15814936D02*
X12332456Y-15824460D01*
X12332456Y-15824460D02*
X12351503Y-15833984D01*
X12351503Y-15833984D02*
X12389599Y-15833984D01*
X12389599Y-15833984D02*
X12408646Y-15824460D01*
X12408646Y-15824460D02*
X12418170Y-15814936D01*
X12418170Y-15814936D02*
X12427694Y-15795888D01*
X12427694Y-15795888D02*
X12427694Y-15757793D01*
X12427694Y-15757793D02*
X12418170Y-15738746D01*
X12418170Y-15738746D02*
X12408646Y-15729222D01*
X12408646Y-15729222D02*
X12389599Y-15719698D01*
X12503884Y-15633984D02*
X12503884Y-15672079D01*
X12580075Y-15633984D02*
X12580075Y-15672079D01*
X12875313Y-15910174D02*
X12865789Y-15900650D01*
X12865789Y-15900650D02*
X12846741Y-15872079D01*
X12846741Y-15872079D02*
X12837218Y-15853031D01*
X12837218Y-15853031D02*
X12827694Y-15824460D01*
X12827694Y-15824460D02*
X12818170Y-15776841D01*
X12818170Y-15776841D02*
X12818170Y-15738746D01*
X12818170Y-15738746D02*
X12827694Y-15691127D01*
X12827694Y-15691127D02*
X12837218Y-15662555D01*
X12837218Y-15662555D02*
X12846741Y-15643508D01*
X12846741Y-15643508D02*
X12865789Y-15614936D01*
X12865789Y-15614936D02*
X12875313Y-15605412D01*
X13037218Y-15633984D02*
X12999122Y-15633984D01*
X12999122Y-15633984D02*
X12980075Y-15643508D01*
X12980075Y-15643508D02*
X12970551Y-15653031D01*
X12970551Y-15653031D02*
X12951503Y-15681603D01*
X12951503Y-15681603D02*
X12941980Y-15719698D01*
X12941980Y-15719698D02*
X12941980Y-15795888D01*
X12941980Y-15795888D02*
X12951503Y-15814936D01*
X12951503Y-15814936D02*
X12961027Y-15824460D01*
X12961027Y-15824460D02*
X12980075Y-15833984D01*
X12980075Y-15833984D02*
X13018170Y-15833984D01*
X13018170Y-15833984D02*
X13037218Y-15824460D01*
X13037218Y-15824460D02*
X13046741Y-15814936D01*
X13046741Y-15814936D02*
X13056265Y-15795888D01*
X13056265Y-15795888D02*
X13056265Y-15748269D01*
X13056265Y-15748269D02*
X13046741Y-15729222D01*
X13046741Y-15729222D02*
X13037218Y-15719698D01*
X13037218Y-15719698D02*
X13018170Y-15710174D01*
X13018170Y-15710174D02*
X12980075Y-15710174D01*
X12980075Y-15710174D02*
X12961027Y-15719698D01*
X12961027Y-15719698D02*
X12951503Y-15729222D01*
X12951503Y-15729222D02*
X12941980Y-15748269D01*
X13237218Y-15633984D02*
X13141980Y-15633984D01*
X13141980Y-15633984D02*
X13132456Y-15729222D01*
X13132456Y-15729222D02*
X13141980Y-15719698D01*
X13141980Y-15719698D02*
X13161027Y-15710174D01*
X13161027Y-15710174D02*
X13208646Y-15710174D01*
X13208646Y-15710174D02*
X13227694Y-15719698D01*
X13227694Y-15719698D02*
X13237218Y-15729222D01*
X13237218Y-15729222D02*
X13246741Y-15748269D01*
X13246741Y-15748269D02*
X13246741Y-15795888D01*
X13246741Y-15795888D02*
X13237218Y-15814936D01*
X13237218Y-15814936D02*
X13227694Y-15824460D01*
X13227694Y-15824460D02*
X13208646Y-15833984D01*
X13208646Y-15833984D02*
X13161027Y-15833984D01*
X13161027Y-15833984D02*
X13141980Y-15824460D01*
X13141980Y-15824460D02*
X13132456Y-15814936D01*
X13418170Y-15700650D02*
X13418170Y-15833984D01*
X13370551Y-15624460D02*
X13322932Y-15767317D01*
X13322932Y-15767317D02*
X13446741Y-15767317D01*
X13675313Y-15833984D02*
X13675313Y-15633984D01*
X13761027Y-15833984D02*
X13761027Y-15729222D01*
X13761027Y-15729222D02*
X13751503Y-15710174D01*
X13751503Y-15710174D02*
X13732456Y-15700650D01*
X13732456Y-15700650D02*
X13703884Y-15700650D01*
X13703884Y-15700650D02*
X13684837Y-15710174D01*
X13684837Y-15710174D02*
X13675313Y-15719698D01*
X13884837Y-15833984D02*
X13865789Y-15824460D01*
X13865789Y-15824460D02*
X13856265Y-15814936D01*
X13856265Y-15814936D02*
X13846742Y-15795888D01*
X13846742Y-15795888D02*
X13846742Y-15738746D01*
X13846742Y-15738746D02*
X13856265Y-15719698D01*
X13856265Y-15719698D02*
X13865789Y-15710174D01*
X13865789Y-15710174D02*
X13884837Y-15700650D01*
X13884837Y-15700650D02*
X13913408Y-15700650D01*
X13913408Y-15700650D02*
X13932456Y-15710174D01*
X13932456Y-15710174D02*
X13941980Y-15719698D01*
X13941980Y-15719698D02*
X13951503Y-15738746D01*
X13951503Y-15738746D02*
X13951503Y-15795888D01*
X13951503Y-15795888D02*
X13941980Y-15814936D01*
X13941980Y-15814936D02*
X13932456Y-15824460D01*
X13932456Y-15824460D02*
X13913408Y-15833984D01*
X13913408Y-15833984D02*
X13884837Y-15833984D01*
X14065789Y-15833984D02*
X14046742Y-15824460D01*
X14046742Y-15824460D02*
X14037218Y-15805412D01*
X14037218Y-15805412D02*
X14037218Y-15633984D01*
X14218170Y-15824460D02*
X14199123Y-15833984D01*
X14199123Y-15833984D02*
X14161027Y-15833984D01*
X14161027Y-15833984D02*
X14141980Y-15824460D01*
X14141980Y-15824460D02*
X14132456Y-15805412D01*
X14132456Y-15805412D02*
X14132456Y-15729222D01*
X14132456Y-15729222D02*
X14141980Y-15710174D01*
X14141980Y-15710174D02*
X14161027Y-15700650D01*
X14161027Y-15700650D02*
X14199123Y-15700650D01*
X14199123Y-15700650D02*
X14218170Y-15710174D01*
X14218170Y-15710174D02*
X14227694Y-15729222D01*
X14227694Y-15729222D02*
X14227694Y-15748269D01*
X14227694Y-15748269D02*
X14132456Y-15767317D01*
X14303884Y-15824460D02*
X14322932Y-15833984D01*
X14322932Y-15833984D02*
X14361027Y-15833984D01*
X14361027Y-15833984D02*
X14380075Y-15824460D01*
X14380075Y-15824460D02*
X14389599Y-15805412D01*
X14389599Y-15805412D02*
X14389599Y-15795888D01*
X14389599Y-15795888D02*
X14380075Y-15776841D01*
X14380075Y-15776841D02*
X14361027Y-15767317D01*
X14361027Y-15767317D02*
X14332456Y-15767317D01*
X14332456Y-15767317D02*
X14313408Y-15757793D01*
X14313408Y-15757793D02*
X14303884Y-15738746D01*
X14303884Y-15738746D02*
X14303884Y-15729222D01*
X14303884Y-15729222D02*
X14313408Y-15710174D01*
X14313408Y-15710174D02*
X14332456Y-15700650D01*
X14332456Y-15700650D02*
X14361027Y-15700650D01*
X14361027Y-15700650D02*
X14380075Y-15710174D01*
X14456265Y-15910174D02*
X14465789Y-15900650D01*
X14465789Y-15900650D02*
X14484837Y-15872079D01*
X14484837Y-15872079D02*
X14494361Y-15853031D01*
X14494361Y-15853031D02*
X14503884Y-15824460D01*
X14503884Y-15824460D02*
X14513408Y-15776841D01*
X14513408Y-15776841D02*
X14513408Y-15738746D01*
X14513408Y-15738746D02*
X14503884Y-15691127D01*
X14503884Y-15691127D02*
X14494361Y-15662555D01*
X14494361Y-15662555D02*
X14484837Y-15643508D01*
X14484837Y-15643508D02*
X14465789Y-15614936D01*
X14465789Y-15614936D02*
X14456265Y-15605412D01*
D12*
X9300250Y-16006500D02*
G75*
G02*
X9200250Y-16006500I-50000J0D01*
G01*
X9200250Y-16006500D02*
G75*
G02*
X9300250Y-16006500I50000J0D01*
G01*
D11*
X9665789Y-16097984D02*
X9551503Y-16097984D01*
X9608646Y-16097984D02*
X9608646Y-15897984D01*
X9608646Y-15897984D02*
X9589598Y-15926555D01*
X9589598Y-15926555D02*
X9570551Y-15945603D01*
X9570551Y-15945603D02*
X9551503Y-15955127D01*
X9751503Y-16078936D02*
X9761027Y-16088460D01*
X9761027Y-16088460D02*
X9751503Y-16097984D01*
X9751503Y-16097984D02*
X9741979Y-16088460D01*
X9741979Y-16088460D02*
X9751503Y-16078936D01*
X9751503Y-16078936D02*
X9751503Y-16097984D01*
X9884836Y-15897984D02*
X9903884Y-15897984D01*
X9903884Y-15897984D02*
X9922932Y-15907508D01*
X9922932Y-15907508D02*
X9932456Y-15917031D01*
X9932456Y-15917031D02*
X9941979Y-15936079D01*
X9941979Y-15936079D02*
X9951503Y-15974174D01*
X9951503Y-15974174D02*
X9951503Y-16021793D01*
X9951503Y-16021793D02*
X9941979Y-16059888D01*
X9941979Y-16059888D02*
X9932456Y-16078936D01*
X9932456Y-16078936D02*
X9922932Y-16088460D01*
X9922932Y-16088460D02*
X9903884Y-16097984D01*
X9903884Y-16097984D02*
X9884836Y-16097984D01*
X9884836Y-16097984D02*
X9865789Y-16088460D01*
X9865789Y-16088460D02*
X9856265Y-16078936D01*
X9856265Y-16078936D02*
X9846741Y-16059888D01*
X9846741Y-16059888D02*
X9837217Y-16021793D01*
X9837217Y-16021793D02*
X9837217Y-15974174D01*
X9837217Y-15974174D02*
X9846741Y-15936079D01*
X9846741Y-15936079D02*
X9856265Y-15917031D01*
X9856265Y-15917031D02*
X9865789Y-15907508D01*
X9865789Y-15907508D02*
X9884836Y-15897984D01*
X10075313Y-15897984D02*
X10094360Y-15897984D01*
X10094360Y-15897984D02*
X10113408Y-15907508D01*
X10113408Y-15907508D02*
X10122932Y-15917031D01*
X10122932Y-15917031D02*
X10132456Y-15936079D01*
X10132456Y-15936079D02*
X10141979Y-15974174D01*
X10141979Y-15974174D02*
X10141979Y-16021793D01*
X10141979Y-16021793D02*
X10132456Y-16059888D01*
X10132456Y-16059888D02*
X10122932Y-16078936D01*
X10122932Y-16078936D02*
X10113408Y-16088460D01*
X10113408Y-16088460D02*
X10094360Y-16097984D01*
X10094360Y-16097984D02*
X10075313Y-16097984D01*
X10075313Y-16097984D02*
X10056265Y-16088460D01*
X10056265Y-16088460D02*
X10046741Y-16078936D01*
X10046741Y-16078936D02*
X10037217Y-16059888D01*
X10037217Y-16059888D02*
X10027694Y-16021793D01*
X10027694Y-16021793D02*
X10027694Y-15974174D01*
X10027694Y-15974174D02*
X10037217Y-15936079D01*
X10037217Y-15936079D02*
X10046741Y-15917031D01*
X10046741Y-15917031D02*
X10056265Y-15907508D01*
X10056265Y-15907508D02*
X10075313Y-15897984D01*
X10265789Y-15897984D02*
X10284837Y-15897984D01*
X10284837Y-15897984D02*
X10303884Y-15907508D01*
X10303884Y-15907508D02*
X10313408Y-15917031D01*
X10313408Y-15917031D02*
X10322932Y-15936079D01*
X10322932Y-15936079D02*
X10332456Y-15974174D01*
X10332456Y-15974174D02*
X10332456Y-16021793D01*
X10332456Y-16021793D02*
X10322932Y-16059888D01*
X10322932Y-16059888D02*
X10313408Y-16078936D01*
X10313408Y-16078936D02*
X10303884Y-16088460D01*
X10303884Y-16088460D02*
X10284837Y-16097984D01*
X10284837Y-16097984D02*
X10265789Y-16097984D01*
X10265789Y-16097984D02*
X10246741Y-16088460D01*
X10246741Y-16088460D02*
X10237217Y-16078936D01*
X10237217Y-16078936D02*
X10227694Y-16059888D01*
X10227694Y-16059888D02*
X10218170Y-16021793D01*
X10218170Y-16021793D02*
X10218170Y-15974174D01*
X10218170Y-15974174D02*
X10227694Y-15936079D01*
X10227694Y-15936079D02*
X10237217Y-15917031D01*
X10237217Y-15917031D02*
X10246741Y-15907508D01*
X10246741Y-15907508D02*
X10265789Y-15897984D01*
X10418170Y-16097984D02*
X10418170Y-15964650D01*
X10418170Y-15983698D02*
X10427694Y-15974174D01*
X10427694Y-15974174D02*
X10446741Y-15964650D01*
X10446741Y-15964650D02*
X10475313Y-15964650D01*
X10475313Y-15964650D02*
X10494360Y-15974174D01*
X10494360Y-15974174D02*
X10503884Y-15993222D01*
X10503884Y-15993222D02*
X10503884Y-16097984D01*
X10503884Y-15993222D02*
X10513408Y-15974174D01*
X10513408Y-15974174D02*
X10532456Y-15964650D01*
X10532456Y-15964650D02*
X10561027Y-15964650D01*
X10561027Y-15964650D02*
X10580075Y-15974174D01*
X10580075Y-15974174D02*
X10589598Y-15993222D01*
X10589598Y-15993222D02*
X10589598Y-16097984D01*
X10684837Y-16097984D02*
X10684837Y-15964650D01*
X10684837Y-15983698D02*
X10694360Y-15974174D01*
X10694360Y-15974174D02*
X10713408Y-15964650D01*
X10713408Y-15964650D02*
X10741979Y-15964650D01*
X10741979Y-15964650D02*
X10761027Y-15974174D01*
X10761027Y-15974174D02*
X10770551Y-15993222D01*
X10770551Y-15993222D02*
X10770551Y-16097984D01*
X10770551Y-15993222D02*
X10780075Y-15974174D01*
X10780075Y-15974174D02*
X10799122Y-15964650D01*
X10799122Y-15964650D02*
X10827694Y-15964650D01*
X10827694Y-15964650D02*
X10846741Y-15974174D01*
X10846741Y-15974174D02*
X10856265Y-15993222D01*
X10856265Y-15993222D02*
X10856265Y-16097984D01*
X11246741Y-15888460D02*
X11075313Y-16145603D01*
X11503884Y-15897984D02*
X11522932Y-15897984D01*
X11522932Y-15897984D02*
X11541979Y-15907508D01*
X11541979Y-15907508D02*
X11551503Y-15917031D01*
X11551503Y-15917031D02*
X11561027Y-15936079D01*
X11561027Y-15936079D02*
X11570551Y-15974174D01*
X11570551Y-15974174D02*
X11570551Y-16021793D01*
X11570551Y-16021793D02*
X11561027Y-16059888D01*
X11561027Y-16059888D02*
X11551503Y-16078936D01*
X11551503Y-16078936D02*
X11541979Y-16088460D01*
X11541979Y-16088460D02*
X11522932Y-16097984D01*
X11522932Y-16097984D02*
X11503884Y-16097984D01*
X11503884Y-16097984D02*
X11484837Y-16088460D01*
X11484837Y-16088460D02*
X11475313Y-16078936D01*
X11475313Y-16078936D02*
X11465789Y-16059888D01*
X11465789Y-16059888D02*
X11456265Y-16021793D01*
X11456265Y-16021793D02*
X11456265Y-15974174D01*
X11456265Y-15974174D02*
X11465789Y-15936079D01*
X11465789Y-15936079D02*
X11475313Y-15917031D01*
X11475313Y-15917031D02*
X11484837Y-15907508D01*
X11484837Y-15907508D02*
X11503884Y-15897984D01*
X11656265Y-16078936D02*
X11665789Y-16088460D01*
X11665789Y-16088460D02*
X11656265Y-16097984D01*
X11656265Y-16097984D02*
X11646741Y-16088460D01*
X11646741Y-16088460D02*
X11656265Y-16078936D01*
X11656265Y-16078936D02*
X11656265Y-16097984D01*
X11789598Y-15897984D02*
X11808646Y-15897984D01*
X11808646Y-15897984D02*
X11827694Y-15907508D01*
X11827694Y-15907508D02*
X11837218Y-15917031D01*
X11837218Y-15917031D02*
X11846741Y-15936079D01*
X11846741Y-15936079D02*
X11856265Y-15974174D01*
X11856265Y-15974174D02*
X11856265Y-16021793D01*
X11856265Y-16021793D02*
X11846741Y-16059888D01*
X11846741Y-16059888D02*
X11837218Y-16078936D01*
X11837218Y-16078936D02*
X11827694Y-16088460D01*
X11827694Y-16088460D02*
X11808646Y-16097984D01*
X11808646Y-16097984D02*
X11789598Y-16097984D01*
X11789598Y-16097984D02*
X11770551Y-16088460D01*
X11770551Y-16088460D02*
X11761027Y-16078936D01*
X11761027Y-16078936D02*
X11751503Y-16059888D01*
X11751503Y-16059888D02*
X11741979Y-16021793D01*
X11741979Y-16021793D02*
X11741979Y-15974174D01*
X11741979Y-15974174D02*
X11751503Y-15936079D01*
X11751503Y-15936079D02*
X11761027Y-15917031D01*
X11761027Y-15917031D02*
X11770551Y-15907508D01*
X11770551Y-15907508D02*
X11789598Y-15897984D01*
X11922932Y-15897984D02*
X12046741Y-15897984D01*
X12046741Y-15897984D02*
X11980075Y-15974174D01*
X11980075Y-15974174D02*
X12008646Y-15974174D01*
X12008646Y-15974174D02*
X12027694Y-15983698D01*
X12027694Y-15983698D02*
X12037218Y-15993222D01*
X12037218Y-15993222D02*
X12046741Y-16012269D01*
X12046741Y-16012269D02*
X12046741Y-16059888D01*
X12046741Y-16059888D02*
X12037218Y-16078936D01*
X12037218Y-16078936D02*
X12027694Y-16088460D01*
X12027694Y-16088460D02*
X12008646Y-16097984D01*
X12008646Y-16097984D02*
X11951503Y-16097984D01*
X11951503Y-16097984D02*
X11932456Y-16088460D01*
X11932456Y-16088460D02*
X11922932Y-16078936D01*
X12141979Y-16097984D02*
X12180075Y-16097984D01*
X12180075Y-16097984D02*
X12199122Y-16088460D01*
X12199122Y-16088460D02*
X12208646Y-16078936D01*
X12208646Y-16078936D02*
X12227694Y-16050365D01*
X12227694Y-16050365D02*
X12237218Y-16012269D01*
X12237218Y-16012269D02*
X12237218Y-15936079D01*
X12237218Y-15936079D02*
X12227694Y-15917031D01*
X12227694Y-15917031D02*
X12218170Y-15907508D01*
X12218170Y-15907508D02*
X12199122Y-15897984D01*
X12199122Y-15897984D02*
X12161027Y-15897984D01*
X12161027Y-15897984D02*
X12141979Y-15907508D01*
X12141979Y-15907508D02*
X12132456Y-15917031D01*
X12132456Y-15917031D02*
X12122932Y-15936079D01*
X12122932Y-15936079D02*
X12122932Y-15983698D01*
X12122932Y-15983698D02*
X12132456Y-16002746D01*
X12132456Y-16002746D02*
X12141979Y-16012269D01*
X12141979Y-16012269D02*
X12161027Y-16021793D01*
X12161027Y-16021793D02*
X12199122Y-16021793D01*
X12199122Y-16021793D02*
X12218170Y-16012269D01*
X12218170Y-16012269D02*
X12227694Y-16002746D01*
X12227694Y-16002746D02*
X12237218Y-15983698D01*
X12408646Y-15964650D02*
X12408646Y-16097984D01*
X12361027Y-15888460D02*
X12313408Y-16031317D01*
X12313408Y-16031317D02*
X12437218Y-16031317D01*
X12503884Y-15897984D02*
X12503884Y-15936079D01*
X12580075Y-15897984D02*
X12580075Y-15936079D01*
X12875313Y-16174174D02*
X12865789Y-16164650D01*
X12865789Y-16164650D02*
X12846741Y-16136079D01*
X12846741Y-16136079D02*
X12837218Y-16117031D01*
X12837218Y-16117031D02*
X12827694Y-16088460D01*
X12827694Y-16088460D02*
X12818170Y-16040841D01*
X12818170Y-16040841D02*
X12818170Y-16002746D01*
X12818170Y-16002746D02*
X12827694Y-15955127D01*
X12827694Y-15955127D02*
X12837218Y-15926555D01*
X12837218Y-15926555D02*
X12846741Y-15907508D01*
X12846741Y-15907508D02*
X12865789Y-15878936D01*
X12865789Y-15878936D02*
X12875313Y-15869412D01*
X13056265Y-16097984D02*
X12941980Y-16097984D01*
X12999122Y-16097984D02*
X12999122Y-15897984D01*
X12999122Y-15897984D02*
X12980075Y-15926555D01*
X12980075Y-15926555D02*
X12961027Y-15945603D01*
X12961027Y-15945603D02*
X12941980Y-15955127D01*
X13122932Y-15897984D02*
X13246741Y-15897984D01*
X13246741Y-15897984D02*
X13180075Y-15974174D01*
X13180075Y-15974174D02*
X13208646Y-15974174D01*
X13208646Y-15974174D02*
X13227694Y-15983698D01*
X13227694Y-15983698D02*
X13237218Y-15993222D01*
X13237218Y-15993222D02*
X13246741Y-16012269D01*
X13246741Y-16012269D02*
X13246741Y-16059888D01*
X13246741Y-16059888D02*
X13237218Y-16078936D01*
X13237218Y-16078936D02*
X13227694Y-16088460D01*
X13227694Y-16088460D02*
X13208646Y-16097984D01*
X13208646Y-16097984D02*
X13151503Y-16097984D01*
X13151503Y-16097984D02*
X13132456Y-16088460D01*
X13132456Y-16088460D02*
X13122932Y-16078936D01*
X13484837Y-16097984D02*
X13484837Y-15897984D01*
X13570551Y-16097984D02*
X13570551Y-15993222D01*
X13570551Y-15993222D02*
X13561027Y-15974174D01*
X13561027Y-15974174D02*
X13541980Y-15964650D01*
X13541980Y-15964650D02*
X13513408Y-15964650D01*
X13513408Y-15964650D02*
X13494361Y-15974174D01*
X13494361Y-15974174D02*
X13484837Y-15983698D01*
X13694361Y-16097984D02*
X13675313Y-16088460D01*
X13675313Y-16088460D02*
X13665789Y-16078936D01*
X13665789Y-16078936D02*
X13656265Y-16059888D01*
X13656265Y-16059888D02*
X13656265Y-16002746D01*
X13656265Y-16002746D02*
X13665789Y-15983698D01*
X13665789Y-15983698D02*
X13675313Y-15974174D01*
X13675313Y-15974174D02*
X13694361Y-15964650D01*
X13694361Y-15964650D02*
X13722932Y-15964650D01*
X13722932Y-15964650D02*
X13741980Y-15974174D01*
X13741980Y-15974174D02*
X13751503Y-15983698D01*
X13751503Y-15983698D02*
X13761027Y-16002746D01*
X13761027Y-16002746D02*
X13761027Y-16059888D01*
X13761027Y-16059888D02*
X13751503Y-16078936D01*
X13751503Y-16078936D02*
X13741980Y-16088460D01*
X13741980Y-16088460D02*
X13722932Y-16097984D01*
X13722932Y-16097984D02*
X13694361Y-16097984D01*
X13875313Y-16097984D02*
X13856265Y-16088460D01*
X13856265Y-16088460D02*
X13846742Y-16069412D01*
X13846742Y-16069412D02*
X13846742Y-15897984D01*
X14027694Y-16088460D02*
X14008646Y-16097984D01*
X14008646Y-16097984D02*
X13970551Y-16097984D01*
X13970551Y-16097984D02*
X13951503Y-16088460D01*
X13951503Y-16088460D02*
X13941980Y-16069412D01*
X13941980Y-16069412D02*
X13941980Y-15993222D01*
X13941980Y-15993222D02*
X13951503Y-15974174D01*
X13951503Y-15974174D02*
X13970551Y-15964650D01*
X13970551Y-15964650D02*
X14008646Y-15964650D01*
X14008646Y-15964650D02*
X14027694Y-15974174D01*
X14027694Y-15974174D02*
X14037218Y-15993222D01*
X14037218Y-15993222D02*
X14037218Y-16012269D01*
X14037218Y-16012269D02*
X13941980Y-16031317D01*
X14113408Y-16088460D02*
X14132456Y-16097984D01*
X14132456Y-16097984D02*
X14170551Y-16097984D01*
X14170551Y-16097984D02*
X14189599Y-16088460D01*
X14189599Y-16088460D02*
X14199123Y-16069412D01*
X14199123Y-16069412D02*
X14199123Y-16059888D01*
X14199123Y-16059888D02*
X14189599Y-16040841D01*
X14189599Y-16040841D02*
X14170551Y-16031317D01*
X14170551Y-16031317D02*
X14141980Y-16031317D01*
X14141980Y-16031317D02*
X14122932Y-16021793D01*
X14122932Y-16021793D02*
X14113408Y-16002746D01*
X14113408Y-16002746D02*
X14113408Y-15993222D01*
X14113408Y-15993222D02*
X14122932Y-15974174D01*
X14122932Y-15974174D02*
X14141980Y-15964650D01*
X14141980Y-15964650D02*
X14170551Y-15964650D01*
X14170551Y-15964650D02*
X14189599Y-15974174D01*
X14265789Y-16174174D02*
X14275313Y-16164650D01*
X14275313Y-16164650D02*
X14294361Y-16136079D01*
X14294361Y-16136079D02*
X14303884Y-16117031D01*
X14303884Y-16117031D02*
X14313408Y-16088460D01*
X14313408Y-16088460D02*
X14322932Y-16040841D01*
X14322932Y-16040841D02*
X14322932Y-16002746D01*
X14322932Y-16002746D02*
X14313408Y-15955127D01*
X14313408Y-15955127D02*
X14303884Y-15926555D01*
X14303884Y-15926555D02*
X14294361Y-15907508D01*
X14294361Y-15907508D02*
X14275313Y-15878936D01*
X14275313Y-15878936D02*
X14265789Y-15869412D01*
D13*
X9245250Y-16215500D02*
X9245250Y-16325500D01*
X9190250Y-16270500D02*
X9300250Y-16270500D01*
D11*
X9665789Y-16361984D02*
X9551503Y-16361984D01*
X9608646Y-16361984D02*
X9608646Y-16161984D01*
X9608646Y-16161984D02*
X9589598Y-16190555D01*
X9589598Y-16190555D02*
X9570551Y-16209603D01*
X9570551Y-16209603D02*
X9551503Y-16219127D01*
X9751503Y-16342936D02*
X9761027Y-16352460D01*
X9761027Y-16352460D02*
X9751503Y-16361984D01*
X9751503Y-16361984D02*
X9741979Y-16352460D01*
X9741979Y-16352460D02*
X9751503Y-16342936D01*
X9751503Y-16342936D02*
X9751503Y-16361984D01*
X9951503Y-16361984D02*
X9837217Y-16361984D01*
X9894360Y-16361984D02*
X9894360Y-16161984D01*
X9894360Y-16161984D02*
X9875313Y-16190555D01*
X9875313Y-16190555D02*
X9856265Y-16209603D01*
X9856265Y-16209603D02*
X9837217Y-16219127D01*
X10075313Y-16161984D02*
X10094360Y-16161984D01*
X10094360Y-16161984D02*
X10113408Y-16171508D01*
X10113408Y-16171508D02*
X10122932Y-16181031D01*
X10122932Y-16181031D02*
X10132456Y-16200079D01*
X10132456Y-16200079D02*
X10141979Y-16238174D01*
X10141979Y-16238174D02*
X10141979Y-16285793D01*
X10141979Y-16285793D02*
X10132456Y-16323888D01*
X10132456Y-16323888D02*
X10122932Y-16342936D01*
X10122932Y-16342936D02*
X10113408Y-16352460D01*
X10113408Y-16352460D02*
X10094360Y-16361984D01*
X10094360Y-16361984D02*
X10075313Y-16361984D01*
X10075313Y-16361984D02*
X10056265Y-16352460D01*
X10056265Y-16352460D02*
X10046741Y-16342936D01*
X10046741Y-16342936D02*
X10037217Y-16323888D01*
X10037217Y-16323888D02*
X10027694Y-16285793D01*
X10027694Y-16285793D02*
X10027694Y-16238174D01*
X10027694Y-16238174D02*
X10037217Y-16200079D01*
X10037217Y-16200079D02*
X10046741Y-16181031D01*
X10046741Y-16181031D02*
X10056265Y-16171508D01*
X10056265Y-16171508D02*
X10075313Y-16161984D01*
X10265789Y-16161984D02*
X10284837Y-16161984D01*
X10284837Y-16161984D02*
X10303884Y-16171508D01*
X10303884Y-16171508D02*
X10313408Y-16181031D01*
X10313408Y-16181031D02*
X10322932Y-16200079D01*
X10322932Y-16200079D02*
X10332456Y-16238174D01*
X10332456Y-16238174D02*
X10332456Y-16285793D01*
X10332456Y-16285793D02*
X10322932Y-16323888D01*
X10322932Y-16323888D02*
X10313408Y-16342936D01*
X10313408Y-16342936D02*
X10303884Y-16352460D01*
X10303884Y-16352460D02*
X10284837Y-16361984D01*
X10284837Y-16361984D02*
X10265789Y-16361984D01*
X10265789Y-16361984D02*
X10246741Y-16352460D01*
X10246741Y-16352460D02*
X10237217Y-16342936D01*
X10237217Y-16342936D02*
X10227694Y-16323888D01*
X10227694Y-16323888D02*
X10218170Y-16285793D01*
X10218170Y-16285793D02*
X10218170Y-16238174D01*
X10218170Y-16238174D02*
X10227694Y-16200079D01*
X10227694Y-16200079D02*
X10237217Y-16181031D01*
X10237217Y-16181031D02*
X10246741Y-16171508D01*
X10246741Y-16171508D02*
X10265789Y-16161984D01*
X10418170Y-16361984D02*
X10418170Y-16228650D01*
X10418170Y-16247698D02*
X10427694Y-16238174D01*
X10427694Y-16238174D02*
X10446741Y-16228650D01*
X10446741Y-16228650D02*
X10475313Y-16228650D01*
X10475313Y-16228650D02*
X10494360Y-16238174D01*
X10494360Y-16238174D02*
X10503884Y-16257222D01*
X10503884Y-16257222D02*
X10503884Y-16361984D01*
X10503884Y-16257222D02*
X10513408Y-16238174D01*
X10513408Y-16238174D02*
X10532456Y-16228650D01*
X10532456Y-16228650D02*
X10561027Y-16228650D01*
X10561027Y-16228650D02*
X10580075Y-16238174D01*
X10580075Y-16238174D02*
X10589598Y-16257222D01*
X10589598Y-16257222D02*
X10589598Y-16361984D01*
X10684837Y-16361984D02*
X10684837Y-16228650D01*
X10684837Y-16247698D02*
X10694360Y-16238174D01*
X10694360Y-16238174D02*
X10713408Y-16228650D01*
X10713408Y-16228650D02*
X10741979Y-16228650D01*
X10741979Y-16228650D02*
X10761027Y-16238174D01*
X10761027Y-16238174D02*
X10770551Y-16257222D01*
X10770551Y-16257222D02*
X10770551Y-16361984D01*
X10770551Y-16257222D02*
X10780075Y-16238174D01*
X10780075Y-16238174D02*
X10799122Y-16228650D01*
X10799122Y-16228650D02*
X10827694Y-16228650D01*
X10827694Y-16228650D02*
X10846741Y-16238174D01*
X10846741Y-16238174D02*
X10856265Y-16257222D01*
X10856265Y-16257222D02*
X10856265Y-16361984D01*
X11246741Y-16152460D02*
X11075313Y-16409603D01*
X11503884Y-16161984D02*
X11522932Y-16161984D01*
X11522932Y-16161984D02*
X11541979Y-16171508D01*
X11541979Y-16171508D02*
X11551503Y-16181031D01*
X11551503Y-16181031D02*
X11561027Y-16200079D01*
X11561027Y-16200079D02*
X11570551Y-16238174D01*
X11570551Y-16238174D02*
X11570551Y-16285793D01*
X11570551Y-16285793D02*
X11561027Y-16323888D01*
X11561027Y-16323888D02*
X11551503Y-16342936D01*
X11551503Y-16342936D02*
X11541979Y-16352460D01*
X11541979Y-16352460D02*
X11522932Y-16361984D01*
X11522932Y-16361984D02*
X11503884Y-16361984D01*
X11503884Y-16361984D02*
X11484837Y-16352460D01*
X11484837Y-16352460D02*
X11475313Y-16342936D01*
X11475313Y-16342936D02*
X11465789Y-16323888D01*
X11465789Y-16323888D02*
X11456265Y-16285793D01*
X11456265Y-16285793D02*
X11456265Y-16238174D01*
X11456265Y-16238174D02*
X11465789Y-16200079D01*
X11465789Y-16200079D02*
X11475313Y-16181031D01*
X11475313Y-16181031D02*
X11484837Y-16171508D01*
X11484837Y-16171508D02*
X11503884Y-16161984D01*
X11656265Y-16342936D02*
X11665789Y-16352460D01*
X11665789Y-16352460D02*
X11656265Y-16361984D01*
X11656265Y-16361984D02*
X11646741Y-16352460D01*
X11646741Y-16352460D02*
X11656265Y-16342936D01*
X11656265Y-16342936D02*
X11656265Y-16361984D01*
X11789598Y-16161984D02*
X11808646Y-16161984D01*
X11808646Y-16161984D02*
X11827694Y-16171508D01*
X11827694Y-16171508D02*
X11837218Y-16181031D01*
X11837218Y-16181031D02*
X11846741Y-16200079D01*
X11846741Y-16200079D02*
X11856265Y-16238174D01*
X11856265Y-16238174D02*
X11856265Y-16285793D01*
X11856265Y-16285793D02*
X11846741Y-16323888D01*
X11846741Y-16323888D02*
X11837218Y-16342936D01*
X11837218Y-16342936D02*
X11827694Y-16352460D01*
X11827694Y-16352460D02*
X11808646Y-16361984D01*
X11808646Y-16361984D02*
X11789598Y-16361984D01*
X11789598Y-16361984D02*
X11770551Y-16352460D01*
X11770551Y-16352460D02*
X11761027Y-16342936D01*
X11761027Y-16342936D02*
X11751503Y-16323888D01*
X11751503Y-16323888D02*
X11741979Y-16285793D01*
X11741979Y-16285793D02*
X11741979Y-16238174D01*
X11741979Y-16238174D02*
X11751503Y-16200079D01*
X11751503Y-16200079D02*
X11761027Y-16181031D01*
X11761027Y-16181031D02*
X11770551Y-16171508D01*
X11770551Y-16171508D02*
X11789598Y-16161984D01*
X12027694Y-16228650D02*
X12027694Y-16361984D01*
X11980075Y-16152460D02*
X11932456Y-16295317D01*
X11932456Y-16295317D02*
X12056265Y-16295317D01*
X12113408Y-16161984D02*
X12237218Y-16161984D01*
X12237218Y-16161984D02*
X12170551Y-16238174D01*
X12170551Y-16238174D02*
X12199122Y-16238174D01*
X12199122Y-16238174D02*
X12218170Y-16247698D01*
X12218170Y-16247698D02*
X12227694Y-16257222D01*
X12227694Y-16257222D02*
X12237218Y-16276269D01*
X12237218Y-16276269D02*
X12237218Y-16323888D01*
X12237218Y-16323888D02*
X12227694Y-16342936D01*
X12227694Y-16342936D02*
X12218170Y-16352460D01*
X12218170Y-16352460D02*
X12199122Y-16361984D01*
X12199122Y-16361984D02*
X12141979Y-16361984D01*
X12141979Y-16361984D02*
X12122932Y-16352460D01*
X12122932Y-16352460D02*
X12113408Y-16342936D01*
X12303884Y-16161984D02*
X12427694Y-16161984D01*
X12427694Y-16161984D02*
X12361027Y-16238174D01*
X12361027Y-16238174D02*
X12389599Y-16238174D01*
X12389599Y-16238174D02*
X12408646Y-16247698D01*
X12408646Y-16247698D02*
X12418170Y-16257222D01*
X12418170Y-16257222D02*
X12427694Y-16276269D01*
X12427694Y-16276269D02*
X12427694Y-16323888D01*
X12427694Y-16323888D02*
X12418170Y-16342936D01*
X12418170Y-16342936D02*
X12408646Y-16352460D01*
X12408646Y-16352460D02*
X12389599Y-16361984D01*
X12389599Y-16361984D02*
X12332456Y-16361984D01*
X12332456Y-16361984D02*
X12313408Y-16352460D01*
X12313408Y-16352460D02*
X12303884Y-16342936D01*
X12503884Y-16161984D02*
X12503884Y-16200079D01*
X12580075Y-16161984D02*
X12580075Y-16200079D01*
X12875313Y-16438174D02*
X12865789Y-16428650D01*
X12865789Y-16428650D02*
X12846741Y-16400079D01*
X12846741Y-16400079D02*
X12837218Y-16381031D01*
X12837218Y-16381031D02*
X12827694Y-16352460D01*
X12827694Y-16352460D02*
X12818170Y-16304841D01*
X12818170Y-16304841D02*
X12818170Y-16266746D01*
X12818170Y-16266746D02*
X12827694Y-16219127D01*
X12827694Y-16219127D02*
X12837218Y-16190555D01*
X12837218Y-16190555D02*
X12846741Y-16171508D01*
X12846741Y-16171508D02*
X12865789Y-16142936D01*
X12865789Y-16142936D02*
X12875313Y-16133412D01*
X13037218Y-16228650D02*
X13037218Y-16361984D01*
X12989599Y-16152460D02*
X12941980Y-16295317D01*
X12941980Y-16295317D02*
X13065789Y-16295317D01*
X13294361Y-16361984D02*
X13294361Y-16161984D01*
X13380075Y-16361984D02*
X13380075Y-16257222D01*
X13380075Y-16257222D02*
X13370551Y-16238174D01*
X13370551Y-16238174D02*
X13351503Y-16228650D01*
X13351503Y-16228650D02*
X13322932Y-16228650D01*
X13322932Y-16228650D02*
X13303884Y-16238174D01*
X13303884Y-16238174D02*
X13294361Y-16247698D01*
X13503884Y-16361984D02*
X13484837Y-16352460D01*
X13484837Y-16352460D02*
X13475313Y-16342936D01*
X13475313Y-16342936D02*
X13465789Y-16323888D01*
X13465789Y-16323888D02*
X13465789Y-16266746D01*
X13465789Y-16266746D02*
X13475313Y-16247698D01*
X13475313Y-16247698D02*
X13484837Y-16238174D01*
X13484837Y-16238174D02*
X13503884Y-16228650D01*
X13503884Y-16228650D02*
X13532456Y-16228650D01*
X13532456Y-16228650D02*
X13551503Y-16238174D01*
X13551503Y-16238174D02*
X13561027Y-16247698D01*
X13561027Y-16247698D02*
X13570551Y-16266746D01*
X13570551Y-16266746D02*
X13570551Y-16323888D01*
X13570551Y-16323888D02*
X13561027Y-16342936D01*
X13561027Y-16342936D02*
X13551503Y-16352460D01*
X13551503Y-16352460D02*
X13532456Y-16361984D01*
X13532456Y-16361984D02*
X13503884Y-16361984D01*
X13684837Y-16361984D02*
X13665789Y-16352460D01*
X13665789Y-16352460D02*
X13656265Y-16333412D01*
X13656265Y-16333412D02*
X13656265Y-16161984D01*
X13837218Y-16352460D02*
X13818170Y-16361984D01*
X13818170Y-16361984D02*
X13780075Y-16361984D01*
X13780075Y-16361984D02*
X13761027Y-16352460D01*
X13761027Y-16352460D02*
X13751503Y-16333412D01*
X13751503Y-16333412D02*
X13751503Y-16257222D01*
X13751503Y-16257222D02*
X13761027Y-16238174D01*
X13761027Y-16238174D02*
X13780075Y-16228650D01*
X13780075Y-16228650D02*
X13818170Y-16228650D01*
X13818170Y-16228650D02*
X13837218Y-16238174D01*
X13837218Y-16238174D02*
X13846742Y-16257222D01*
X13846742Y-16257222D02*
X13846742Y-16276269D01*
X13846742Y-16276269D02*
X13751503Y-16295317D01*
X13922932Y-16352460D02*
X13941980Y-16361984D01*
X13941980Y-16361984D02*
X13980075Y-16361984D01*
X13980075Y-16361984D02*
X13999123Y-16352460D01*
X13999123Y-16352460D02*
X14008646Y-16333412D01*
X14008646Y-16333412D02*
X14008646Y-16323888D01*
X14008646Y-16323888D02*
X13999123Y-16304841D01*
X13999123Y-16304841D02*
X13980075Y-16295317D01*
X13980075Y-16295317D02*
X13951503Y-16295317D01*
X13951503Y-16295317D02*
X13932456Y-16285793D01*
X13932456Y-16285793D02*
X13922932Y-16266746D01*
X13922932Y-16266746D02*
X13922932Y-16257222D01*
X13922932Y-16257222D02*
X13932456Y-16238174D01*
X13932456Y-16238174D02*
X13951503Y-16228650D01*
X13951503Y-16228650D02*
X13980075Y-16228650D01*
X13980075Y-16228650D02*
X13999123Y-16238174D01*
X14075313Y-16438174D02*
X14084837Y-16428650D01*
X14084837Y-16428650D02*
X14103884Y-16400079D01*
X14103884Y-16400079D02*
X14113408Y-16381031D01*
X14113408Y-16381031D02*
X14122932Y-16352460D01*
X14122932Y-16352460D02*
X14132456Y-16304841D01*
X14132456Y-16304841D02*
X14132456Y-16266746D01*
X14132456Y-16266746D02*
X14122932Y-16219127D01*
X14122932Y-16219127D02*
X14113408Y-16190555D01*
X14113408Y-16190555D02*
X14103884Y-16171508D01*
X14103884Y-16171508D02*
X14084837Y-16142936D01*
X14084837Y-16142936D02*
X14075313Y-16133412D01*
X9270962Y-16605211D02*
X9270962Y-16463789D01*
X9129539Y-16463789D01*
X9129539Y-16605211D01*
X9270962Y-16605211D01*
X9541979Y-16425984D02*
X9665789Y-16425984D01*
X9665789Y-16425984D02*
X9599122Y-16502174D01*
X9599122Y-16502174D02*
X9627694Y-16502174D01*
X9627694Y-16502174D02*
X9646741Y-16511698D01*
X9646741Y-16511698D02*
X9656265Y-16521222D01*
X9656265Y-16521222D02*
X9665789Y-16540269D01*
X9665789Y-16540269D02*
X9665789Y-16587888D01*
X9665789Y-16587888D02*
X9656265Y-16606936D01*
X9656265Y-16606936D02*
X9646741Y-16616460D01*
X9646741Y-16616460D02*
X9627694Y-16625984D01*
X9627694Y-16625984D02*
X9570551Y-16625984D01*
X9570551Y-16625984D02*
X9551503Y-16616460D01*
X9551503Y-16616460D02*
X9541979Y-16606936D01*
X9751503Y-16606936D02*
X9761027Y-16616460D01*
X9761027Y-16616460D02*
X9751503Y-16625984D01*
X9751503Y-16625984D02*
X9741979Y-16616460D01*
X9741979Y-16616460D02*
X9751503Y-16606936D01*
X9751503Y-16606936D02*
X9751503Y-16625984D01*
X9837217Y-16445031D02*
X9846741Y-16435508D01*
X9846741Y-16435508D02*
X9865789Y-16425984D01*
X9865789Y-16425984D02*
X9913408Y-16425984D01*
X9913408Y-16425984D02*
X9932456Y-16435508D01*
X9932456Y-16435508D02*
X9941979Y-16445031D01*
X9941979Y-16445031D02*
X9951503Y-16464079D01*
X9951503Y-16464079D02*
X9951503Y-16483127D01*
X9951503Y-16483127D02*
X9941979Y-16511698D01*
X9941979Y-16511698D02*
X9827694Y-16625984D01*
X9827694Y-16625984D02*
X9951503Y-16625984D01*
X10075313Y-16425984D02*
X10094360Y-16425984D01*
X10094360Y-16425984D02*
X10113408Y-16435508D01*
X10113408Y-16435508D02*
X10122932Y-16445031D01*
X10122932Y-16445031D02*
X10132456Y-16464079D01*
X10132456Y-16464079D02*
X10141979Y-16502174D01*
X10141979Y-16502174D02*
X10141979Y-16549793D01*
X10141979Y-16549793D02*
X10132456Y-16587888D01*
X10132456Y-16587888D02*
X10122932Y-16606936D01*
X10122932Y-16606936D02*
X10113408Y-16616460D01*
X10113408Y-16616460D02*
X10094360Y-16625984D01*
X10094360Y-16625984D02*
X10075313Y-16625984D01*
X10075313Y-16625984D02*
X10056265Y-16616460D01*
X10056265Y-16616460D02*
X10046741Y-16606936D01*
X10046741Y-16606936D02*
X10037217Y-16587888D01*
X10037217Y-16587888D02*
X10027694Y-16549793D01*
X10027694Y-16549793D02*
X10027694Y-16502174D01*
X10027694Y-16502174D02*
X10037217Y-16464079D01*
X10037217Y-16464079D02*
X10046741Y-16445031D01*
X10046741Y-16445031D02*
X10056265Y-16435508D01*
X10056265Y-16435508D02*
X10075313Y-16425984D01*
X10265789Y-16425984D02*
X10284837Y-16425984D01*
X10284837Y-16425984D02*
X10303884Y-16435508D01*
X10303884Y-16435508D02*
X10313408Y-16445031D01*
X10313408Y-16445031D02*
X10322932Y-16464079D01*
X10322932Y-16464079D02*
X10332456Y-16502174D01*
X10332456Y-16502174D02*
X10332456Y-16549793D01*
X10332456Y-16549793D02*
X10322932Y-16587888D01*
X10322932Y-16587888D02*
X10313408Y-16606936D01*
X10313408Y-16606936D02*
X10303884Y-16616460D01*
X10303884Y-16616460D02*
X10284837Y-16625984D01*
X10284837Y-16625984D02*
X10265789Y-16625984D01*
X10265789Y-16625984D02*
X10246741Y-16616460D01*
X10246741Y-16616460D02*
X10237217Y-16606936D01*
X10237217Y-16606936D02*
X10227694Y-16587888D01*
X10227694Y-16587888D02*
X10218170Y-16549793D01*
X10218170Y-16549793D02*
X10218170Y-16502174D01*
X10218170Y-16502174D02*
X10227694Y-16464079D01*
X10227694Y-16464079D02*
X10237217Y-16445031D01*
X10237217Y-16445031D02*
X10246741Y-16435508D01*
X10246741Y-16435508D02*
X10265789Y-16425984D01*
X10418170Y-16625984D02*
X10418170Y-16492650D01*
X10418170Y-16511698D02*
X10427694Y-16502174D01*
X10427694Y-16502174D02*
X10446741Y-16492650D01*
X10446741Y-16492650D02*
X10475313Y-16492650D01*
X10475313Y-16492650D02*
X10494360Y-16502174D01*
X10494360Y-16502174D02*
X10503884Y-16521222D01*
X10503884Y-16521222D02*
X10503884Y-16625984D01*
X10503884Y-16521222D02*
X10513408Y-16502174D01*
X10513408Y-16502174D02*
X10532456Y-16492650D01*
X10532456Y-16492650D02*
X10561027Y-16492650D01*
X10561027Y-16492650D02*
X10580075Y-16502174D01*
X10580075Y-16502174D02*
X10589598Y-16521222D01*
X10589598Y-16521222D02*
X10589598Y-16625984D01*
X10684837Y-16625984D02*
X10684837Y-16492650D01*
X10684837Y-16511698D02*
X10694360Y-16502174D01*
X10694360Y-16502174D02*
X10713408Y-16492650D01*
X10713408Y-16492650D02*
X10741979Y-16492650D01*
X10741979Y-16492650D02*
X10761027Y-16502174D01*
X10761027Y-16502174D02*
X10770551Y-16521222D01*
X10770551Y-16521222D02*
X10770551Y-16625984D01*
X10770551Y-16521222D02*
X10780075Y-16502174D01*
X10780075Y-16502174D02*
X10799122Y-16492650D01*
X10799122Y-16492650D02*
X10827694Y-16492650D01*
X10827694Y-16492650D02*
X10846741Y-16502174D01*
X10846741Y-16502174D02*
X10856265Y-16521222D01*
X10856265Y-16521222D02*
X10856265Y-16625984D01*
X11246741Y-16416460D02*
X11075313Y-16673603D01*
X11503884Y-16425984D02*
X11522932Y-16425984D01*
X11522932Y-16425984D02*
X11541979Y-16435508D01*
X11541979Y-16435508D02*
X11551503Y-16445031D01*
X11551503Y-16445031D02*
X11561027Y-16464079D01*
X11561027Y-16464079D02*
X11570551Y-16502174D01*
X11570551Y-16502174D02*
X11570551Y-16549793D01*
X11570551Y-16549793D02*
X11561027Y-16587888D01*
X11561027Y-16587888D02*
X11551503Y-16606936D01*
X11551503Y-16606936D02*
X11541979Y-16616460D01*
X11541979Y-16616460D02*
X11522932Y-16625984D01*
X11522932Y-16625984D02*
X11503884Y-16625984D01*
X11503884Y-16625984D02*
X11484837Y-16616460D01*
X11484837Y-16616460D02*
X11475313Y-16606936D01*
X11475313Y-16606936D02*
X11465789Y-16587888D01*
X11465789Y-16587888D02*
X11456265Y-16549793D01*
X11456265Y-16549793D02*
X11456265Y-16502174D01*
X11456265Y-16502174D02*
X11465789Y-16464079D01*
X11465789Y-16464079D02*
X11475313Y-16445031D01*
X11475313Y-16445031D02*
X11484837Y-16435508D01*
X11484837Y-16435508D02*
X11503884Y-16425984D01*
X11656265Y-16606936D02*
X11665789Y-16616460D01*
X11665789Y-16616460D02*
X11656265Y-16625984D01*
X11656265Y-16625984D02*
X11646741Y-16616460D01*
X11646741Y-16616460D02*
X11656265Y-16606936D01*
X11656265Y-16606936D02*
X11656265Y-16625984D01*
X11856265Y-16625984D02*
X11741979Y-16625984D01*
X11799122Y-16625984D02*
X11799122Y-16425984D01*
X11799122Y-16425984D02*
X11780075Y-16454555D01*
X11780075Y-16454555D02*
X11761027Y-16473603D01*
X11761027Y-16473603D02*
X11741979Y-16483127D01*
X11932456Y-16445031D02*
X11941979Y-16435508D01*
X11941979Y-16435508D02*
X11961027Y-16425984D01*
X11961027Y-16425984D02*
X12008646Y-16425984D01*
X12008646Y-16425984D02*
X12027694Y-16435508D01*
X12027694Y-16435508D02*
X12037218Y-16445031D01*
X12037218Y-16445031D02*
X12046741Y-16464079D01*
X12046741Y-16464079D02*
X12046741Y-16483127D01*
X12046741Y-16483127D02*
X12037218Y-16511698D01*
X12037218Y-16511698D02*
X11922932Y-16625984D01*
X11922932Y-16625984D02*
X12046741Y-16625984D01*
X12218170Y-16425984D02*
X12180075Y-16425984D01*
X12180075Y-16425984D02*
X12161027Y-16435508D01*
X12161027Y-16435508D02*
X12151503Y-16445031D01*
X12151503Y-16445031D02*
X12132456Y-16473603D01*
X12132456Y-16473603D02*
X12122932Y-16511698D01*
X12122932Y-16511698D02*
X12122932Y-16587888D01*
X12122932Y-16587888D02*
X12132456Y-16606936D01*
X12132456Y-16606936D02*
X12141979Y-16616460D01*
X12141979Y-16616460D02*
X12161027Y-16625984D01*
X12161027Y-16625984D02*
X12199122Y-16625984D01*
X12199122Y-16625984D02*
X12218170Y-16616460D01*
X12218170Y-16616460D02*
X12227694Y-16606936D01*
X12227694Y-16606936D02*
X12237218Y-16587888D01*
X12237218Y-16587888D02*
X12237218Y-16540269D01*
X12237218Y-16540269D02*
X12227694Y-16521222D01*
X12227694Y-16521222D02*
X12218170Y-16511698D01*
X12218170Y-16511698D02*
X12199122Y-16502174D01*
X12199122Y-16502174D02*
X12161027Y-16502174D01*
X12161027Y-16502174D02*
X12141979Y-16511698D01*
X12141979Y-16511698D02*
X12132456Y-16521222D01*
X12132456Y-16521222D02*
X12122932Y-16540269D01*
X12361027Y-16425984D02*
X12380075Y-16425984D01*
X12380075Y-16425984D02*
X12399122Y-16435508D01*
X12399122Y-16435508D02*
X12408646Y-16445031D01*
X12408646Y-16445031D02*
X12418170Y-16464079D01*
X12418170Y-16464079D02*
X12427694Y-16502174D01*
X12427694Y-16502174D02*
X12427694Y-16549793D01*
X12427694Y-16549793D02*
X12418170Y-16587888D01*
X12418170Y-16587888D02*
X12408646Y-16606936D01*
X12408646Y-16606936D02*
X12399122Y-16616460D01*
X12399122Y-16616460D02*
X12380075Y-16625984D01*
X12380075Y-16625984D02*
X12361027Y-16625984D01*
X12361027Y-16625984D02*
X12341979Y-16616460D01*
X12341979Y-16616460D02*
X12332456Y-16606936D01*
X12332456Y-16606936D02*
X12322932Y-16587888D01*
X12322932Y-16587888D02*
X12313408Y-16549793D01*
X12313408Y-16549793D02*
X12313408Y-16502174D01*
X12313408Y-16502174D02*
X12322932Y-16464079D01*
X12322932Y-16464079D02*
X12332456Y-16445031D01*
X12332456Y-16445031D02*
X12341979Y-16435508D01*
X12341979Y-16435508D02*
X12361027Y-16425984D01*
X12503884Y-16425984D02*
X12503884Y-16464079D01*
X12580075Y-16425984D02*
X12580075Y-16464079D01*
X12875313Y-16702174D02*
X12865789Y-16692650D01*
X12865789Y-16692650D02*
X12846741Y-16664079D01*
X12846741Y-16664079D02*
X12837218Y-16645031D01*
X12837218Y-16645031D02*
X12827694Y-16616460D01*
X12827694Y-16616460D02*
X12818170Y-16568841D01*
X12818170Y-16568841D02*
X12818170Y-16530746D01*
X12818170Y-16530746D02*
X12827694Y-16483127D01*
X12827694Y-16483127D02*
X12837218Y-16454555D01*
X12837218Y-16454555D02*
X12846741Y-16435508D01*
X12846741Y-16435508D02*
X12865789Y-16406936D01*
X12865789Y-16406936D02*
X12875313Y-16397412D01*
X13037218Y-16492650D02*
X13037218Y-16625984D01*
X12989599Y-16416460D02*
X12941980Y-16559317D01*
X12941980Y-16559317D02*
X13065789Y-16559317D01*
X13294361Y-16625984D02*
X13294361Y-16425984D01*
X13380075Y-16625984D02*
X13380075Y-16521222D01*
X13380075Y-16521222D02*
X13370551Y-16502174D01*
X13370551Y-16502174D02*
X13351503Y-16492650D01*
X13351503Y-16492650D02*
X13322932Y-16492650D01*
X13322932Y-16492650D02*
X13303884Y-16502174D01*
X13303884Y-16502174D02*
X13294361Y-16511698D01*
X13503884Y-16625984D02*
X13484837Y-16616460D01*
X13484837Y-16616460D02*
X13475313Y-16606936D01*
X13475313Y-16606936D02*
X13465789Y-16587888D01*
X13465789Y-16587888D02*
X13465789Y-16530746D01*
X13465789Y-16530746D02*
X13475313Y-16511698D01*
X13475313Y-16511698D02*
X13484837Y-16502174D01*
X13484837Y-16502174D02*
X13503884Y-16492650D01*
X13503884Y-16492650D02*
X13532456Y-16492650D01*
X13532456Y-16492650D02*
X13551503Y-16502174D01*
X13551503Y-16502174D02*
X13561027Y-16511698D01*
X13561027Y-16511698D02*
X13570551Y-16530746D01*
X13570551Y-16530746D02*
X13570551Y-16587888D01*
X13570551Y-16587888D02*
X13561027Y-16606936D01*
X13561027Y-16606936D02*
X13551503Y-16616460D01*
X13551503Y-16616460D02*
X13532456Y-16625984D01*
X13532456Y-16625984D02*
X13503884Y-16625984D01*
X13684837Y-16625984D02*
X13665789Y-16616460D01*
X13665789Y-16616460D02*
X13656265Y-16597412D01*
X13656265Y-16597412D02*
X13656265Y-16425984D01*
X13837218Y-16616460D02*
X13818170Y-16625984D01*
X13818170Y-16625984D02*
X13780075Y-16625984D01*
X13780075Y-16625984D02*
X13761027Y-16616460D01*
X13761027Y-16616460D02*
X13751503Y-16597412D01*
X13751503Y-16597412D02*
X13751503Y-16521222D01*
X13751503Y-16521222D02*
X13761027Y-16502174D01*
X13761027Y-16502174D02*
X13780075Y-16492650D01*
X13780075Y-16492650D02*
X13818170Y-16492650D01*
X13818170Y-16492650D02*
X13837218Y-16502174D01*
X13837218Y-16502174D02*
X13846742Y-16521222D01*
X13846742Y-16521222D02*
X13846742Y-16540269D01*
X13846742Y-16540269D02*
X13751503Y-16559317D01*
X13922932Y-16616460D02*
X13941980Y-16625984D01*
X13941980Y-16625984D02*
X13980075Y-16625984D01*
X13980075Y-16625984D02*
X13999123Y-16616460D01*
X13999123Y-16616460D02*
X14008646Y-16597412D01*
X14008646Y-16597412D02*
X14008646Y-16587888D01*
X14008646Y-16587888D02*
X13999123Y-16568841D01*
X13999123Y-16568841D02*
X13980075Y-16559317D01*
X13980075Y-16559317D02*
X13951503Y-16559317D01*
X13951503Y-16559317D02*
X13932456Y-16549793D01*
X13932456Y-16549793D02*
X13922932Y-16530746D01*
X13922932Y-16530746D02*
X13922932Y-16521222D01*
X13922932Y-16521222D02*
X13932456Y-16502174D01*
X13932456Y-16502174D02*
X13951503Y-16492650D01*
X13951503Y-16492650D02*
X13980075Y-16492650D01*
X13980075Y-16492650D02*
X13999123Y-16502174D01*
X14075313Y-16702174D02*
X14084837Y-16692650D01*
X14084837Y-16692650D02*
X14103884Y-16664079D01*
X14103884Y-16664079D02*
X14113408Y-16645031D01*
X14113408Y-16645031D02*
X14122932Y-16616460D01*
X14122932Y-16616460D02*
X14132456Y-16568841D01*
X14132456Y-16568841D02*
X14132456Y-16530746D01*
X14132456Y-16530746D02*
X14122932Y-16483127D01*
X14122932Y-16483127D02*
X14113408Y-16454555D01*
X14113408Y-16454555D02*
X14103884Y-16435508D01*
X14103884Y-16435508D02*
X14084837Y-16406936D01*
X14084837Y-16406936D02*
X14075313Y-16397412D01*
X9200250Y-16954500D02*
X9300250Y-16854500D01*
X9200250Y-16754500D01*
X9100250Y-16854500D01*
X9200250Y-16954500D01*
X9646741Y-16812650D02*
X9646741Y-16945984D01*
X9599122Y-16736460D02*
X9551503Y-16879317D01*
X9551503Y-16879317D02*
X9675313Y-16879317D01*
X9751503Y-16926936D02*
X9761027Y-16936460D01*
X9761027Y-16936460D02*
X9751503Y-16945984D01*
X9751503Y-16945984D02*
X9741979Y-16936460D01*
X9741979Y-16936460D02*
X9751503Y-16926936D01*
X9751503Y-16926936D02*
X9751503Y-16945984D01*
X9941979Y-16745984D02*
X9846741Y-16745984D01*
X9846741Y-16745984D02*
X9837217Y-16841222D01*
X9837217Y-16841222D02*
X9846741Y-16831698D01*
X9846741Y-16831698D02*
X9865789Y-16822174D01*
X9865789Y-16822174D02*
X9913408Y-16822174D01*
X9913408Y-16822174D02*
X9932456Y-16831698D01*
X9932456Y-16831698D02*
X9941979Y-16841222D01*
X9941979Y-16841222D02*
X9951503Y-16860270D01*
X9951503Y-16860270D02*
X9951503Y-16907889D01*
X9951503Y-16907889D02*
X9941979Y-16926936D01*
X9941979Y-16926936D02*
X9932456Y-16936460D01*
X9932456Y-16936460D02*
X9913408Y-16945984D01*
X9913408Y-16945984D02*
X9865789Y-16945984D01*
X9865789Y-16945984D02*
X9846741Y-16936460D01*
X9846741Y-16936460D02*
X9837217Y-16926936D01*
X10132456Y-16745984D02*
X10037217Y-16745984D01*
X10037217Y-16745984D02*
X10027694Y-16841222D01*
X10027694Y-16841222D02*
X10037217Y-16831698D01*
X10037217Y-16831698D02*
X10056265Y-16822174D01*
X10056265Y-16822174D02*
X10103884Y-16822174D01*
X10103884Y-16822174D02*
X10122932Y-16831698D01*
X10122932Y-16831698D02*
X10132456Y-16841222D01*
X10132456Y-16841222D02*
X10141979Y-16860270D01*
X10141979Y-16860270D02*
X10141979Y-16907889D01*
X10141979Y-16907889D02*
X10132456Y-16926936D01*
X10132456Y-16926936D02*
X10122932Y-16936460D01*
X10122932Y-16936460D02*
X10103884Y-16945984D01*
X10103884Y-16945984D02*
X10056265Y-16945984D01*
X10056265Y-16945984D02*
X10037217Y-16936460D01*
X10037217Y-16936460D02*
X10027694Y-16926936D01*
X10265789Y-16745984D02*
X10284837Y-16745984D01*
X10284837Y-16745984D02*
X10303884Y-16755508D01*
X10303884Y-16755508D02*
X10313408Y-16765031D01*
X10313408Y-16765031D02*
X10322932Y-16784079D01*
X10322932Y-16784079D02*
X10332456Y-16822174D01*
X10332456Y-16822174D02*
X10332456Y-16869793D01*
X10332456Y-16869793D02*
X10322932Y-16907889D01*
X10322932Y-16907889D02*
X10313408Y-16926936D01*
X10313408Y-16926936D02*
X10303884Y-16936460D01*
X10303884Y-16936460D02*
X10284837Y-16945984D01*
X10284837Y-16945984D02*
X10265789Y-16945984D01*
X10265789Y-16945984D02*
X10246741Y-16936460D01*
X10246741Y-16936460D02*
X10237217Y-16926936D01*
X10237217Y-16926936D02*
X10227694Y-16907889D01*
X10227694Y-16907889D02*
X10218170Y-16869793D01*
X10218170Y-16869793D02*
X10218170Y-16822174D01*
X10218170Y-16822174D02*
X10227694Y-16784079D01*
X10227694Y-16784079D02*
X10237217Y-16765031D01*
X10237217Y-16765031D02*
X10246741Y-16755508D01*
X10246741Y-16755508D02*
X10265789Y-16745984D01*
X10418170Y-16945984D02*
X10418170Y-16812650D01*
X10418170Y-16831698D02*
X10427694Y-16822174D01*
X10427694Y-16822174D02*
X10446741Y-16812650D01*
X10446741Y-16812650D02*
X10475313Y-16812650D01*
X10475313Y-16812650D02*
X10494360Y-16822174D01*
X10494360Y-16822174D02*
X10503884Y-16841222D01*
X10503884Y-16841222D02*
X10503884Y-16945984D01*
X10503884Y-16841222D02*
X10513408Y-16822174D01*
X10513408Y-16822174D02*
X10532456Y-16812650D01*
X10532456Y-16812650D02*
X10561027Y-16812650D01*
X10561027Y-16812650D02*
X10580075Y-16822174D01*
X10580075Y-16822174D02*
X10589598Y-16841222D01*
X10589598Y-16841222D02*
X10589598Y-16945984D01*
X10684837Y-16945984D02*
X10684837Y-16812650D01*
X10684837Y-16831698D02*
X10694360Y-16822174D01*
X10694360Y-16822174D02*
X10713408Y-16812650D01*
X10713408Y-16812650D02*
X10741979Y-16812650D01*
X10741979Y-16812650D02*
X10761027Y-16822174D01*
X10761027Y-16822174D02*
X10770551Y-16841222D01*
X10770551Y-16841222D02*
X10770551Y-16945984D01*
X10770551Y-16841222D02*
X10780075Y-16822174D01*
X10780075Y-16822174D02*
X10799122Y-16812650D01*
X10799122Y-16812650D02*
X10827694Y-16812650D01*
X10827694Y-16812650D02*
X10846741Y-16822174D01*
X10846741Y-16822174D02*
X10856265Y-16841222D01*
X10856265Y-16841222D02*
X10856265Y-16945984D01*
X11246741Y-16736460D02*
X11075313Y-16993603D01*
X11503884Y-16745984D02*
X11522932Y-16745984D01*
X11522932Y-16745984D02*
X11541979Y-16755508D01*
X11541979Y-16755508D02*
X11551503Y-16765031D01*
X11551503Y-16765031D02*
X11561027Y-16784079D01*
X11561027Y-16784079D02*
X11570551Y-16822174D01*
X11570551Y-16822174D02*
X11570551Y-16869793D01*
X11570551Y-16869793D02*
X11561027Y-16907889D01*
X11561027Y-16907889D02*
X11551503Y-16926936D01*
X11551503Y-16926936D02*
X11541979Y-16936460D01*
X11541979Y-16936460D02*
X11522932Y-16945984D01*
X11522932Y-16945984D02*
X11503884Y-16945984D01*
X11503884Y-16945984D02*
X11484837Y-16936460D01*
X11484837Y-16936460D02*
X11475313Y-16926936D01*
X11475313Y-16926936D02*
X11465789Y-16907889D01*
X11465789Y-16907889D02*
X11456265Y-16869793D01*
X11456265Y-16869793D02*
X11456265Y-16822174D01*
X11456265Y-16822174D02*
X11465789Y-16784079D01*
X11465789Y-16784079D02*
X11475313Y-16765031D01*
X11475313Y-16765031D02*
X11484837Y-16755508D01*
X11484837Y-16755508D02*
X11503884Y-16745984D01*
X11656265Y-16926936D02*
X11665789Y-16936460D01*
X11665789Y-16936460D02*
X11656265Y-16945984D01*
X11656265Y-16945984D02*
X11646741Y-16936460D01*
X11646741Y-16936460D02*
X11656265Y-16926936D01*
X11656265Y-16926936D02*
X11656265Y-16945984D01*
X11856265Y-16945984D02*
X11741979Y-16945984D01*
X11799122Y-16945984D02*
X11799122Y-16745984D01*
X11799122Y-16745984D02*
X11780075Y-16774555D01*
X11780075Y-16774555D02*
X11761027Y-16793603D01*
X11761027Y-16793603D02*
X11741979Y-16803127D01*
X11922932Y-16745984D02*
X12056265Y-16745984D01*
X12056265Y-16745984D02*
X11970551Y-16945984D01*
X12141979Y-16945984D02*
X12180075Y-16945984D01*
X12180075Y-16945984D02*
X12199122Y-16936460D01*
X12199122Y-16936460D02*
X12208646Y-16926936D01*
X12208646Y-16926936D02*
X12227694Y-16898365D01*
X12227694Y-16898365D02*
X12237218Y-16860270D01*
X12237218Y-16860270D02*
X12237218Y-16784079D01*
X12237218Y-16784079D02*
X12227694Y-16765031D01*
X12227694Y-16765031D02*
X12218170Y-16755508D01*
X12218170Y-16755508D02*
X12199122Y-16745984D01*
X12199122Y-16745984D02*
X12161027Y-16745984D01*
X12161027Y-16745984D02*
X12141979Y-16755508D01*
X12141979Y-16755508D02*
X12132456Y-16765031D01*
X12132456Y-16765031D02*
X12122932Y-16784079D01*
X12122932Y-16784079D02*
X12122932Y-16831698D01*
X12122932Y-16831698D02*
X12132456Y-16850746D01*
X12132456Y-16850746D02*
X12141979Y-16860270D01*
X12141979Y-16860270D02*
X12161027Y-16869793D01*
X12161027Y-16869793D02*
X12199122Y-16869793D01*
X12199122Y-16869793D02*
X12218170Y-16860270D01*
X12218170Y-16860270D02*
X12227694Y-16850746D01*
X12227694Y-16850746D02*
X12237218Y-16831698D01*
X12427694Y-16945984D02*
X12313408Y-16945984D01*
X12370551Y-16945984D02*
X12370551Y-16745984D01*
X12370551Y-16745984D02*
X12351503Y-16774555D01*
X12351503Y-16774555D02*
X12332456Y-16793603D01*
X12332456Y-16793603D02*
X12313408Y-16803127D01*
X12503884Y-16745984D02*
X12503884Y-16784079D01*
X12580075Y-16745984D02*
X12580075Y-16784079D01*
X12875313Y-17022174D02*
X12865789Y-17012650D01*
X12865789Y-17012650D02*
X12846741Y-16984079D01*
X12846741Y-16984079D02*
X12837218Y-16965031D01*
X12837218Y-16965031D02*
X12827694Y-16936460D01*
X12827694Y-16936460D02*
X12818170Y-16888841D01*
X12818170Y-16888841D02*
X12818170Y-16850746D01*
X12818170Y-16850746D02*
X12827694Y-16803127D01*
X12827694Y-16803127D02*
X12837218Y-16774555D01*
X12837218Y-16774555D02*
X12846741Y-16755508D01*
X12846741Y-16755508D02*
X12865789Y-16726936D01*
X12865789Y-16726936D02*
X12875313Y-16717412D01*
X12941980Y-16765031D02*
X12951503Y-16755508D01*
X12951503Y-16755508D02*
X12970551Y-16745984D01*
X12970551Y-16745984D02*
X13018170Y-16745984D01*
X13018170Y-16745984D02*
X13037218Y-16755508D01*
X13037218Y-16755508D02*
X13046741Y-16765031D01*
X13046741Y-16765031D02*
X13056265Y-16784079D01*
X13056265Y-16784079D02*
X13056265Y-16803127D01*
X13056265Y-16803127D02*
X13046741Y-16831698D01*
X13046741Y-16831698D02*
X12932456Y-16945984D01*
X12932456Y-16945984D02*
X13056265Y-16945984D01*
X13294361Y-16945984D02*
X13294361Y-16745984D01*
X13380075Y-16945984D02*
X13380075Y-16841222D01*
X13380075Y-16841222D02*
X13370551Y-16822174D01*
X13370551Y-16822174D02*
X13351503Y-16812650D01*
X13351503Y-16812650D02*
X13322932Y-16812650D01*
X13322932Y-16812650D02*
X13303884Y-16822174D01*
X13303884Y-16822174D02*
X13294361Y-16831698D01*
X13503884Y-16945984D02*
X13484837Y-16936460D01*
X13484837Y-16936460D02*
X13475313Y-16926936D01*
X13475313Y-16926936D02*
X13465789Y-16907889D01*
X13465789Y-16907889D02*
X13465789Y-16850746D01*
X13465789Y-16850746D02*
X13475313Y-16831698D01*
X13475313Y-16831698D02*
X13484837Y-16822174D01*
X13484837Y-16822174D02*
X13503884Y-16812650D01*
X13503884Y-16812650D02*
X13532456Y-16812650D01*
X13532456Y-16812650D02*
X13551503Y-16822174D01*
X13551503Y-16822174D02*
X13561027Y-16831698D01*
X13561027Y-16831698D02*
X13570551Y-16850746D01*
X13570551Y-16850746D02*
X13570551Y-16907889D01*
X13570551Y-16907889D02*
X13561027Y-16926936D01*
X13561027Y-16926936D02*
X13551503Y-16936460D01*
X13551503Y-16936460D02*
X13532456Y-16945984D01*
X13532456Y-16945984D02*
X13503884Y-16945984D01*
X13684837Y-16945984D02*
X13665789Y-16936460D01*
X13665789Y-16936460D02*
X13656265Y-16917412D01*
X13656265Y-16917412D02*
X13656265Y-16745984D01*
X13837218Y-16936460D02*
X13818170Y-16945984D01*
X13818170Y-16945984D02*
X13780075Y-16945984D01*
X13780075Y-16945984D02*
X13761027Y-16936460D01*
X13761027Y-16936460D02*
X13751503Y-16917412D01*
X13751503Y-16917412D02*
X13751503Y-16841222D01*
X13751503Y-16841222D02*
X13761027Y-16822174D01*
X13761027Y-16822174D02*
X13780075Y-16812650D01*
X13780075Y-16812650D02*
X13818170Y-16812650D01*
X13818170Y-16812650D02*
X13837218Y-16822174D01*
X13837218Y-16822174D02*
X13846742Y-16841222D01*
X13846742Y-16841222D02*
X13846742Y-16860270D01*
X13846742Y-16860270D02*
X13751503Y-16879317D01*
X13922932Y-16936460D02*
X13941980Y-16945984D01*
X13941980Y-16945984D02*
X13980075Y-16945984D01*
X13980075Y-16945984D02*
X13999123Y-16936460D01*
X13999123Y-16936460D02*
X14008646Y-16917412D01*
X14008646Y-16917412D02*
X14008646Y-16907889D01*
X14008646Y-16907889D02*
X13999123Y-16888841D01*
X13999123Y-16888841D02*
X13980075Y-16879317D01*
X13980075Y-16879317D02*
X13951503Y-16879317D01*
X13951503Y-16879317D02*
X13932456Y-16869793D01*
X13932456Y-16869793D02*
X13922932Y-16850746D01*
X13922932Y-16850746D02*
X13922932Y-16841222D01*
X13922932Y-16841222D02*
X13932456Y-16822174D01*
X13932456Y-16822174D02*
X13951503Y-16812650D01*
X13951503Y-16812650D02*
X13980075Y-16812650D01*
X13980075Y-16812650D02*
X13999123Y-16822174D01*
X14075313Y-17022174D02*
X14084837Y-17012650D01*
X14084837Y-17012650D02*
X14103884Y-16984079D01*
X14103884Y-16984079D02*
X14113408Y-16965031D01*
X14113408Y-16965031D02*
X14122932Y-16936460D01*
X14122932Y-16936460D02*
X14132456Y-16888841D01*
X14132456Y-16888841D02*
X14132456Y-16850746D01*
X14132456Y-16850746D02*
X14122932Y-16803127D01*
X14122932Y-16803127D02*
X14113408Y-16774555D01*
X14113408Y-16774555D02*
X14103884Y-16755508D01*
X14103884Y-16755508D02*
X14084837Y-16726936D01*
X14084837Y-16726936D02*
X14075313Y-16717412D01*
M02*
