%TF.GenerationSoftware,KiCad,Pcbnew,8.0.7*%
%TF.CreationDate,2025-01-21T13:47:47+01:00*%
%TF.ProjectId,motordriver,6d6f746f-7264-4726-9976-65722e6b6963,rev?*%
%TF.SameCoordinates,Original*%
%TF.FileFunction,Drillmap*%
%TF.FilePolarity,Positive*%
%FSLAX45Y45*%
G04 Gerber Fmt 4.5, Leading zero omitted, Abs format (unit mm)*
G04 Created by KiCad (PCBNEW 8.0.7) date 2025-01-21 13:47:47*
%MOMM*%
%LPD*%
G01*
G04 APERTURE LIST*
%ADD10C,0.050000*%
%ADD11C,0.200000*%
%ADD12C,0.100000*%
G04 APERTURE END LIST*
D10*
X21502750Y-3100000D02*
X21502750Y-14900000D01*
X9502750Y-2900000D02*
X21302750Y-2900000D01*
X21302750Y-2900000D02*
G75*
G02*
X21502750Y-3100000I0J-200000D01*
G01*
X9302750Y-3100000D02*
G75*
G02*
X9502750Y-2900000I200000J0D01*
G01*
X9502750Y-15100000D02*
G75*
G02*
X9302750Y-14900000I0J200000D01*
G01*
X9302750Y-14900000D02*
X9302750Y-3100000D01*
X21302750Y-15100000D02*
X9502750Y-15100000D01*
X21502750Y-14900000D02*
G75*
G02*
X21302750Y-15100000I-200000J0D01*
G01*
D11*
D12*
X15081250Y-14334500D02*
X15146250Y-14399500D01*
X15146250Y-14334500D02*
X15081250Y-14399500D01*
X15659250Y-14334500D02*
X15724250Y-14399500D01*
X15724250Y-14334500D02*
X15659250Y-14399500D01*
D11*
X9561027Y-15413984D02*
X9561027Y-15213984D01*
X9561027Y-15213984D02*
X9608646Y-15213984D01*
X9608646Y-15213984D02*
X9637217Y-15223508D01*
X9637217Y-15223508D02*
X9656265Y-15242555D01*
X9656265Y-15242555D02*
X9665789Y-15261603D01*
X9665789Y-15261603D02*
X9675313Y-15299698D01*
X9675313Y-15299698D02*
X9675313Y-15328269D01*
X9675313Y-15328269D02*
X9665789Y-15366365D01*
X9665789Y-15366365D02*
X9656265Y-15385412D01*
X9656265Y-15385412D02*
X9637217Y-15404460D01*
X9637217Y-15404460D02*
X9608646Y-15413984D01*
X9608646Y-15413984D02*
X9561027Y-15413984D01*
X9761027Y-15413984D02*
X9761027Y-15280650D01*
X9761027Y-15318746D02*
X9770551Y-15299698D01*
X9770551Y-15299698D02*
X9780075Y-15290174D01*
X9780075Y-15290174D02*
X9799122Y-15280650D01*
X9799122Y-15280650D02*
X9818170Y-15280650D01*
X9884836Y-15413984D02*
X9884836Y-15280650D01*
X9884836Y-15213984D02*
X9875313Y-15223508D01*
X9875313Y-15223508D02*
X9884836Y-15233031D01*
X9884836Y-15233031D02*
X9894360Y-15223508D01*
X9894360Y-15223508D02*
X9884836Y-15213984D01*
X9884836Y-15213984D02*
X9884836Y-15233031D01*
X10008646Y-15413984D02*
X9989598Y-15404460D01*
X9989598Y-15404460D02*
X9980075Y-15385412D01*
X9980075Y-15385412D02*
X9980075Y-15213984D01*
X10113408Y-15413984D02*
X10094360Y-15404460D01*
X10094360Y-15404460D02*
X10084836Y-15385412D01*
X10084836Y-15385412D02*
X10084836Y-15213984D01*
X10341979Y-15413984D02*
X10341979Y-15213984D01*
X10341979Y-15213984D02*
X10408646Y-15356841D01*
X10408646Y-15356841D02*
X10475313Y-15213984D01*
X10475313Y-15213984D02*
X10475313Y-15413984D01*
X10656265Y-15413984D02*
X10656265Y-15309222D01*
X10656265Y-15309222D02*
X10646741Y-15290174D01*
X10646741Y-15290174D02*
X10627694Y-15280650D01*
X10627694Y-15280650D02*
X10589598Y-15280650D01*
X10589598Y-15280650D02*
X10570551Y-15290174D01*
X10656265Y-15404460D02*
X10637217Y-15413984D01*
X10637217Y-15413984D02*
X10589598Y-15413984D01*
X10589598Y-15413984D02*
X10570551Y-15404460D01*
X10570551Y-15404460D02*
X10561027Y-15385412D01*
X10561027Y-15385412D02*
X10561027Y-15366365D01*
X10561027Y-15366365D02*
X10570551Y-15347317D01*
X10570551Y-15347317D02*
X10589598Y-15337793D01*
X10589598Y-15337793D02*
X10637217Y-15337793D01*
X10637217Y-15337793D02*
X10656265Y-15328269D01*
X10751503Y-15280650D02*
X10751503Y-15480650D01*
X10751503Y-15290174D02*
X10770551Y-15280650D01*
X10770551Y-15280650D02*
X10808646Y-15280650D01*
X10808646Y-15280650D02*
X10827694Y-15290174D01*
X10827694Y-15290174D02*
X10837217Y-15299698D01*
X10837217Y-15299698D02*
X10846741Y-15318746D01*
X10846741Y-15318746D02*
X10846741Y-15375888D01*
X10846741Y-15375888D02*
X10837217Y-15394936D01*
X10837217Y-15394936D02*
X10827694Y-15404460D01*
X10827694Y-15404460D02*
X10808646Y-15413984D01*
X10808646Y-15413984D02*
X10770551Y-15413984D01*
X10770551Y-15413984D02*
X10751503Y-15404460D01*
X10932456Y-15394936D02*
X10941979Y-15404460D01*
X10941979Y-15404460D02*
X10932456Y-15413984D01*
X10932456Y-15413984D02*
X10922932Y-15404460D01*
X10922932Y-15404460D02*
X10932456Y-15394936D01*
X10932456Y-15394936D02*
X10932456Y-15413984D01*
X10932456Y-15290174D02*
X10941979Y-15299698D01*
X10941979Y-15299698D02*
X10932456Y-15309222D01*
X10932456Y-15309222D02*
X10922932Y-15299698D01*
X10922932Y-15299698D02*
X10932456Y-15290174D01*
X10932456Y-15290174D02*
X10932456Y-15309222D01*
D12*
X9235250Y-15710000D02*
X9300250Y-15775000D01*
X9300250Y-15710000D02*
X9235250Y-15775000D01*
D11*
X9599122Y-15633984D02*
X9618170Y-15633984D01*
X9618170Y-15633984D02*
X9637217Y-15643508D01*
X9637217Y-15643508D02*
X9646741Y-15653031D01*
X9646741Y-15653031D02*
X9656265Y-15672079D01*
X9656265Y-15672079D02*
X9665789Y-15710174D01*
X9665789Y-15710174D02*
X9665789Y-15757793D01*
X9665789Y-15757793D02*
X9656265Y-15795888D01*
X9656265Y-15795888D02*
X9646741Y-15814936D01*
X9646741Y-15814936D02*
X9637217Y-15824460D01*
X9637217Y-15824460D02*
X9618170Y-15833984D01*
X9618170Y-15833984D02*
X9599122Y-15833984D01*
X9599122Y-15833984D02*
X9580075Y-15824460D01*
X9580075Y-15824460D02*
X9570551Y-15814936D01*
X9570551Y-15814936D02*
X9561027Y-15795888D01*
X9561027Y-15795888D02*
X9551503Y-15757793D01*
X9551503Y-15757793D02*
X9551503Y-15710174D01*
X9551503Y-15710174D02*
X9561027Y-15672079D01*
X9561027Y-15672079D02*
X9570551Y-15653031D01*
X9570551Y-15653031D02*
X9580075Y-15643508D01*
X9580075Y-15643508D02*
X9599122Y-15633984D01*
X9751503Y-15814936D02*
X9761027Y-15824460D01*
X9761027Y-15824460D02*
X9751503Y-15833984D01*
X9751503Y-15833984D02*
X9741979Y-15824460D01*
X9741979Y-15824460D02*
X9751503Y-15814936D01*
X9751503Y-15814936D02*
X9751503Y-15833984D01*
X9932456Y-15633984D02*
X9894360Y-15633984D01*
X9894360Y-15633984D02*
X9875313Y-15643508D01*
X9875313Y-15643508D02*
X9865789Y-15653031D01*
X9865789Y-15653031D02*
X9846741Y-15681603D01*
X9846741Y-15681603D02*
X9837217Y-15719698D01*
X9837217Y-15719698D02*
X9837217Y-15795888D01*
X9837217Y-15795888D02*
X9846741Y-15814936D01*
X9846741Y-15814936D02*
X9856265Y-15824460D01*
X9856265Y-15824460D02*
X9875313Y-15833984D01*
X9875313Y-15833984D02*
X9913408Y-15833984D01*
X9913408Y-15833984D02*
X9932456Y-15824460D01*
X9932456Y-15824460D02*
X9941979Y-15814936D01*
X9941979Y-15814936D02*
X9951503Y-15795888D01*
X9951503Y-15795888D02*
X9951503Y-15748269D01*
X9951503Y-15748269D02*
X9941979Y-15729222D01*
X9941979Y-15729222D02*
X9932456Y-15719698D01*
X9932456Y-15719698D02*
X9913408Y-15710174D01*
X9913408Y-15710174D02*
X9875313Y-15710174D01*
X9875313Y-15710174D02*
X9856265Y-15719698D01*
X9856265Y-15719698D02*
X9846741Y-15729222D01*
X9846741Y-15729222D02*
X9837217Y-15748269D01*
X10132456Y-15633984D02*
X10037217Y-15633984D01*
X10037217Y-15633984D02*
X10027694Y-15729222D01*
X10027694Y-15729222D02*
X10037217Y-15719698D01*
X10037217Y-15719698D02*
X10056265Y-15710174D01*
X10056265Y-15710174D02*
X10103884Y-15710174D01*
X10103884Y-15710174D02*
X10122932Y-15719698D01*
X10122932Y-15719698D02*
X10132456Y-15729222D01*
X10132456Y-15729222D02*
X10141979Y-15748269D01*
X10141979Y-15748269D02*
X10141979Y-15795888D01*
X10141979Y-15795888D02*
X10132456Y-15814936D01*
X10132456Y-15814936D02*
X10122932Y-15824460D01*
X10122932Y-15824460D02*
X10103884Y-15833984D01*
X10103884Y-15833984D02*
X10056265Y-15833984D01*
X10056265Y-15833984D02*
X10037217Y-15824460D01*
X10037217Y-15824460D02*
X10027694Y-15814936D01*
X10265789Y-15633984D02*
X10284837Y-15633984D01*
X10284837Y-15633984D02*
X10303884Y-15643508D01*
X10303884Y-15643508D02*
X10313408Y-15653031D01*
X10313408Y-15653031D02*
X10322932Y-15672079D01*
X10322932Y-15672079D02*
X10332456Y-15710174D01*
X10332456Y-15710174D02*
X10332456Y-15757793D01*
X10332456Y-15757793D02*
X10322932Y-15795888D01*
X10322932Y-15795888D02*
X10313408Y-15814936D01*
X10313408Y-15814936D02*
X10303884Y-15824460D01*
X10303884Y-15824460D02*
X10284837Y-15833984D01*
X10284837Y-15833984D02*
X10265789Y-15833984D01*
X10265789Y-15833984D02*
X10246741Y-15824460D01*
X10246741Y-15824460D02*
X10237217Y-15814936D01*
X10237217Y-15814936D02*
X10227694Y-15795888D01*
X10227694Y-15795888D02*
X10218170Y-15757793D01*
X10218170Y-15757793D02*
X10218170Y-15710174D01*
X10218170Y-15710174D02*
X10227694Y-15672079D01*
X10227694Y-15672079D02*
X10237217Y-15653031D01*
X10237217Y-15653031D02*
X10246741Y-15643508D01*
X10246741Y-15643508D02*
X10265789Y-15633984D01*
X10418170Y-15833984D02*
X10418170Y-15700650D01*
X10418170Y-15719698D02*
X10427694Y-15710174D01*
X10427694Y-15710174D02*
X10446741Y-15700650D01*
X10446741Y-15700650D02*
X10475313Y-15700650D01*
X10475313Y-15700650D02*
X10494360Y-15710174D01*
X10494360Y-15710174D02*
X10503884Y-15729222D01*
X10503884Y-15729222D02*
X10503884Y-15833984D01*
X10503884Y-15729222D02*
X10513408Y-15710174D01*
X10513408Y-15710174D02*
X10532456Y-15700650D01*
X10532456Y-15700650D02*
X10561027Y-15700650D01*
X10561027Y-15700650D02*
X10580075Y-15710174D01*
X10580075Y-15710174D02*
X10589598Y-15729222D01*
X10589598Y-15729222D02*
X10589598Y-15833984D01*
X10684837Y-15833984D02*
X10684837Y-15700650D01*
X10684837Y-15719698D02*
X10694360Y-15710174D01*
X10694360Y-15710174D02*
X10713408Y-15700650D01*
X10713408Y-15700650D02*
X10741979Y-15700650D01*
X10741979Y-15700650D02*
X10761027Y-15710174D01*
X10761027Y-15710174D02*
X10770551Y-15729222D01*
X10770551Y-15729222D02*
X10770551Y-15833984D01*
X10770551Y-15729222D02*
X10780075Y-15710174D01*
X10780075Y-15710174D02*
X10799122Y-15700650D01*
X10799122Y-15700650D02*
X10827694Y-15700650D01*
X10827694Y-15700650D02*
X10846741Y-15710174D01*
X10846741Y-15710174D02*
X10856265Y-15729222D01*
X10856265Y-15729222D02*
X10856265Y-15833984D01*
X11246741Y-15624460D02*
X11075313Y-15881603D01*
X11503884Y-15633984D02*
X11522932Y-15633984D01*
X11522932Y-15633984D02*
X11541979Y-15643508D01*
X11541979Y-15643508D02*
X11551503Y-15653031D01*
X11551503Y-15653031D02*
X11561027Y-15672079D01*
X11561027Y-15672079D02*
X11570551Y-15710174D01*
X11570551Y-15710174D02*
X11570551Y-15757793D01*
X11570551Y-15757793D02*
X11561027Y-15795888D01*
X11561027Y-15795888D02*
X11551503Y-15814936D01*
X11551503Y-15814936D02*
X11541979Y-15824460D01*
X11541979Y-15824460D02*
X11522932Y-15833984D01*
X11522932Y-15833984D02*
X11503884Y-15833984D01*
X11503884Y-15833984D02*
X11484837Y-15824460D01*
X11484837Y-15824460D02*
X11475313Y-15814936D01*
X11475313Y-15814936D02*
X11465789Y-15795888D01*
X11465789Y-15795888D02*
X11456265Y-15757793D01*
X11456265Y-15757793D02*
X11456265Y-15710174D01*
X11456265Y-15710174D02*
X11465789Y-15672079D01*
X11465789Y-15672079D02*
X11475313Y-15653031D01*
X11475313Y-15653031D02*
X11484837Y-15643508D01*
X11484837Y-15643508D02*
X11503884Y-15633984D01*
X11656265Y-15814936D02*
X11665789Y-15824460D01*
X11665789Y-15824460D02*
X11656265Y-15833984D01*
X11656265Y-15833984D02*
X11646741Y-15824460D01*
X11646741Y-15824460D02*
X11656265Y-15814936D01*
X11656265Y-15814936D02*
X11656265Y-15833984D01*
X11789598Y-15633984D02*
X11808646Y-15633984D01*
X11808646Y-15633984D02*
X11827694Y-15643508D01*
X11827694Y-15643508D02*
X11837218Y-15653031D01*
X11837218Y-15653031D02*
X11846741Y-15672079D01*
X11846741Y-15672079D02*
X11856265Y-15710174D01*
X11856265Y-15710174D02*
X11856265Y-15757793D01*
X11856265Y-15757793D02*
X11846741Y-15795888D01*
X11846741Y-15795888D02*
X11837218Y-15814936D01*
X11837218Y-15814936D02*
X11827694Y-15824460D01*
X11827694Y-15824460D02*
X11808646Y-15833984D01*
X11808646Y-15833984D02*
X11789598Y-15833984D01*
X11789598Y-15833984D02*
X11770551Y-15824460D01*
X11770551Y-15824460D02*
X11761027Y-15814936D01*
X11761027Y-15814936D02*
X11751503Y-15795888D01*
X11751503Y-15795888D02*
X11741979Y-15757793D01*
X11741979Y-15757793D02*
X11741979Y-15710174D01*
X11741979Y-15710174D02*
X11751503Y-15672079D01*
X11751503Y-15672079D02*
X11761027Y-15653031D01*
X11761027Y-15653031D02*
X11770551Y-15643508D01*
X11770551Y-15643508D02*
X11789598Y-15633984D01*
X11932456Y-15653031D02*
X11941979Y-15643508D01*
X11941979Y-15643508D02*
X11961027Y-15633984D01*
X11961027Y-15633984D02*
X12008646Y-15633984D01*
X12008646Y-15633984D02*
X12027694Y-15643508D01*
X12027694Y-15643508D02*
X12037218Y-15653031D01*
X12037218Y-15653031D02*
X12046741Y-15672079D01*
X12046741Y-15672079D02*
X12046741Y-15691127D01*
X12046741Y-15691127D02*
X12037218Y-15719698D01*
X12037218Y-15719698D02*
X11922932Y-15833984D01*
X11922932Y-15833984D02*
X12046741Y-15833984D01*
X12227694Y-15633984D02*
X12132456Y-15633984D01*
X12132456Y-15633984D02*
X12122932Y-15729222D01*
X12122932Y-15729222D02*
X12132456Y-15719698D01*
X12132456Y-15719698D02*
X12151503Y-15710174D01*
X12151503Y-15710174D02*
X12199122Y-15710174D01*
X12199122Y-15710174D02*
X12218170Y-15719698D01*
X12218170Y-15719698D02*
X12227694Y-15729222D01*
X12227694Y-15729222D02*
X12237218Y-15748269D01*
X12237218Y-15748269D02*
X12237218Y-15795888D01*
X12237218Y-15795888D02*
X12227694Y-15814936D01*
X12227694Y-15814936D02*
X12218170Y-15824460D01*
X12218170Y-15824460D02*
X12199122Y-15833984D01*
X12199122Y-15833984D02*
X12151503Y-15833984D01*
X12151503Y-15833984D02*
X12132456Y-15824460D01*
X12132456Y-15824460D02*
X12122932Y-15814936D01*
X12408646Y-15633984D02*
X12370551Y-15633984D01*
X12370551Y-15633984D02*
X12351503Y-15643508D01*
X12351503Y-15643508D02*
X12341979Y-15653031D01*
X12341979Y-15653031D02*
X12322932Y-15681603D01*
X12322932Y-15681603D02*
X12313408Y-15719698D01*
X12313408Y-15719698D02*
X12313408Y-15795888D01*
X12313408Y-15795888D02*
X12322932Y-15814936D01*
X12322932Y-15814936D02*
X12332456Y-15824460D01*
X12332456Y-15824460D02*
X12351503Y-15833984D01*
X12351503Y-15833984D02*
X12389599Y-15833984D01*
X12389599Y-15833984D02*
X12408646Y-15824460D01*
X12408646Y-15824460D02*
X12418170Y-15814936D01*
X12418170Y-15814936D02*
X12427694Y-15795888D01*
X12427694Y-15795888D02*
X12427694Y-15748269D01*
X12427694Y-15748269D02*
X12418170Y-15729222D01*
X12418170Y-15729222D02*
X12408646Y-15719698D01*
X12408646Y-15719698D02*
X12389599Y-15710174D01*
X12389599Y-15710174D02*
X12351503Y-15710174D01*
X12351503Y-15710174D02*
X12332456Y-15719698D01*
X12332456Y-15719698D02*
X12322932Y-15729222D01*
X12322932Y-15729222D02*
X12313408Y-15748269D01*
X12503884Y-15633984D02*
X12503884Y-15672079D01*
X12580075Y-15633984D02*
X12580075Y-15672079D01*
X12875313Y-15910174D02*
X12865789Y-15900650D01*
X12865789Y-15900650D02*
X12846741Y-15872079D01*
X12846741Y-15872079D02*
X12837218Y-15853031D01*
X12837218Y-15853031D02*
X12827694Y-15824460D01*
X12827694Y-15824460D02*
X12818170Y-15776841D01*
X12818170Y-15776841D02*
X12818170Y-15738746D01*
X12818170Y-15738746D02*
X12827694Y-15691127D01*
X12827694Y-15691127D02*
X12837218Y-15662555D01*
X12837218Y-15662555D02*
X12846741Y-15643508D01*
X12846741Y-15643508D02*
X12865789Y-15614936D01*
X12865789Y-15614936D02*
X12875313Y-15605412D01*
X12941980Y-15653031D02*
X12951503Y-15643508D01*
X12951503Y-15643508D02*
X12970551Y-15633984D01*
X12970551Y-15633984D02*
X13018170Y-15633984D01*
X13018170Y-15633984D02*
X13037218Y-15643508D01*
X13037218Y-15643508D02*
X13046741Y-15653031D01*
X13046741Y-15653031D02*
X13056265Y-15672079D01*
X13056265Y-15672079D02*
X13056265Y-15691127D01*
X13056265Y-15691127D02*
X13046741Y-15719698D01*
X13046741Y-15719698D02*
X12932456Y-15833984D01*
X12932456Y-15833984D02*
X13056265Y-15833984D01*
X13294361Y-15833984D02*
X13294361Y-15633984D01*
X13380075Y-15833984D02*
X13380075Y-15729222D01*
X13380075Y-15729222D02*
X13370551Y-15710174D01*
X13370551Y-15710174D02*
X13351503Y-15700650D01*
X13351503Y-15700650D02*
X13322932Y-15700650D01*
X13322932Y-15700650D02*
X13303884Y-15710174D01*
X13303884Y-15710174D02*
X13294361Y-15719698D01*
X13503884Y-15833984D02*
X13484837Y-15824460D01*
X13484837Y-15824460D02*
X13475313Y-15814936D01*
X13475313Y-15814936D02*
X13465789Y-15795888D01*
X13465789Y-15795888D02*
X13465789Y-15738746D01*
X13465789Y-15738746D02*
X13475313Y-15719698D01*
X13475313Y-15719698D02*
X13484837Y-15710174D01*
X13484837Y-15710174D02*
X13503884Y-15700650D01*
X13503884Y-15700650D02*
X13532456Y-15700650D01*
X13532456Y-15700650D02*
X13551503Y-15710174D01*
X13551503Y-15710174D02*
X13561027Y-15719698D01*
X13561027Y-15719698D02*
X13570551Y-15738746D01*
X13570551Y-15738746D02*
X13570551Y-15795888D01*
X13570551Y-15795888D02*
X13561027Y-15814936D01*
X13561027Y-15814936D02*
X13551503Y-15824460D01*
X13551503Y-15824460D02*
X13532456Y-15833984D01*
X13532456Y-15833984D02*
X13503884Y-15833984D01*
X13684837Y-15833984D02*
X13665789Y-15824460D01*
X13665789Y-15824460D02*
X13656265Y-15805412D01*
X13656265Y-15805412D02*
X13656265Y-15633984D01*
X13837218Y-15824460D02*
X13818170Y-15833984D01*
X13818170Y-15833984D02*
X13780075Y-15833984D01*
X13780075Y-15833984D02*
X13761027Y-15824460D01*
X13761027Y-15824460D02*
X13751503Y-15805412D01*
X13751503Y-15805412D02*
X13751503Y-15729222D01*
X13751503Y-15729222D02*
X13761027Y-15710174D01*
X13761027Y-15710174D02*
X13780075Y-15700650D01*
X13780075Y-15700650D02*
X13818170Y-15700650D01*
X13818170Y-15700650D02*
X13837218Y-15710174D01*
X13837218Y-15710174D02*
X13846742Y-15729222D01*
X13846742Y-15729222D02*
X13846742Y-15748269D01*
X13846742Y-15748269D02*
X13751503Y-15767317D01*
X13922932Y-15824460D02*
X13941980Y-15833984D01*
X13941980Y-15833984D02*
X13980075Y-15833984D01*
X13980075Y-15833984D02*
X13999123Y-15824460D01*
X13999123Y-15824460D02*
X14008646Y-15805412D01*
X14008646Y-15805412D02*
X14008646Y-15795888D01*
X14008646Y-15795888D02*
X13999123Y-15776841D01*
X13999123Y-15776841D02*
X13980075Y-15767317D01*
X13980075Y-15767317D02*
X13951503Y-15767317D01*
X13951503Y-15767317D02*
X13932456Y-15757793D01*
X13932456Y-15757793D02*
X13922932Y-15738746D01*
X13922932Y-15738746D02*
X13922932Y-15729222D01*
X13922932Y-15729222D02*
X13932456Y-15710174D01*
X13932456Y-15710174D02*
X13951503Y-15700650D01*
X13951503Y-15700650D02*
X13980075Y-15700650D01*
X13980075Y-15700650D02*
X13999123Y-15710174D01*
X14075313Y-15910174D02*
X14084837Y-15900650D01*
X14084837Y-15900650D02*
X14103884Y-15872079D01*
X14103884Y-15872079D02*
X14113408Y-15853031D01*
X14113408Y-15853031D02*
X14122932Y-15824460D01*
X14122932Y-15824460D02*
X14132456Y-15776841D01*
X14132456Y-15776841D02*
X14132456Y-15738746D01*
X14132456Y-15738746D02*
X14122932Y-15691127D01*
X14122932Y-15691127D02*
X14113408Y-15662555D01*
X14113408Y-15662555D02*
X14103884Y-15643508D01*
X14103884Y-15643508D02*
X14084837Y-15614936D01*
X14084837Y-15614936D02*
X14075313Y-15605412D01*
X14437218Y-15910174D02*
X14427694Y-15900650D01*
X14427694Y-15900650D02*
X14408646Y-15872079D01*
X14408646Y-15872079D02*
X14399123Y-15853031D01*
X14399123Y-15853031D02*
X14389599Y-15824460D01*
X14389599Y-15824460D02*
X14380075Y-15776841D01*
X14380075Y-15776841D02*
X14380075Y-15738746D01*
X14380075Y-15738746D02*
X14389599Y-15691127D01*
X14389599Y-15691127D02*
X14399123Y-15662555D01*
X14399123Y-15662555D02*
X14408646Y-15643508D01*
X14408646Y-15643508D02*
X14427694Y-15614936D01*
X14427694Y-15614936D02*
X14437218Y-15605412D01*
X14513408Y-15700650D02*
X14513408Y-15833984D01*
X14513408Y-15719698D02*
X14522932Y-15710174D01*
X14522932Y-15710174D02*
X14541980Y-15700650D01*
X14541980Y-15700650D02*
X14570551Y-15700650D01*
X14570551Y-15700650D02*
X14589599Y-15710174D01*
X14589599Y-15710174D02*
X14599123Y-15729222D01*
X14599123Y-15729222D02*
X14599123Y-15833984D01*
X14722932Y-15833984D02*
X14703884Y-15824460D01*
X14703884Y-15824460D02*
X14694361Y-15814936D01*
X14694361Y-15814936D02*
X14684837Y-15795888D01*
X14684837Y-15795888D02*
X14684837Y-15738746D01*
X14684837Y-15738746D02*
X14694361Y-15719698D01*
X14694361Y-15719698D02*
X14703884Y-15710174D01*
X14703884Y-15710174D02*
X14722932Y-15700650D01*
X14722932Y-15700650D02*
X14751504Y-15700650D01*
X14751504Y-15700650D02*
X14770551Y-15710174D01*
X14770551Y-15710174D02*
X14780075Y-15719698D01*
X14780075Y-15719698D02*
X14789599Y-15738746D01*
X14789599Y-15738746D02*
X14789599Y-15795888D01*
X14789599Y-15795888D02*
X14780075Y-15814936D01*
X14780075Y-15814936D02*
X14770551Y-15824460D01*
X14770551Y-15824460D02*
X14751504Y-15833984D01*
X14751504Y-15833984D02*
X14722932Y-15833984D01*
X14846742Y-15700650D02*
X14922932Y-15700650D01*
X14875313Y-15633984D02*
X14875313Y-15805412D01*
X14875313Y-15805412D02*
X14884837Y-15824460D01*
X14884837Y-15824460D02*
X14903884Y-15833984D01*
X14903884Y-15833984D02*
X14922932Y-15833984D01*
X15141980Y-15700650D02*
X15141980Y-15900650D01*
X15141980Y-15710174D02*
X15161027Y-15700650D01*
X15161027Y-15700650D02*
X15199123Y-15700650D01*
X15199123Y-15700650D02*
X15218170Y-15710174D01*
X15218170Y-15710174D02*
X15227694Y-15719698D01*
X15227694Y-15719698D02*
X15237218Y-15738746D01*
X15237218Y-15738746D02*
X15237218Y-15795888D01*
X15237218Y-15795888D02*
X15227694Y-15814936D01*
X15227694Y-15814936D02*
X15218170Y-15824460D01*
X15218170Y-15824460D02*
X15199123Y-15833984D01*
X15199123Y-15833984D02*
X15161027Y-15833984D01*
X15161027Y-15833984D02*
X15141980Y-15824460D01*
X15351504Y-15833984D02*
X15332456Y-15824460D01*
X15332456Y-15824460D02*
X15322932Y-15805412D01*
X15322932Y-15805412D02*
X15322932Y-15633984D01*
X15513408Y-15833984D02*
X15513408Y-15729222D01*
X15513408Y-15729222D02*
X15503885Y-15710174D01*
X15503885Y-15710174D02*
X15484837Y-15700650D01*
X15484837Y-15700650D02*
X15446742Y-15700650D01*
X15446742Y-15700650D02*
X15427694Y-15710174D01*
X15513408Y-15824460D02*
X15494361Y-15833984D01*
X15494361Y-15833984D02*
X15446742Y-15833984D01*
X15446742Y-15833984D02*
X15427694Y-15824460D01*
X15427694Y-15824460D02*
X15418170Y-15805412D01*
X15418170Y-15805412D02*
X15418170Y-15786365D01*
X15418170Y-15786365D02*
X15427694Y-15767317D01*
X15427694Y-15767317D02*
X15446742Y-15757793D01*
X15446742Y-15757793D02*
X15494361Y-15757793D01*
X15494361Y-15757793D02*
X15513408Y-15748269D01*
X15580075Y-15700650D02*
X15656265Y-15700650D01*
X15608646Y-15633984D02*
X15608646Y-15805412D01*
X15608646Y-15805412D02*
X15618170Y-15824460D01*
X15618170Y-15824460D02*
X15637218Y-15833984D01*
X15637218Y-15833984D02*
X15656265Y-15833984D01*
X15799123Y-15824460D02*
X15780075Y-15833984D01*
X15780075Y-15833984D02*
X15741980Y-15833984D01*
X15741980Y-15833984D02*
X15722932Y-15824460D01*
X15722932Y-15824460D02*
X15713408Y-15805412D01*
X15713408Y-15805412D02*
X15713408Y-15729222D01*
X15713408Y-15729222D02*
X15722932Y-15710174D01*
X15722932Y-15710174D02*
X15741980Y-15700650D01*
X15741980Y-15700650D02*
X15780075Y-15700650D01*
X15780075Y-15700650D02*
X15799123Y-15710174D01*
X15799123Y-15710174D02*
X15808646Y-15729222D01*
X15808646Y-15729222D02*
X15808646Y-15748269D01*
X15808646Y-15748269D02*
X15713408Y-15767317D01*
X15980075Y-15833984D02*
X15980075Y-15633984D01*
X15980075Y-15824460D02*
X15961027Y-15833984D01*
X15961027Y-15833984D02*
X15922932Y-15833984D01*
X15922932Y-15833984D02*
X15903885Y-15824460D01*
X15903885Y-15824460D02*
X15894361Y-15814936D01*
X15894361Y-15814936D02*
X15884837Y-15795888D01*
X15884837Y-15795888D02*
X15884837Y-15738746D01*
X15884837Y-15738746D02*
X15894361Y-15719698D01*
X15894361Y-15719698D02*
X15903885Y-15710174D01*
X15903885Y-15710174D02*
X15922932Y-15700650D01*
X15922932Y-15700650D02*
X15961027Y-15700650D01*
X15961027Y-15700650D02*
X15980075Y-15710174D01*
X16056266Y-15910174D02*
X16065789Y-15900650D01*
X16065789Y-15900650D02*
X16084837Y-15872079D01*
X16084837Y-15872079D02*
X16094361Y-15853031D01*
X16094361Y-15853031D02*
X16103885Y-15824460D01*
X16103885Y-15824460D02*
X16113408Y-15776841D01*
X16113408Y-15776841D02*
X16113408Y-15738746D01*
X16113408Y-15738746D02*
X16103885Y-15691127D01*
X16103885Y-15691127D02*
X16094361Y-15662555D01*
X16094361Y-15662555D02*
X16084837Y-15643508D01*
X16084837Y-15643508D02*
X16065789Y-15614936D01*
X16065789Y-15614936D02*
X16056266Y-15605412D01*
M02*
