%TF.GenerationSoftware,KiCad,Pcbnew,8.0.7*%
%TF.CreationDate,2025-01-21T13:47:34+01:00*%
%TF.ProjectId,motordriver,6d6f746f-7264-4726-9976-65722e6b6963,rev?*%
%TF.SameCoordinates,Original*%
%TF.FileFunction,Soldermask,Top*%
%TF.FilePolarity,Negative*%
%FSLAX46Y46*%
G04 Gerber Fmt 4.6, Leading zero omitted, Abs format (unit mm)*
G04 Created by KiCad (PCBNEW 8.0.7) date 2025-01-21 13:47:34*
%MOMM*%
%LPD*%
G01*
G04 APERTURE LIST*
G04 Aperture macros list*
%AMRoundRect*
0 Rectangle with rounded corners*
0 $1 Rounding radius*
0 $2 $3 $4 $5 $6 $7 $8 $9 X,Y pos of 4 corners*
0 Add a 4 corners polygon primitive as box body*
4,1,4,$2,$3,$4,$5,$6,$7,$8,$9,$2,$3,0*
0 Add four circle primitives for the rounded corners*
1,1,$1+$1,$2,$3*
1,1,$1+$1,$4,$5*
1,1,$1+$1,$6,$7*
1,1,$1+$1,$8,$9*
0 Add four rect primitives between the rounded corners*
20,1,$1+$1,$2,$3,$4,$5,0*
20,1,$1+$1,$4,$5,$6,$7,0*
20,1,$1+$1,$6,$7,$8,$9,0*
20,1,$1+$1,$8,$9,$2,$3,0*%
%AMRotRect*
0 Rectangle, with rotation*
0 The origin of the aperture is its center*
0 $1 length*
0 $2 width*
0 $3 Rotation angle, in degrees counterclockwise*
0 Add horizontal line*
21,1,$1,$2,0,0,$3*%
G04 Aperture macros list end*
%ADD10RoundRect,0.200000X-0.200000X-0.275000X0.200000X-0.275000X0.200000X0.275000X-0.200000X0.275000X0*%
%ADD11RoundRect,0.225000X-0.225000X-0.250000X0.225000X-0.250000X0.225000X0.250000X-0.225000X0.250000X0*%
%ADD12C,1.500000*%
%ADD13RoundRect,0.225000X0.225000X0.250000X-0.225000X0.250000X-0.225000X-0.250000X0.225000X-0.250000X0*%
%ADD14R,2.200000X1.200000*%
%ADD15R,6.400000X5.800000*%
%ADD16R,0.850000X1.050000*%
%ADD17RoundRect,0.200000X-0.275000X0.200000X-0.275000X-0.200000X0.275000X-0.200000X0.275000X0.200000X0*%
%ADD18RoundRect,0.200000X0.200000X0.275000X-0.200000X0.275000X-0.200000X-0.275000X0.200000X-0.275000X0*%
%ADD19RoundRect,0.200000X0.275000X-0.200000X0.275000X0.200000X-0.275000X0.200000X-0.275000X-0.200000X0*%
%ADD20RotRect,0.250000X0.900000X315.000000*%
%ADD21RotRect,0.250000X0.900000X225.000000*%
%ADD22RotRect,4.800000X4.800000X225.000000*%
%ADD23RoundRect,0.225000X-0.250000X0.225000X-0.250000X-0.225000X0.250000X-0.225000X0.250000X0.225000X0*%
%ADD24RoundRect,0.225000X0.335876X0.017678X0.017678X0.335876X-0.335876X-0.017678X-0.017678X-0.335876X0*%
%ADD25C,5.600000*%
%ADD26RoundRect,0.218750X0.256250X-0.218750X0.256250X0.218750X-0.256250X0.218750X-0.256250X-0.218750X0*%
%ADD27RoundRect,0.218750X0.218750X0.256250X-0.218750X0.256250X-0.218750X-0.256250X0.218750X-0.256250X0*%
%ADD28RoundRect,0.225000X-0.017678X0.335876X-0.335876X0.017678X0.017678X-0.335876X0.335876X-0.017678X0*%
%ADD29RoundRect,0.225000X0.250000X-0.225000X0.250000X0.225000X-0.250000X0.225000X-0.250000X-0.225000X0*%
%ADD30R,1.050000X0.850000*%
%ADD31R,1.200000X2.200000*%
%ADD32R,5.800000X6.400000*%
%ADD33RoundRect,0.225000X-0.335876X-0.017678X-0.017678X-0.335876X0.335876X0.017678X0.017678X0.335876X0*%
%ADD34RotRect,0.900000X1.000000X45.000000*%
%ADD35R,0.280000X0.850000*%
%ADD36R,0.850000X0.280000*%
%ADD37R,2.050000X3.100000*%
%ADD38R,3.400000X2.400000*%
%ADD39R,0.450000X1.475000*%
%ADD40R,5.180000X3.100000*%
%ADD41RoundRect,0.375000X0.625000X0.375000X-0.625000X0.375000X-0.625000X-0.375000X0.625000X-0.375000X0*%
%ADD42RoundRect,0.500000X0.500000X1.400000X-0.500000X1.400000X-0.500000X-1.400000X0.500000X-1.400000X0*%
%ADD43R,0.850000X0.200000*%
%ADD44R,0.200000X0.850000*%
%ADD45R,9.100000X5.100000*%
%ADD46RoundRect,0.225000X0.017678X-0.335876X0.335876X-0.017678X-0.017678X0.335876X-0.335876X0.017678X0*%
%ADD47RoundRect,0.375000X0.375000X-0.625000X0.375000X0.625000X-0.375000X0.625000X-0.375000X-0.625000X0*%
%ADD48RoundRect,0.500000X1.400000X-0.500000X1.400000X0.500000X-1.400000X0.500000X-1.400000X-0.500000X0*%
%ADD49RoundRect,0.375000X-0.625000X-0.375000X0.625000X-0.375000X0.625000X0.375000X-0.625000X0.375000X0*%
%ADD50RoundRect,0.500000X-0.500000X-1.400000X0.500000X-1.400000X0.500000X1.400000X-0.500000X1.400000X0*%
%ADD51R,1.700000X1.700000*%
%ADD52O,1.700000X1.700000*%
%ADD53RoundRect,0.218750X-0.218750X-0.256250X0.218750X-0.256250X0.218750X0.256250X-0.218750X0.256250X0*%
%ADD54C,0.650000*%
%ADD55R,0.300000X1.150000*%
%ADD56R,2.180000X2.000000*%
%ADD57C,2.000000*%
%ADD58R,0.800000X0.300000*%
%ADD59R,0.300000X0.800000*%
%ADD60R,2.750000X2.750000*%
%ADD61R,2.400000X3.400000*%
%ADD62C,6.204000*%
%ADD63RoundRect,0.102000X3.000000X3.000000X-3.000000X3.000000X-3.000000X-3.000000X3.000000X-3.000000X0*%
G04 APERTURE END LIST*
D10*
%TO.C,R45*%
X166002501Y-140000000D03*
X167652501Y-140000000D03*
%TD*%
D11*
%TO.C,C83*%
X157677501Y-133200000D03*
X159227501Y-133200000D03*
%TD*%
D10*
%TO.C,R20*%
X152252501Y-114200000D03*
X153902501Y-114200000D03*
%TD*%
D12*
%TO.C,TP3*%
X183507501Y-143460000D03*
%TD*%
D13*
%TO.C,C132*%
X199237501Y-80930000D03*
X197687501Y-80930000D03*
%TD*%
%TO.C,C87*%
X130826601Y-75225000D03*
X129276601Y-75225000D03*
%TD*%
D14*
%TO.C,Q9*%
X156977501Y-112110000D03*
D15*
X163327501Y-114400000D03*
D14*
X156977501Y-116690000D03*
%TD*%
D16*
%TO.C,D72*%
X199552501Y-85680000D03*
X197852501Y-85680000D03*
%TD*%
D17*
%TO.C,R96*%
X191492501Y-87230000D03*
X191492501Y-88880000D03*
%TD*%
D18*
%TO.C,R21*%
X145252501Y-106000000D03*
X143602501Y-106000000D03*
%TD*%
%TO.C,R30*%
X140652501Y-109800000D03*
X139002501Y-109800000D03*
%TD*%
D19*
%TO.C,R99*%
X194202501Y-68880000D03*
X194202501Y-67230000D03*
%TD*%
D12*
%TO.C,TP2*%
X178427501Y-146000000D03*
%TD*%
D20*
%TO.C,IC8*%
X159790421Y-89540381D03*
X159436868Y-89186827D03*
X159083314Y-88833274D03*
X158729761Y-88479720D03*
X158376208Y-88126167D03*
X158022654Y-87772614D03*
X157669101Y-87419060D03*
X157315548Y-87065507D03*
X156961994Y-86711953D03*
X156608441Y-86358400D03*
X156254887Y-86004847D03*
X155901334Y-85651293D03*
X155547781Y-85297740D03*
X155194227Y-84944187D03*
X154840674Y-84590633D03*
X154487120Y-84237080D03*
D21*
X153567882Y-84237080D03*
X153214328Y-84590633D03*
X152860775Y-84944187D03*
X152507221Y-85297740D03*
X152153668Y-85651293D03*
X151800115Y-86004847D03*
X151446561Y-86358400D03*
X151093008Y-86711953D03*
X150739454Y-87065507D03*
X150385901Y-87419060D03*
X150032348Y-87772614D03*
X149678794Y-88126167D03*
X149325241Y-88479720D03*
X148971688Y-88833274D03*
X148618134Y-89186827D03*
X148264581Y-89540381D03*
D20*
X148264581Y-90459619D03*
X148618134Y-90813173D03*
X148971688Y-91166726D03*
X149325241Y-91520280D03*
X149678794Y-91873833D03*
X150032348Y-92227386D03*
X150385901Y-92580940D03*
X150739454Y-92934493D03*
X151093008Y-93288047D03*
X151446561Y-93641600D03*
X151800115Y-93995153D03*
X152153668Y-94348707D03*
X152507221Y-94702260D03*
X152860775Y-95055813D03*
X153214328Y-95409367D03*
X153567882Y-95762920D03*
D21*
X154487120Y-95762920D03*
X154840674Y-95409367D03*
X155194227Y-95055813D03*
X155547781Y-94702260D03*
X155901334Y-94348707D03*
X156254887Y-93995153D03*
X156608441Y-93641600D03*
X156961994Y-93288047D03*
X157315548Y-92934493D03*
X157669101Y-92580940D03*
X158022654Y-92227386D03*
X158376208Y-91873833D03*
X158729761Y-91520280D03*
X159083314Y-91166726D03*
X159436868Y-90813173D03*
X159790421Y-90459619D03*
D22*
X154027501Y-90000000D03*
%TD*%
D11*
%TO.C,C98*%
X109216601Y-75855000D03*
X110766601Y-75855000D03*
%TD*%
D16*
%TO.C,D54*%
X121186601Y-56075000D03*
X119486601Y-56075000D03*
%TD*%
D17*
%TO.C,R36*%
X120827501Y-92025000D03*
X120827501Y-93675000D03*
%TD*%
D10*
%TO.C,R54*%
X164962501Y-44810000D03*
X166612501Y-44810000D03*
%TD*%
D18*
%TO.C,R56*%
X156352501Y-57980000D03*
X154702501Y-57980000D03*
%TD*%
D23*
%TO.C,C12*%
X151727501Y-120125000D03*
X151727501Y-121675000D03*
%TD*%
D24*
%TO.C,C80*%
X160179493Y-99044024D03*
X159083477Y-97948008D03*
%TD*%
D10*
%TO.C,R23*%
X152277501Y-116500000D03*
X153927501Y-116500000D03*
%TD*%
D25*
%TO.C,H2*%
X209027501Y-43000000D03*
%TD*%
D10*
%TO.C,R104*%
X187302501Y-89380000D03*
X188952501Y-89380000D03*
%TD*%
D13*
%TO.C,C51*%
X166637501Y-49610000D03*
X165087501Y-49610000D03*
%TD*%
D26*
%TO.C,D7*%
X153902501Y-112600000D03*
X153902501Y-111025000D03*
%TD*%
D13*
%TO.C,C107*%
X130802501Y-66100000D03*
X129252501Y-66100000D03*
%TD*%
D16*
%TO.C,D43*%
X128626601Y-62675000D03*
X126926601Y-62675000D03*
%TD*%
D12*
%TO.C,TP7*%
X183507501Y-146000000D03*
%TD*%
D18*
%TO.C,R63*%
X156352501Y-130600000D03*
X154702501Y-130600000D03*
%TD*%
D13*
%TO.C,C28*%
X198802501Y-128700000D03*
X197252501Y-128700000D03*
%TD*%
D19*
%TO.C,R26*%
X146727501Y-104525000D03*
X146727501Y-102875000D03*
%TD*%
D23*
%TO.C,C20*%
X110577501Y-94825000D03*
X110577501Y-96375000D03*
%TD*%
D16*
%TO.C,D41*%
X128586601Y-57625000D03*
X126886601Y-57625000D03*
%TD*%
D11*
%TO.C,C44*%
X144927501Y-49000000D03*
X146477501Y-49000000D03*
%TD*%
D10*
%TO.C,R53*%
X145577501Y-37640000D03*
X147227501Y-37640000D03*
%TD*%
D27*
%TO.C,D49*%
X133251601Y-79815000D03*
X131676601Y-79815000D03*
%TD*%
D17*
%TO.C,R28*%
X142127501Y-113275000D03*
X142127501Y-114925000D03*
%TD*%
D23*
%TO.C,C23*%
X143227501Y-119625000D03*
X143227501Y-121175000D03*
%TD*%
D26*
%TO.C,D30*%
X182967501Y-140420000D03*
X182967501Y-138845000D03*
%TD*%
D19*
%TO.C,R31*%
X125427501Y-93575000D03*
X125427501Y-91925000D03*
%TD*%
D13*
%TO.C,C41*%
X166587501Y-40010000D03*
X165037501Y-40010000D03*
%TD*%
D28*
%TO.C,C74*%
X147075509Y-92951992D03*
X145979493Y-94048008D03*
%TD*%
D29*
%TO.C,C100*%
X122176601Y-79925000D03*
X122176601Y-78375000D03*
%TD*%
D11*
%TO.C,C31*%
X198177501Y-118000000D03*
X199727501Y-118000000D03*
%TD*%
D16*
%TO.C,D44*%
X126926601Y-60575000D03*
X128626601Y-60575000D03*
%TD*%
D10*
%TO.C,R101*%
X197562501Y-74610000D03*
X199212501Y-74610000D03*
%TD*%
D17*
%TO.C,R42*%
X113127501Y-98775000D03*
X113127501Y-100425000D03*
%TD*%
D19*
%TO.C,R69*%
X116916601Y-64225000D03*
X116916601Y-62575000D03*
%TD*%
D17*
%TO.C,R98*%
X194692501Y-87180000D03*
X194692501Y-88830000D03*
%TD*%
D26*
%TO.C,D31*%
X181257501Y-140420000D03*
X181257501Y-138845000D03*
%TD*%
D23*
%TO.C,C138*%
X189402501Y-67330000D03*
X189402501Y-68880000D03*
%TD*%
D13*
%TO.C,C104*%
X130851601Y-72025000D03*
X129301601Y-72025000D03*
%TD*%
D23*
%TO.C,C109*%
X118476601Y-62650000D03*
X118476601Y-64200000D03*
%TD*%
D30*
%TO.C,D5*%
X148227501Y-123950000D03*
X148227501Y-125650000D03*
%TD*%
D31*
%TO.C,Q11*%
X134117501Y-122050000D03*
D32*
X131827501Y-128400000D03*
D31*
X129537501Y-122050000D03*
%TD*%
D29*
%TO.C,C16*%
X100077501Y-95500000D03*
X100077501Y-93950000D03*
%TD*%
D23*
%TO.C,C37*%
X113427501Y-104150000D03*
X113427501Y-105700000D03*
%TD*%
D33*
%TO.C,C68*%
X161276406Y-95812652D03*
X162372422Y-96908668D03*
%TD*%
D14*
%TO.C,Q12*%
X126027501Y-110720000D03*
D15*
X132377501Y-113010000D03*
D14*
X126027501Y-115300000D03*
%TD*%
D34*
%TO.C,Y1*%
X119042577Y-45484924D03*
X120527501Y-44000000D03*
X119254709Y-42727208D03*
X117769785Y-44212132D03*
%TD*%
D16*
%TO.C,D37*%
X130486601Y-57625000D03*
X132186601Y-57625000D03*
%TD*%
D18*
%TO.C,R15*%
X153552501Y-124400000D03*
X151902501Y-124400000D03*
%TD*%
D23*
%TO.C,C128*%
X202317101Y-82083400D03*
X202317101Y-83633400D03*
%TD*%
D33*
%TO.C,C67*%
X162379493Y-94751992D03*
X163475509Y-95848008D03*
%TD*%
D35*
%TO.C,IC6*%
X147852501Y-116675000D03*
D36*
X148827501Y-116200000D03*
X148827501Y-115700000D03*
X148827501Y-115200000D03*
X148827501Y-114700000D03*
X148827501Y-114200000D03*
X148827501Y-113700000D03*
X148827501Y-113200000D03*
X148827501Y-112700000D03*
X148827501Y-112200000D03*
X148827501Y-111700000D03*
D35*
X147852501Y-111225000D03*
X146352501Y-111225000D03*
D36*
X145377501Y-111700000D03*
X145377501Y-112200000D03*
X145377501Y-112700000D03*
X145377501Y-113200000D03*
X145377501Y-113700000D03*
X145377501Y-114200000D03*
X145377501Y-114700000D03*
X145377501Y-115200000D03*
X145377501Y-115700000D03*
X145377501Y-116200000D03*
D35*
X146352501Y-116675000D03*
D37*
X147102501Y-113950000D03*
%TD*%
D29*
%TO.C,C79*%
X160537501Y-139400000D03*
X160537501Y-137850000D03*
%TD*%
D16*
%TO.C,D14*%
X145252501Y-54780000D03*
X143552501Y-54780000D03*
%TD*%
D23*
%TO.C,C39*%
X160002501Y-37530000D03*
X160002501Y-39080000D03*
%TD*%
D29*
%TO.C,C101*%
X118976601Y-79925000D03*
X118976601Y-78375000D03*
%TD*%
D38*
%TO.C,L1*%
X140727501Y-130100000D03*
X140727501Y-124300000D03*
%TD*%
D17*
%TO.C,R16*%
X168427501Y-125825000D03*
X168427501Y-127475000D03*
%TD*%
D10*
%TO.C,R55*%
X145577501Y-39190000D03*
X147227501Y-39190000D03*
%TD*%
D19*
%TO.C,R38*%
X123827501Y-93575000D03*
X123827501Y-91925000D03*
%TD*%
D16*
%TO.C,D13*%
X143592501Y-61930000D03*
X145292501Y-61930000D03*
%TD*%
D10*
%TO.C,R77*%
X119426601Y-59475000D03*
X121076601Y-59475000D03*
%TD*%
D19*
%TO.C,R60*%
X175207501Y-137525000D03*
X175207501Y-135875000D03*
%TD*%
D11*
%TO.C,C61*%
X144927501Y-52125000D03*
X146477501Y-52125000D03*
%TD*%
D23*
%TO.C,C111*%
X120051601Y-62655000D03*
X120051601Y-64205000D03*
%TD*%
D18*
%TO.C,R103*%
X188952501Y-87780000D03*
X187302501Y-87780000D03*
%TD*%
D19*
%TO.C,R59*%
X181227501Y-137395000D03*
X181227501Y-135745000D03*
%TD*%
D23*
%TO.C,C56*%
X156802501Y-37530000D03*
X156802501Y-39080000D03*
%TD*%
D17*
%TO.C,R93*%
X194662501Y-83030000D03*
X194662501Y-84680000D03*
%TD*%
D23*
%TO.C,C11*%
X166927501Y-125825000D03*
X166927501Y-127375000D03*
%TD*%
D18*
%TO.C,R37*%
X116452501Y-99200000D03*
X114802501Y-99200000D03*
%TD*%
D17*
%TO.C,R47*%
X160462501Y-53230000D03*
X160462501Y-54880000D03*
%TD*%
D23*
%TO.C,C32*%
X116127501Y-92275000D03*
X116127501Y-93825000D03*
%TD*%
D16*
%TO.C,D61*%
X177852501Y-84580000D03*
X176152501Y-84580000D03*
%TD*%
D19*
%TO.C,R71*%
X115286601Y-60025000D03*
X115286601Y-58375000D03*
%TD*%
D23*
%TO.C,C48*%
X152002501Y-37530000D03*
X152002501Y-39080000D03*
%TD*%
D19*
%TO.C,R68*%
X115316601Y-64225000D03*
X115316601Y-62575000D03*
%TD*%
D11*
%TO.C,C134*%
X197612501Y-76210000D03*
X199162501Y-76210000D03*
%TD*%
D13*
%TO.C,C135*%
X199162501Y-71400000D03*
X197612501Y-71400000D03*
%TD*%
D39*
%TO.C,IC7*%
X127177501Y-98474000D03*
X126527501Y-98474000D03*
X125877501Y-98474000D03*
X125227501Y-98474000D03*
X124577501Y-98474000D03*
X123927501Y-98474000D03*
X123277501Y-98474000D03*
X122627501Y-98474000D03*
X121977501Y-98474000D03*
X121327501Y-98474000D03*
X120677501Y-98474000D03*
X120027501Y-98474000D03*
X119377501Y-98474000D03*
X118727501Y-98474000D03*
X118727501Y-104350000D03*
X119377501Y-104350000D03*
X120027501Y-104350000D03*
X120677501Y-104350000D03*
X121327501Y-104350000D03*
X121977501Y-104350000D03*
X122627501Y-104350000D03*
X123277501Y-104350000D03*
X123927501Y-104350000D03*
X124577501Y-104350000D03*
X125227501Y-104350000D03*
X125877501Y-104350000D03*
X126527501Y-104350000D03*
X127177501Y-104350000D03*
D40*
X122952501Y-101412000D03*
%TD*%
D19*
%TO.C,R17*%
X140627501Y-114900000D03*
X140627501Y-113250000D03*
%TD*%
D23*
%TO.C,C21*%
X144727501Y-120425000D03*
X144727501Y-121975000D03*
%TD*%
D41*
%TO.C,U3*%
X108227501Y-107300000D03*
X108227501Y-105000000D03*
D42*
X101927501Y-105000000D03*
D41*
X108227501Y-102700000D03*
%TD*%
D16*
%TO.C,D47*%
X108826601Y-59475000D03*
X110526601Y-59475000D03*
%TD*%
D30*
%TO.C,D6*%
X150227501Y-123950000D03*
X150227501Y-125650000D03*
%TD*%
D25*
%TO.C,H4*%
X99027501Y-137000000D03*
%TD*%
D11*
%TO.C,C91*%
X101636601Y-59525000D03*
X103186601Y-59525000D03*
%TD*%
D13*
%TO.C,C136*%
X199162501Y-73010000D03*
X197612501Y-73010000D03*
%TD*%
D18*
%TO.C,R74*%
X130201601Y-79815000D03*
X128551601Y-79815000D03*
%TD*%
D19*
%TO.C,R62*%
X178827501Y-137500000D03*
X178827501Y-135850000D03*
%TD*%
D43*
%TO.C,U5*%
X150492501Y-43630000D03*
X150492501Y-44030000D03*
X150492501Y-44430000D03*
X150492501Y-44830000D03*
X150492501Y-45230000D03*
X150492501Y-45630000D03*
X150492501Y-46030000D03*
X150492501Y-46430000D03*
X150492501Y-46830000D03*
X150492501Y-47230000D03*
X150492501Y-47630000D03*
X150492501Y-48030000D03*
X150492501Y-48430000D03*
X150492501Y-48830000D03*
D44*
X151092501Y-49430000D03*
X151492501Y-49430000D03*
X151892501Y-49430000D03*
X152292501Y-49430000D03*
X152692501Y-49430000D03*
X153092501Y-49430000D03*
X153492501Y-49430000D03*
X153892501Y-49430000D03*
X154292501Y-49430000D03*
X154692501Y-49430000D03*
X155092501Y-49430000D03*
X155492501Y-49430000D03*
X155892501Y-49430000D03*
X156292501Y-49430000D03*
X156692501Y-49430000D03*
X157092501Y-49430000D03*
X157492501Y-49430000D03*
X157892501Y-49430000D03*
X158292501Y-49430000D03*
X158692501Y-49430000D03*
X159092501Y-49430000D03*
X159492501Y-49430000D03*
X159892501Y-49430000D03*
X160292501Y-49430000D03*
D43*
X160892501Y-48830000D03*
X160892501Y-48430000D03*
X160892501Y-48030000D03*
X160892501Y-47630000D03*
X160892501Y-47230000D03*
X160892501Y-46830000D03*
X160892501Y-46430000D03*
X160892501Y-46030000D03*
X160892501Y-45630000D03*
X160892501Y-45230000D03*
X160892501Y-44830000D03*
X160892501Y-44430000D03*
X160892501Y-44030000D03*
X160892501Y-43630000D03*
D44*
X160292501Y-43030000D03*
X159892501Y-43030000D03*
X159492501Y-43030000D03*
X159092501Y-43030000D03*
X158692501Y-43030000D03*
X158292501Y-43030000D03*
X157892501Y-43030000D03*
X157492501Y-43030000D03*
X157092501Y-43030000D03*
X156692501Y-43030000D03*
X156292501Y-43030000D03*
X155892501Y-43030000D03*
X155492501Y-43030000D03*
X155092501Y-43030000D03*
X154692501Y-43030000D03*
X154292501Y-43030000D03*
X153892501Y-43030000D03*
X153492501Y-43030000D03*
X153092501Y-43030000D03*
X152692501Y-43030000D03*
X152292501Y-43030000D03*
X151892501Y-43030000D03*
X151492501Y-43030000D03*
X151092501Y-43030000D03*
D45*
X155692501Y-46230000D03*
%TD*%
D46*
%TO.C,C69*%
X120942577Y-46884924D03*
X122038593Y-45788908D03*
%TD*%
D12*
%TO.C,TP4*%
X175887501Y-143460000D03*
%TD*%
D23*
%TO.C,C129*%
X203917101Y-82058400D03*
X203917101Y-83608400D03*
%TD*%
D13*
%TO.C,C47*%
X174167501Y-59530000D03*
X172617501Y-59530000D03*
%TD*%
D28*
%TO.C,C76*%
X152573109Y-98159992D03*
X151477093Y-99256008D03*
%TD*%
D29*
%TO.C,C66*%
X155727501Y-54800000D03*
X155727501Y-53250000D03*
%TD*%
D16*
%TO.C,D20*%
X166952501Y-60080000D03*
X165252501Y-60080000D03*
%TD*%
D47*
%TO.C,U1*%
X194527501Y-111700000D03*
X196827501Y-111700000D03*
D48*
X196827501Y-105400000D03*
D47*
X199127501Y-111700000D03*
%TD*%
D13*
%TO.C,C40*%
X166662501Y-52710000D03*
X165112501Y-52710000D03*
%TD*%
D49*
%TO.C,U2*%
X102177501Y-91200000D03*
X102177501Y-93500000D03*
D50*
X108477501Y-93500000D03*
D49*
X102177501Y-95800000D03*
%TD*%
D23*
%TO.C,C24*%
X140627501Y-119425000D03*
X140627501Y-120975000D03*
%TD*%
D13*
%TO.C,C140*%
X199187501Y-77810000D03*
X197637501Y-77810000D03*
%TD*%
D30*
%TO.C,D28*%
X152992501Y-56187500D03*
X152992501Y-57887500D03*
%TD*%
D13*
%TO.C,C50*%
X166637501Y-51130000D03*
X165087501Y-51130000D03*
%TD*%
D16*
%TO.C,D38*%
X132186601Y-55525000D03*
X130486601Y-55525000D03*
%TD*%
D27*
%TO.C,D52*%
X133251601Y-78100000D03*
X131676601Y-78100000D03*
%TD*%
D10*
%TO.C,R41*%
X113477501Y-101900000D03*
X115127501Y-101900000D03*
%TD*%
D46*
%TO.C,C73*%
X159579493Y-83716638D03*
X160675509Y-82620622D03*
%TD*%
D13*
%TO.C,C97*%
X110766601Y-71045000D03*
X109216601Y-71045000D03*
%TD*%
D24*
%TO.C,C70*%
X150336169Y-82987348D03*
X149240153Y-81891332D03*
%TD*%
D16*
%TO.C,D22*%
X166952501Y-57980000D03*
X165252501Y-57980000D03*
%TD*%
D27*
%TO.C,D35*%
X151127501Y-132650000D03*
X149552501Y-132650000D03*
%TD*%
D31*
%TO.C,Q10*%
X134807501Y-134900000D03*
D32*
X132527501Y-141200000D03*
D31*
X130247501Y-134900000D03*
%TD*%
D16*
%TO.C,D8*%
X156577501Y-107700000D03*
X154877501Y-107700000D03*
%TD*%
D13*
%TO.C,C105*%
X130851601Y-73625000D03*
X129301601Y-73625000D03*
%TD*%
D23*
%TO.C,C139*%
X191002501Y-67305000D03*
X191002501Y-68855000D03*
%TD*%
D10*
%TO.C,R66*%
X149555001Y-135800000D03*
X151205001Y-135800000D03*
%TD*%
D23*
%TO.C,C45*%
X155202501Y-37505000D03*
X155202501Y-39055000D03*
%TD*%
D19*
%TO.C,R18*%
X140627501Y-117925000D03*
X140627501Y-116275000D03*
%TD*%
D16*
%TO.C,D39*%
X130526601Y-62675000D03*
X132226601Y-62675000D03*
%TD*%
%TO.C,D51*%
X105226601Y-61575000D03*
X106926601Y-61575000D03*
%TD*%
D19*
%TO.C,R72*%
X113686601Y-60075000D03*
X113686601Y-58425000D03*
%TD*%
D17*
%TO.C,R22*%
X149327501Y-106600000D03*
X149327501Y-108250000D03*
%TD*%
D13*
%TO.C,C133*%
X199237501Y-79410000D03*
X197687501Y-79410000D03*
%TD*%
%TO.C,C53*%
X166562501Y-41600000D03*
X165012501Y-41600000D03*
%TD*%
D26*
%TO.C,D33*%
X177027501Y-140550000D03*
X177027501Y-138975000D03*
%TD*%
D17*
%TO.C,R48*%
X158862501Y-53230000D03*
X158862501Y-54880000D03*
%TD*%
D13*
%TO.C,C46*%
X174142501Y-57930000D03*
X172592501Y-57930000D03*
%TD*%
D25*
%TO.C,H1*%
X99027501Y-43000000D03*
%TD*%
D43*
%TO.C,U7*%
X125286601Y-73825000D03*
X125286601Y-73425000D03*
X125286601Y-73025000D03*
X125286601Y-72625000D03*
X125286601Y-72225000D03*
X125286601Y-71825000D03*
X125286601Y-71425000D03*
X125286601Y-71025000D03*
X125286601Y-70625000D03*
X125286601Y-70225000D03*
X125286601Y-69825000D03*
X125286601Y-69425000D03*
X125286601Y-69025000D03*
X125286601Y-68625000D03*
D44*
X124686601Y-68025000D03*
X124286601Y-68025000D03*
X123886601Y-68025000D03*
X123486601Y-68025000D03*
X123086601Y-68025000D03*
X122686601Y-68025000D03*
X122286601Y-68025000D03*
X121886601Y-68025000D03*
X121486601Y-68025000D03*
X121086601Y-68025000D03*
X120686601Y-68025000D03*
X120286601Y-68025000D03*
X119886601Y-68025000D03*
X119486601Y-68025000D03*
X119086601Y-68025000D03*
X118686601Y-68025000D03*
X118286601Y-68025000D03*
X117886601Y-68025000D03*
X117486601Y-68025000D03*
X117086601Y-68025000D03*
X116686601Y-68025000D03*
X116286601Y-68025000D03*
X115886601Y-68025000D03*
X115486601Y-68025000D03*
D43*
X114886601Y-68625000D03*
X114886601Y-69025000D03*
X114886601Y-69425000D03*
X114886601Y-69825000D03*
X114886601Y-70225000D03*
X114886601Y-70625000D03*
X114886601Y-71025000D03*
X114886601Y-71425000D03*
X114886601Y-71825000D03*
X114886601Y-72225000D03*
X114886601Y-72625000D03*
X114886601Y-73025000D03*
X114886601Y-73425000D03*
X114886601Y-73825000D03*
D44*
X115486601Y-74425000D03*
X115886601Y-74425000D03*
X116286601Y-74425000D03*
X116686601Y-74425000D03*
X117086601Y-74425000D03*
X117486601Y-74425000D03*
X117886601Y-74425000D03*
X118286601Y-74425000D03*
X118686601Y-74425000D03*
X119086601Y-74425000D03*
X119486601Y-74425000D03*
X119886601Y-74425000D03*
X120286601Y-74425000D03*
X120686601Y-74425000D03*
X121086601Y-74425000D03*
X121486601Y-74425000D03*
X121886601Y-74425000D03*
X122286601Y-74425000D03*
X122686601Y-74425000D03*
X123086601Y-74425000D03*
X123486601Y-74425000D03*
X123886601Y-74425000D03*
X124286601Y-74425000D03*
X124686601Y-74425000D03*
D45*
X120086601Y-71225000D03*
%TD*%
D18*
%TO.C,R78*%
X121076601Y-57875000D03*
X119426601Y-57875000D03*
%TD*%
D17*
%TO.C,R44*%
X145927501Y-142675000D03*
X145927501Y-144325000D03*
%TD*%
D11*
%TO.C,C126*%
X177352501Y-79500000D03*
X178902501Y-79500000D03*
%TD*%
D17*
%TO.C,R50*%
X160492501Y-57430000D03*
X160492501Y-59080000D03*
%TD*%
D11*
%TO.C,C62*%
X144927501Y-50600000D03*
X146477501Y-50600000D03*
%TD*%
D28*
%TO.C,C75*%
X145979493Y-91855976D03*
X144883477Y-92951992D03*
%TD*%
D19*
%TO.C,R19*%
X143627501Y-104525000D03*
X143627501Y-102875000D03*
%TD*%
D11*
%TO.C,C147*%
X184302501Y-89380000D03*
X185852501Y-89380000D03*
%TD*%
D13*
%TO.C,C106*%
X130802501Y-64575000D03*
X129252501Y-64575000D03*
%TD*%
D17*
%TO.C,R94*%
X193062501Y-83030000D03*
X193062501Y-84680000D03*
%TD*%
D16*
%TO.C,D69*%
X199552501Y-87780000D03*
X197852501Y-87780000D03*
%TD*%
%TO.C,D18*%
X147152501Y-54780000D03*
X148852501Y-54780000D03*
%TD*%
%TO.C,D64*%
X181492501Y-91730000D03*
X179792501Y-91730000D03*
%TD*%
%TO.C,D62*%
X176202501Y-86680000D03*
X177902501Y-86680000D03*
%TD*%
D12*
%TO.C,TP6*%
X180967501Y-143460000D03*
%TD*%
D11*
%TO.C,C141*%
X177527501Y-75230000D03*
X179077501Y-75230000D03*
%TD*%
D24*
%TO.C,C81*%
X161275509Y-97948008D03*
X160179493Y-96851992D03*
%TD*%
D23*
%TO.C,C127*%
X187802501Y-67305000D03*
X187802501Y-68855000D03*
%TD*%
D16*
%TO.C,D26*%
X170552501Y-55880000D03*
X168852501Y-55880000D03*
%TD*%
D18*
%TO.C,R43*%
X150252501Y-138900000D03*
X148602501Y-138900000D03*
%TD*%
D16*
%TO.C,D73*%
X203152501Y-85680000D03*
X201452501Y-85680000D03*
%TD*%
D11*
%TO.C,C96*%
X109141601Y-67845000D03*
X110691601Y-67845000D03*
%TD*%
D30*
%TO.C,D11*%
X130727501Y-104150000D03*
X130727501Y-105850000D03*
%TD*%
D16*
%TO.C,D68*%
X203102501Y-89880000D03*
X201402501Y-89880000D03*
%TD*%
D29*
%TO.C,C108*%
X132327501Y-67725000D03*
X132327501Y-66175000D03*
%TD*%
%TO.C,C15*%
X147827501Y-108200000D03*
X147827501Y-106650000D03*
%TD*%
D16*
%TO.C,D46*%
X105276601Y-57375000D03*
X106976601Y-57375000D03*
%TD*%
D51*
%TO.C,J3*%
X180727501Y-34200000D03*
D52*
X180727501Y-36740000D03*
X180727501Y-39280000D03*
X180727501Y-41820000D03*
%TD*%
D11*
%TO.C,C124*%
X177552501Y-72030000D03*
X179102501Y-72030000D03*
%TD*%
D53*
%TO.C,D74*%
X175127501Y-69100000D03*
X176702501Y-69100000D03*
%TD*%
D10*
%TO.C,R29*%
X138002501Y-135200000D03*
X139652501Y-135200000D03*
%TD*%
D17*
%TO.C,R32*%
X109077501Y-87525000D03*
X109077501Y-89175000D03*
%TD*%
D11*
%TO.C,C19*%
X154752501Y-121600000D03*
X156302501Y-121600000D03*
%TD*%
%TO.C,C103*%
X109191601Y-69445000D03*
X110741601Y-69445000D03*
%TD*%
D30*
%TO.C,D10*%
X115227501Y-104100000D03*
X115227501Y-105800000D03*
%TD*%
D16*
%TO.C,D65*%
X179752501Y-84580000D03*
X181452501Y-84580000D03*
%TD*%
D54*
%TO.C,P1*%
X151137501Y-143670000D03*
X156917501Y-143670000D03*
D55*
X150677501Y-142595000D03*
X151477501Y-142595000D03*
X152777501Y-142595000D03*
X153777501Y-142595000D03*
X154277501Y-142595000D03*
X155277501Y-142595000D03*
X156577501Y-142595000D03*
X157377501Y-142595000D03*
X157077501Y-142595000D03*
X156277501Y-142595000D03*
X155777501Y-142595000D03*
X154777501Y-142595000D03*
X153277501Y-142595000D03*
X152277501Y-142595000D03*
X151777501Y-142595000D03*
X150977501Y-142595000D03*
D56*
X148917501Y-147100000D03*
X159137501Y-147100000D03*
X148917501Y-143170000D03*
X159137501Y-143170000D03*
%TD*%
D24*
%TO.C,C71*%
X149275509Y-84048008D03*
X148179493Y-82951992D03*
%TD*%
D11*
%TO.C,C60*%
X144927501Y-43830000D03*
X146477501Y-43830000D03*
%TD*%
%TO.C,C142*%
X177527501Y-73630000D03*
X179077501Y-73630000D03*
%TD*%
D29*
%TO.C,C102*%
X117376601Y-79950000D03*
X117376601Y-78400000D03*
%TD*%
D17*
%TO.C,R35*%
X122327501Y-92000000D03*
X122327501Y-93650000D03*
%TD*%
D16*
%TO.C,D29*%
X154592501Y-61380000D03*
X156292501Y-61380000D03*
%TD*%
D23*
%TO.C,C57*%
X158402501Y-37505000D03*
X158402501Y-39055000D03*
%TD*%
%TO.C,C63*%
X143402501Y-48975000D03*
X143402501Y-50525000D03*
%TD*%
D13*
%TO.C,C123*%
X199187501Y-69810000D03*
X197637501Y-69810000D03*
%TD*%
D16*
%TO.C,D67*%
X199552501Y-89880000D03*
X197852501Y-89880000D03*
%TD*%
D33*
%TO.C,C82*%
X157779493Y-99051992D03*
X158875509Y-100148008D03*
%TD*%
D11*
%TO.C,C18*%
X143652501Y-107600000D03*
X145202501Y-107600000D03*
%TD*%
D16*
%TO.C,D40*%
X132176601Y-60575000D03*
X130476601Y-60575000D03*
%TD*%
D23*
%TO.C,C35*%
X119327501Y-92000000D03*
X119327501Y-93550000D03*
%TD*%
D16*
%TO.C,D70*%
X203152501Y-87780000D03*
X201452501Y-87780000D03*
%TD*%
D19*
%TO.C,R25*%
X145227501Y-104525000D03*
X145227501Y-102875000D03*
%TD*%
D23*
%TO.C,C49*%
X150402501Y-37530000D03*
X150402501Y-39080000D03*
%TD*%
D16*
%TO.C,D45*%
X108826601Y-57375000D03*
X110526601Y-57375000D03*
%TD*%
%TO.C,D42*%
X126886601Y-55525000D03*
X128586601Y-55525000D03*
%TD*%
D18*
%TO.C,R40*%
X116252501Y-95375000D03*
X114602501Y-95375000D03*
%TD*%
D23*
%TO.C,C131*%
X183002501Y-67330000D03*
X183002501Y-68880000D03*
%TD*%
D46*
%TO.C,C72*%
X160710863Y-84848008D03*
X161806879Y-83751992D03*
%TD*%
D53*
%TO.C,D24*%
X142527501Y-37500000D03*
X144102501Y-37500000D03*
%TD*%
D19*
%TO.C,R34*%
X151677501Y-108525000D03*
X151677501Y-106875000D03*
%TD*%
D17*
%TO.C,R51*%
X162092501Y-57380000D03*
X162092501Y-59030000D03*
%TD*%
D12*
%TO.C,TP1*%
X175887501Y-146000000D03*
%TD*%
D16*
%TO.C,D60*%
X176192501Y-91730000D03*
X177892501Y-91730000D03*
%TD*%
D18*
%TO.C,R76*%
X130201601Y-78265000D03*
X128551601Y-78265000D03*
%TD*%
D29*
%TO.C,C90*%
X120576601Y-79950000D03*
X120576601Y-78400000D03*
%TD*%
D10*
%TO.C,R64*%
X154602501Y-133200000D03*
X156252501Y-133200000D03*
%TD*%
D53*
%TO.C,D71*%
X175127501Y-67440000D03*
X176702501Y-67440000D03*
%TD*%
D11*
%TO.C,C65*%
X151702501Y-59580000D03*
X153252501Y-59580000D03*
%TD*%
D13*
%TO.C,C58*%
X166587501Y-48010000D03*
X165037501Y-48010000D03*
%TD*%
D23*
%TO.C,C121*%
X192602501Y-67330000D03*
X192602501Y-68880000D03*
%TD*%
D13*
%TO.C,C110*%
X124076601Y-57875000D03*
X122526601Y-57875000D03*
%TD*%
D23*
%TO.C,C22*%
X110327501Y-103025000D03*
X110327501Y-104575000D03*
%TD*%
D19*
%TO.C,R52*%
X161602501Y-39080000D03*
X161602501Y-37430000D03*
%TD*%
%TO.C,R67*%
X113716601Y-64225000D03*
X113716601Y-62575000D03*
%TD*%
D23*
%TO.C,C130*%
X184602501Y-67330000D03*
X184602501Y-68880000D03*
%TD*%
D29*
%TO.C,C94*%
X125376601Y-79925000D03*
X125376601Y-78375000D03*
%TD*%
D11*
%TO.C,C13*%
X198152501Y-103350000D03*
X199702501Y-103350000D03*
%TD*%
D19*
%TO.C,R58*%
X182927501Y-137395000D03*
X182927501Y-135745000D03*
%TD*%
D23*
%TO.C,C125*%
X200717101Y-82083400D03*
X200717101Y-83633400D03*
%TD*%
D16*
%TO.C,D15*%
X143602501Y-56880000D03*
X145302501Y-56880000D03*
%TD*%
%TO.C,D21*%
X170502501Y-60080000D03*
X168802501Y-60080000D03*
%TD*%
D10*
%TO.C,R24*%
X137902501Y-133100000D03*
X139552501Y-133100000D03*
%TD*%
D57*
%TO.C,SW1*%
X163777501Y-142250000D03*
X170277501Y-142250000D03*
X163777501Y-146750000D03*
X170277501Y-146750000D03*
%TD*%
D11*
%TO.C,C95*%
X109141601Y-66325000D03*
X110691601Y-66325000D03*
%TD*%
D19*
%TO.C,R27*%
X142127501Y-111125000D03*
X142127501Y-109475000D03*
%TD*%
D47*
%TO.C,U4*%
X194427501Y-126400000D03*
X196727501Y-126400000D03*
D48*
X196727501Y-120100000D03*
D47*
X199027501Y-126400000D03*
%TD*%
D13*
%TO.C,C17*%
X156252501Y-120100000D03*
X154702501Y-120100000D03*
%TD*%
D16*
%TO.C,D12*%
X145292501Y-59830000D03*
X143592501Y-59830000D03*
%TD*%
D13*
%TO.C,C122*%
X199262501Y-82510000D03*
X197712501Y-82510000D03*
%TD*%
D27*
%TO.C,D36*%
X151127501Y-137350000D03*
X149552501Y-137350000D03*
%TD*%
D10*
%TO.C,R100*%
X178177501Y-67440000D03*
X179827501Y-67440000D03*
%TD*%
D17*
%TO.C,R33*%
X153227501Y-106875000D03*
X153227501Y-108525000D03*
%TD*%
D18*
%TO.C,R75*%
X110816601Y-72645000D03*
X109166601Y-72645000D03*
%TD*%
D13*
%TO.C,C10*%
X198802501Y-113900000D03*
X197252501Y-113900000D03*
%TD*%
D23*
%TO.C,C145*%
X175827501Y-79475000D03*
X175827501Y-81025000D03*
%TD*%
D58*
%TO.C,U6*%
X157577501Y-137873000D03*
X157577501Y-137373000D03*
X157577501Y-136873000D03*
X157577501Y-136373000D03*
X157577501Y-135873000D03*
X157577501Y-135373000D03*
D59*
X156827501Y-134623000D03*
X156327501Y-134623000D03*
X155827501Y-134623000D03*
X155327501Y-134623000D03*
X154827501Y-134623000D03*
X154327501Y-134623000D03*
D58*
X153577501Y-135373000D03*
X153577501Y-135873000D03*
X153577501Y-136373000D03*
X153577501Y-136873000D03*
X153577501Y-137373000D03*
X153577501Y-137873000D03*
D59*
X154327501Y-138623000D03*
X154827501Y-138623000D03*
X155327501Y-138623000D03*
X155827501Y-138623000D03*
X156327501Y-138623000D03*
X156827501Y-138623000D03*
D60*
X155577501Y-136623000D03*
%TD*%
D26*
%TO.C,D34*%
X178827501Y-140550000D03*
X178827501Y-138975000D03*
%TD*%
D11*
%TO.C,C59*%
X144927501Y-45430000D03*
X146477501Y-45430000D03*
%TD*%
D16*
%TO.C,D16*%
X147192501Y-59830000D03*
X148892501Y-59830000D03*
%TD*%
D25*
%TO.C,H3*%
X209027501Y-137000000D03*
%TD*%
D43*
%TO.C,U8*%
X183092501Y-73430000D03*
X183092501Y-73830000D03*
X183092501Y-74230000D03*
X183092501Y-74630000D03*
X183092501Y-75030000D03*
X183092501Y-75430000D03*
X183092501Y-75830000D03*
X183092501Y-76230000D03*
X183092501Y-76630000D03*
X183092501Y-77030000D03*
X183092501Y-77430000D03*
X183092501Y-77830000D03*
X183092501Y-78230000D03*
X183092501Y-78630000D03*
D44*
X183692501Y-79230000D03*
X184092501Y-79230000D03*
X184492501Y-79230000D03*
X184892501Y-79230000D03*
X185292501Y-79230000D03*
X185692501Y-79230000D03*
X186092501Y-79230000D03*
X186492501Y-79230000D03*
X186892501Y-79230000D03*
X187292501Y-79230000D03*
X187692501Y-79230000D03*
X188092501Y-79230000D03*
X188492501Y-79230000D03*
X188892501Y-79230000D03*
X189292501Y-79230000D03*
X189692501Y-79230000D03*
X190092501Y-79230000D03*
X190492501Y-79230000D03*
X190892501Y-79230000D03*
X191292501Y-79230000D03*
X191692501Y-79230000D03*
X192092501Y-79230000D03*
X192492501Y-79230000D03*
X192892501Y-79230000D03*
D43*
X193492501Y-78630000D03*
X193492501Y-78230000D03*
X193492501Y-77830000D03*
X193492501Y-77430000D03*
X193492501Y-77030000D03*
X193492501Y-76630000D03*
X193492501Y-76230000D03*
X193492501Y-75830000D03*
X193492501Y-75430000D03*
X193492501Y-75030000D03*
X193492501Y-74630000D03*
X193492501Y-74230000D03*
X193492501Y-73830000D03*
X193492501Y-73430000D03*
D44*
X192892501Y-72830000D03*
X192492501Y-72830000D03*
X192092501Y-72830000D03*
X191692501Y-72830000D03*
X191292501Y-72830000D03*
X190892501Y-72830000D03*
X190492501Y-72830000D03*
X190092501Y-72830000D03*
X189692501Y-72830000D03*
X189292501Y-72830000D03*
X188892501Y-72830000D03*
X188492501Y-72830000D03*
X188092501Y-72830000D03*
X187692501Y-72830000D03*
X187292501Y-72830000D03*
X186892501Y-72830000D03*
X186492501Y-72830000D03*
X186092501Y-72830000D03*
X185692501Y-72830000D03*
X185292501Y-72830000D03*
X184892501Y-72830000D03*
X184492501Y-72830000D03*
X184092501Y-72830000D03*
X183692501Y-72830000D03*
D45*
X188292501Y-76030000D03*
%TD*%
D11*
%TO.C,C25*%
X139077501Y-111300000D03*
X140627501Y-111300000D03*
%TD*%
D29*
%TO.C,C146*%
X189902501Y-84605000D03*
X189902501Y-83055000D03*
%TD*%
D16*
%TO.C,D59*%
X177892501Y-89630000D03*
X176192501Y-89630000D03*
%TD*%
D11*
%TO.C,C99*%
X109216601Y-74245000D03*
X110766601Y-74245000D03*
%TD*%
D29*
%TO.C,C26*%
X99877501Y-103675000D03*
X99877501Y-102125000D03*
%TD*%
D19*
%TO.C,R70*%
X116886601Y-60025000D03*
X116886601Y-58375000D03*
%TD*%
D23*
%TO.C,C137*%
X186202501Y-67330000D03*
X186202501Y-68880000D03*
%TD*%
D10*
%TO.C,R102*%
X178177501Y-68990000D03*
X179827501Y-68990000D03*
%TD*%
D16*
%TO.C,D63*%
X179792501Y-89630000D03*
X181492501Y-89630000D03*
%TD*%
D29*
%TO.C,C93*%
X123776601Y-79925000D03*
X123776601Y-78375000D03*
%TD*%
D13*
%TO.C,C27*%
X140577501Y-105775000D03*
X139027501Y-105775000D03*
%TD*%
D11*
%TO.C,C144*%
X177352501Y-81100000D03*
X178902501Y-81100000D03*
%TD*%
D12*
%TO.C,TP5*%
X178427501Y-143460000D03*
%TD*%
D16*
%TO.C,D25*%
X166952501Y-55880000D03*
X165252501Y-55880000D03*
%TD*%
%TO.C,D66*%
X181452501Y-86680000D03*
X179752501Y-86680000D03*
%TD*%
D11*
%TO.C,C86*%
X109191601Y-77445000D03*
X110741601Y-77445000D03*
%TD*%
D13*
%TO.C,C43*%
X174142501Y-56330000D03*
X172592501Y-56330000D03*
%TD*%
D31*
%TO.C,Q8*%
X163817501Y-120950000D03*
D32*
X161527501Y-127300000D03*
D31*
X159237501Y-120950000D03*
%TD*%
D11*
%TO.C,C85*%
X109116601Y-64745000D03*
X110666601Y-64745000D03*
%TD*%
D16*
%TO.C,D23*%
X170552501Y-57980000D03*
X168852501Y-57980000D03*
%TD*%
D29*
%TO.C,C84*%
X115776601Y-79925000D03*
X115776601Y-78375000D03*
%TD*%
D16*
%TO.C,D19*%
X148852501Y-56880000D03*
X147152501Y-56880000D03*
%TD*%
D23*
%TO.C,C55*%
X153602501Y-37530000D03*
X153602501Y-39080000D03*
%TD*%
D29*
%TO.C,C78*%
X158927501Y-139400000D03*
X158927501Y-137850000D03*
%TD*%
D23*
%TO.C,C14*%
X153227501Y-120150000D03*
X153227501Y-121700000D03*
%TD*%
D29*
%TO.C,C148*%
X188327501Y-84600000D03*
X188327501Y-83050000D03*
%TD*%
D28*
%TO.C,C77*%
X151491235Y-97078118D03*
X150395219Y-98174134D03*
%TD*%
D17*
%TO.C,R97*%
X193092501Y-87230000D03*
X193092501Y-88880000D03*
%TD*%
D10*
%TO.C,R65*%
X149577501Y-134250000D03*
X151227501Y-134250000D03*
%TD*%
D30*
%TO.C,D53*%
X122786601Y-61267500D03*
X122786601Y-59567500D03*
%TD*%
D16*
%TO.C,D17*%
X148892501Y-61930000D03*
X147192501Y-61930000D03*
%TD*%
D13*
%TO.C,C89*%
X130802501Y-67700000D03*
X129252501Y-67700000D03*
%TD*%
D16*
%TO.C,D48*%
X105226601Y-59475000D03*
X106926601Y-59475000D03*
%TD*%
D11*
%TO.C,C42*%
X144952501Y-42230000D03*
X146502501Y-42230000D03*
%TD*%
D16*
%TO.C,D50*%
X108826601Y-61575000D03*
X110526601Y-61575000D03*
%TD*%
D19*
%TO.C,R61*%
X177017501Y-137525000D03*
X177017501Y-135875000D03*
%TD*%
D10*
%TO.C,R57*%
X154702501Y-59580000D03*
X156352501Y-59580000D03*
%TD*%
D13*
%TO.C,C29*%
X140627501Y-107500000D03*
X139077501Y-107500000D03*
%TD*%
D23*
%TO.C,C34*%
X117827501Y-92000000D03*
X117827501Y-93550000D03*
%TD*%
D29*
%TO.C,C64*%
X157302501Y-54805000D03*
X157302501Y-53255000D03*
%TD*%
D17*
%TO.C,R49*%
X158892501Y-57430000D03*
X158892501Y-59080000D03*
%TD*%
D11*
%TO.C,C88*%
X101636601Y-61125000D03*
X103186601Y-61125000D03*
%TD*%
D10*
%TO.C,R39*%
X114777501Y-97700000D03*
X116427501Y-97700000D03*
%TD*%
D29*
%TO.C,C30*%
X126927501Y-93600000D03*
X126927501Y-92050000D03*
%TD*%
D17*
%TO.C,R46*%
X162062501Y-53230000D03*
X162062501Y-54880000D03*
%TD*%
D11*
%TO.C,C92*%
X101611601Y-57925000D03*
X103161601Y-57925000D03*
%TD*%
D31*
%TO.C,Q13*%
X116717501Y-122450000D03*
D32*
X114427501Y-128800000D03*
D31*
X112137501Y-122450000D03*
%TD*%
D26*
%TO.C,D9*%
X107477501Y-89100000D03*
X107477501Y-87525000D03*
%TD*%
D11*
%TO.C,C52*%
X165012501Y-46410000D03*
X166562501Y-46410000D03*
%TD*%
D61*
%TO.C,L2*%
X126027501Y-120900000D03*
X120227501Y-120900000D03*
%TD*%
D23*
%TO.C,C33*%
X114627501Y-92300000D03*
X114627501Y-93850000D03*
%TD*%
D13*
%TO.C,C36*%
X132002501Y-102550000D03*
X130452501Y-102550000D03*
%TD*%
D53*
%TO.C,D27*%
X142527501Y-39200000D03*
X144102501Y-39200000D03*
%TD*%
D26*
%TO.C,D32*%
X175227501Y-140550000D03*
X175227501Y-138975000D03*
%TD*%
D11*
%TO.C,C143*%
X177352501Y-82625000D03*
X178902501Y-82625000D03*
%TD*%
D17*
%TO.C,R95*%
X191462501Y-83030000D03*
X191462501Y-84680000D03*
%TD*%
D30*
%TO.C,D75*%
X185592501Y-85987500D03*
X185592501Y-87687500D03*
%TD*%
D17*
%TO.C,R73*%
X114176601Y-78375000D03*
X114176601Y-80025000D03*
%TD*%
D16*
%TO.C,D76*%
X187192501Y-91180000D03*
X188892501Y-91180000D03*
%TD*%
D14*
%TO.C,Q14*%
X120462501Y-115290000D03*
D15*
X114112501Y-113000000D03*
D14*
X120462501Y-110710000D03*
%TD*%
D13*
%TO.C,C54*%
X166562501Y-43210000D03*
X165012501Y-43210000D03*
%TD*%
D51*
%TO.C,S1*%
X98427501Y-126600000D03*
D52*
X98427501Y-129140000D03*
X98427501Y-131680000D03*
%TD*%
D51*
%TO.C,S3*%
X209427501Y-118660000D03*
D52*
X209427501Y-121200000D03*
X209427501Y-123740000D03*
%TD*%
D51*
%TO.C,S2*%
X190127501Y-35900000D03*
D52*
X187587501Y-35900000D03*
X185047501Y-35900000D03*
%TD*%
D62*
%TO.C,J4*%
X116927501Y-141650000D03*
D63*
X124127501Y-141650000D03*
%TD*%
M02*
